<svg id="svg-source" height="0" version="1.1" xmlns="http://www.w3.org/2000/svg" style="position:absolute; margin-left: -100%" xmlns:xlink="http://www.w3.org/1999/xlink">

	<clipPath id="clip1">
		<rect width="200", height="200"></rect>
	</clipPath>

	<g id="twitter-bird-icon">
		<polyline vector-effect="non-scaling-stroke" fill-rule="evenodd" clip-rule="evenodd" fill="none" stroke-miterlimit="10" points="13.603,15.524 
		6.913,22.215 1.75,22.142 12.679,25.453 20.026,25.453 23.476,23.426 29.532,9.653 26.267,6.547 22.581,6.547 17.923,11.205 "/>
		<polygon vector-effect="non-scaling-stroke" fill-rule="evenodd" clip-rule="evenodd" fill="none" stroke-miterlimit="10" points="22.005,24.29 
		22.93,23.746 22.712,11.26 9.651,11.26 "/>
		<polygon vector-effect="non-scaling-stroke" fill-rule="evenodd" clip-rule="evenodd" fill="none" stroke-miterlimit="10" points="20.75,8.048 
		17.512,11.26 13.937,7.791 "/>
		<polygon vector-effect="non-scaling-stroke" fill-rule="evenodd" clip-rule="evenodd" fill="none" stroke-miterlimit="10" points="29.532,9.653 
		31,9.746 29.189,10.434 "/>
	</g>

	<g id="linkedin2-icon">
		<path d="M4.065,0.091c0.596-0.123,1.208-0.085,1.814-0.089c7.037,0,14.075,0.001,21.113-0.001c1.046,0,2.09,0.334,2.936,0.951
		c1.281,0.915,2.08,2.469,2.067,4.045c0,6.876,0,13.751,0,20.626c-0.017,0.996,0.096,2.025-0.264,2.979
		c-0.631,1.945-2.562,3.365-4.606,3.39c-6.832,0.005-13.664,0.001-20.496,0.002c-1.133-0.02-2.314,0.116-3.393-0.321
		c-1.864-0.679-3.211-2.558-3.233-4.545c0-7.42-0.006-14.838,0.002-22.258C0.019,2.583,1.813,0.477,4.065,0.091z M6.808,5.319
		C5.6,5.615,4.757,6.907,4.996,8.133c0.177,1.285,1.493,2.25,2.769,2.066c0.877-0.118,1.684-0.71,2.003-1.543
		c0.371-0.889,0.161-1.98-0.516-2.665C8.635,5.358,7.664,5.06,6.808,5.319z M5.03,11.919c-0.009,4.968-0.009,9.933,0,14.9
		c1.628-0.032,3.262,0.041,4.885-0.035c-0.011-4.945-0.018-9.891,0.006-14.836C8.292,11.888,6.659,11.947,5.03,11.919z
		M11.549,12.241c0.006,4.865,0.006,9.732,0.002,14.598c1.632,0.005,3.263,0.008,4.895-0.002c-0.008-3.197,0-6.394-0.003-9.591
		c-0.042-0.289,0.2-0.487,0.357-0.695c0.629-0.757,1.594-1.224,2.581-1.208c0.999-0.025,2.159,0.106,2.847,0.919
		c0.581,0.636,0.688,1.542,0.726,2.367c0.036,2.739-0.022,5.481,0.031,8.221c1.626-0.011,3.251-0.012,4.877,0
		c0.023-3.202,0.005-6.405,0.011-9.606c0.016-1.675-0.919-3.283-2.312-4.19c-1.586-1.072-3.586-1.212-5.439-1.046
		c-1.351,0.078-2.726,0.566-3.62,1.621c-0.021-0.551-0.008-1.102-0.01-1.652c-1.637-0.01-3.275,0.011-4.914-0.011
		C11.571,12.033,11.557,12.171,11.549,12.241z"/>
	</g>

	<g id="exit-icon">
		<path d="M25.702,16.447c0.061-0.059,0.108-0.129,0.142-0.207c0.032-0.076,0.05-0.158,0.05-0.24s-0.018-0.164-0.05-0.241
		c-0.033-0.077-0.081-0.147-0.142-0.206l-6.075-5.876c-0.254-0.246-0.668-0.246-0.923,0c-0.255,0.247-0.255,0.646,0,0.894
		l4.961,4.798H0.653C0.292,15.368,0,15.651,0,16c0,0.348,0.292,0.631,0.653,0.631h23.012l-4.961,4.799
		c-0.255,0.246-0.255,0.646,0,0.895c0.255,0.244,0.669,0.244,0.923,0L25.702,16.447z"/>
		<path d="M21.568,1.694c0,0.349,0.293,0.632,0.654,0.632h8.471v27.348h-8.471c-0.361,0-0.654,0.283-0.654,0.633
		c0,0.348,0.293,0.631,0.654,0.631h9.124c0.361,0,0.653-0.283,0.653-0.631V1.694c0-0.349-0.292-0.632-0.653-0.632h-9.124
		C21.861,1.062,21.568,1.346,21.568,1.694z"/>
	</g>

	<g id="check-icon">
		<polygon fill-rule="evenodd" clip-rule="evenodd" points="30.53,0.962 10.604,29.089 1.384,19.87 0,21.252 8.084,29.336 
		10.47,31.779 10.688,32 10.97,31.757 11.951,30.373 11.953,30.374 32,2.078 "/>
	</g>

	<g id="close-icon">
		<path d="M0.014,1.778L1.79,0.001l30.196,30.221l-1.778,1.777L0.014,1.778z"/>
		<path d="M0.014,1.778L1.79,0.001l30.196,30.221l-1.778,1.777L0.014,1.778z"/>
		<path d="M1.79,31.999l-1.776-1.777L30.208,0.001l1.778,1.777L1.79,31.999z"/>
	</g>

</svg>