<?xml version="1.0" encoding="utf-8"?>
<!-- Generator: Adobe Illustrator 16.0.0, SVG Export Plug-In . SVG Version: 6.00 Build 0)  -->
<!DOCTYPE svg PUBLIC "-//W3C//DTD SVG 1.1//EN" "http://www.w3.org/Graphics/SVG/1.1/DTD/svg11.dtd">
<svg version="1.1" id="Layer_1" xmlns="http://www.w3.org/2000/svg" xmlns:xlink="http://www.w3.org/1999/xlink" x="0px" y="0px"
	 width="54px" height="23px" viewBox="0 0 54 23" enable-background="new 0 0 54 23" xml:space="preserve">
<path id="path2483" fill="#FFFFFF" d="M3.441,20.312v1.818c0.223,0.023,0.392,0.034,0.513,0.034c0.407,0,0.707-0.076,0.896-0.229
	c0.184-0.153,0.281-0.397,0.281-0.732c0-0.311-0.092-0.538-0.271-0.688c-0.179-0.146-0.474-0.221-0.895-0.221L3.441,20.312z
	 M3.441,18.427v1.371c0.136,0.014,0.305,0.021,0.503,0.021c0.61,0,0.915-0.25,0.915-0.752c0-0.441-0.28-0.662-0.842-0.662
	C3.804,18.404,3.611,18.411,3.441,18.427z M4.148,22.691H2.788v-4.789c0.576-0.027,0.993-0.043,1.249-0.043
	c0.47,0,0.833,0.104,1.089,0.309c0.262,0.203,0.388,0.493,0.388,0.874c0,0.223-0.083,0.425-0.247,0.607
	c-0.165,0.183-0.349,0.298-0.547,0.345c0.382,0.09,0.658,0.241,0.828,0.452c0.174,0.212,0.261,0.5,0.261,0.862
	c0,0.421-0.155,0.757-0.46,1.009C5.044,22.567,4.642,22.691,4.148,22.691"/>
<path id="path2485" fill="#FFFFFF" d="M6.854,19.188v2.231c0,0.538,0.232,0.809,0.702,0.809c0.204,0,0.392-0.059,0.562-0.176
	c0.169-0.116,0.281-0.254,0.334-0.41v-2.454h0.615v3.504H8.452v-0.484c-0.068,0.138-0.208,0.264-0.416,0.379
	c-0.213,0.114-0.417,0.171-0.615,0.171c-0.383,0-0.678-0.11-0.881-0.331c-0.199-0.219-0.3-0.533-0.3-0.938v-2.3"/>
<path id="path2487" fill="#FFFFFF" d="M11.58,19.791c-0.131-0.092-0.267-0.14-0.407-0.14c-0.218,0-0.412,0.102-0.571,0.305
	c-0.165,0.202-0.247,0.448-0.247,0.733v2.002H9.74v-3.504h0.615v0.567c0.223-0.421,0.562-0.632,1.007-0.632
	c0.111,0,0.266,0.021,0.479,0.061"/>
<path id="path2489" fill="#FFFFFF" d="M11.952,22.482l0.218-0.59c0.344,0.222,0.625,0.335,0.833,0.335
	c0.383,0,0.576-0.16,0.576-0.482c0-0.229-0.184-0.427-0.552-0.592c-0.286-0.131-0.479-0.229-0.576-0.297
	c-0.097-0.068-0.184-0.147-0.256-0.232c-0.073-0.085-0.126-0.176-0.165-0.274c-0.034-0.098-0.053-0.2-0.053-0.311
	c0-0.288,0.106-0.514,0.314-0.674c0.208-0.162,0.479-0.242,0.813-0.242c0.257,0,0.576,0.08,0.959,0.24l-0.174,0.572
	c-0.242-0.189-0.489-0.284-0.736-0.284c-0.146,0-0.271,0.034-0.373,0.104c-0.097,0.07-0.15,0.158-0.15,0.264
	c0,0.225,0.126,0.395,0.382,0.509l0.44,0.203c0.271,0.123,0.47,0.266,0.59,0.423c0.126,0.16,0.189,0.359,0.189,0.599
	c0,0.315-0.112,0.562-0.329,0.739c-0.223,0.178-0.523,0.266-0.915,0.266C12.62,22.757,12.276,22.664,11.952,22.482"/>
<path id="path2491" fill="#FFFFFF" d="M15.234,20.93c0,0.884,0.305,1.325,0.924,1.325c0.286,0,0.509-0.119,0.673-0.355
	c0.165-0.237,0.247-0.56,0.247-0.97c0-0.868-0.31-1.305-0.92-1.305c-0.28,0-0.508,0.117-0.673,0.349
	C15.316,20.205,15.234,20.525,15.234,20.93z M14.581,20.93c0-0.54,0.146-0.977,0.436-1.308c0.286-0.333,0.668-0.499,1.143-0.499
	c0.494,0,0.881,0.159,1.158,0.479c0.276,0.32,0.411,0.761,0.411,1.328c0,0.566-0.14,1.012-0.421,1.336
	c-0.281,0.327-0.663,0.491-1.147,0.491c-0.499,0-0.885-0.164-1.162-0.495C14.721,21.933,14.581,21.488,14.581,20.93"/>
<path id="path2493" fill="#FFFFFF" d="M20.356,22.691v-2.033c0-0.374-0.058-0.633-0.169-0.784c-0.112-0.147-0.3-0.223-0.562-0.223
	c-0.141,0-0.286,0.043-0.44,0.127c-0.155,0.085-0.271,0.188-0.354,0.312v2.601h-0.615v-3.504h0.421l0.194,0.45
	c0.203-0.344,0.538-0.515,0.997-0.515c0.76,0,1.143,0.466,1.143,1.399v2.169"/>
<path id="path2495" fill="#FFFFFF" d="M27.884,22.691l-0.571-3.078l-1.032,3.144h-0.165l-1.07-3.144l-0.557,3.078h-0.615
	l0.896-4.791h0.295L26.2,21.39l1.046-3.489h0.295l0.963,4.791"/>
<path id="path2497" fill="#FFFFFF" d="M30.834,20.964c-0.195-0.043-0.33-0.062-0.412-0.062c-0.311,0-0.566,0.081-0.766,0.243
	c-0.193,0.162-0.293,0.353-0.293,0.573c0,0.365,0.211,0.548,0.643,0.548c0.309,0,0.59-0.151,0.828-0.45V20.964z M30.891,22.293
	c-0.246,0.309-0.625,0.464-1.133,0.464c-0.273,0-0.508-0.102-0.711-0.3c-0.199-0.2-0.301-0.45-0.301-0.748
	c0-0.355,0.156-0.657,0.467-0.902c0.309-0.248,0.699-0.369,1.18-0.369c0.131,0,0.277,0.029,0.441,0.09
	c0-0.567-0.252-0.851-0.756-0.851c-0.389,0-0.682,0.103-0.891,0.311l-0.26-0.516c0.115-0.097,0.279-0.178,0.488-0.245
	c0.203-0.07,0.4-0.104,0.59-0.104c0.504,0,0.871,0.116,1.1,0.347c0.23,0.231,0.344,0.601,0.344,1.104v1.258
	c0,0.309,0.092,0.514,0.27,0.614v0.312c-0.252,0-0.436-0.036-0.561-0.108C31.037,22.577,30.945,22.457,30.891,22.293"/>
<path id="path2499" fill="#FFFFFF" d="M34.033,19.791c-0.135-0.092-0.27-0.14-0.406-0.14c-0.217,0-0.412,0.102-0.576,0.305
	c-0.164,0.202-0.242,0.448-0.242,0.733v2.002h-0.615v-3.504h0.615v0.567c0.223-0.421,0.557-0.632,1.002-0.632
	c0.111,0,0.271,0.021,0.48,0.061"/>
<path id="path2501" fill="#FFFFFF" d="M34.43,22.482l0.219-0.59c0.344,0.222,0.623,0.335,0.832,0.335
	c0.385,0,0.576-0.16,0.576-0.482c0-0.229-0.184-0.427-0.551-0.592c-0.285-0.131-0.475-0.229-0.576-0.297
	c-0.098-0.068-0.184-0.147-0.258-0.232c-0.072-0.085-0.127-0.176-0.164-0.274c-0.033-0.098-0.053-0.2-0.053-0.311
	c0-0.288,0.107-0.514,0.314-0.674c0.207-0.162,0.479-0.242,0.812-0.242c0.258,0,0.576,0.08,0.959,0.24l-0.174,0.572
	c-0.242-0.189-0.488-0.284-0.736-0.284c-0.145,0-0.271,0.034-0.373,0.104c-0.096,0.07-0.15,0.158-0.15,0.264
	c0,0.225,0.127,0.395,0.385,0.509l0.439,0.203c0.271,0.123,0.469,0.266,0.59,0.423c0.125,0.16,0.189,0.359,0.189,0.599
	c0,0.315-0.111,0.562-0.33,0.739c-0.223,0.178-0.521,0.266-0.914,0.266C35.1,22.757,34.754,22.664,34.43,22.482"/>
<path id="path2503" fill="#FFFFFF" d="M37.432,19.677h-0.396v-0.489h0.396v-0.729l0.615-0.236v0.966h0.959v0.489h-0.959v1.737
	c0,0.293,0.049,0.505,0.15,0.629c0.096,0.124,0.256,0.185,0.479,0.185c0.16,0,0.324-0.038,0.494-0.114l0.094,0.544
	c-0.258,0.065-0.539,0.1-0.844,0.1c-0.275,0-0.514-0.104-0.701-0.312c-0.189-0.205-0.287-0.466-0.287-0.779"/>
<path id="path2505" fill="#FFFFFF" d="M41.025,19.651c-0.277,0-0.508,0.091-0.697,0.269c-0.176,0.169-0.277,0.38-0.301,0.632h1.93
	c0-0.249-0.076-0.459-0.23-0.625C41.551,19.742,41.318,19.651,41.025,19.651z M42.525,21.003h-2.514
	c0,0.407,0.113,0.721,0.336,0.938c0.197,0.191,0.449,0.286,0.76,0.286c0.354,0,0.646-0.104,0.885-0.309l0.262,0.45
	c-0.096,0.098-0.242,0.181-0.441,0.25c-0.246,0.093-0.521,0.138-0.826,0.138c-0.436,0-0.809-0.151-1.113-0.45
	c-0.346-0.327-0.514-0.771-0.514-1.327c0-0.575,0.174-1.04,0.527-1.389c0.311-0.311,0.682-0.468,1.107-0.468
	c0.5,0,0.887,0.142,1.166,0.423c0.277,0.271,0.414,0.63,0.414,1.078C42.574,20.762,42.559,20.888,42.525,21.003"/>
<path id="path2507" fill="#FFFFFF" d="M43.102,22.691h0.006v-4.934h0.613v4.934h0.006"/>
<path id="path2509" fill="#FFFFFF" d="M44.344,22.691L44.344,22.691v-4.934h0.621v4.934l0,0"/>
<path id="path2511" fill="#FFFFFF" d="M47.07,19.651c-0.275,0-0.508,0.091-0.697,0.269c-0.178,0.169-0.275,0.38-0.299,0.632h1.932
	c0-0.249-0.078-0.459-0.238-0.625C47.598,19.742,47.367,19.651,47.07,19.651z M48.572,21.003h-2.514
	c0,0.407,0.111,0.721,0.334,0.938c0.199,0.191,0.451,0.286,0.76,0.286c0.354,0,0.65-0.104,0.887-0.309l0.262,0.45
	c-0.098,0.098-0.242,0.181-0.439,0.25c-0.248,0.093-0.523,0.138-0.828,0.138c-0.438,0-0.811-0.151-1.115-0.45
	c-0.342-0.327-0.512-0.771-0.512-1.327c0-0.575,0.174-1.04,0.521-1.389c0.314-0.311,0.682-0.468,1.113-0.468
	c0.494,0,0.887,0.142,1.168,0.423c0.275,0.271,0.412,0.63,0.412,1.078C48.621,20.762,48.602,20.888,48.572,21.003"/>
<path id="path2513" fill="#FFFFFF" d="M50.943,19.791c-0.137-0.092-0.271-0.14-0.406-0.14c-0.223,0-0.41,0.102-0.576,0.305
	c-0.164,0.202-0.246,0.448-0.246,0.733v2.002h-0.611v-3.504h0.611v0.567c0.227-0.421,0.561-0.632,1.006-0.632
	c0.111,0,0.271,0.021,0.48,0.061"/>
<path id="path2515" fill="#FFFFFF" d="M47.836,7.517c0,4.019-3.24,7.274-7.234,7.274c-3.988,0-7.227-3.255-7.227-7.274
	c0-4.059,3.238-7.274,7.227-7.274C44.596,0.243,47.836,3.501,47.836,7.517"/>
<path id="path2517" fill="#FFFFFF" d="M20.651,7.517c0,4.019-3.233,7.274-7.228,7.274s-7.228-3.255-7.228-7.274
	c0-4.016,3.233-7.274,7.228-7.274S20.651,3.501,20.651,7.517"/>
<path id="path3567" fill="#2A6886" d="M13.308,8.143v0.036l0.072,0.014l0.015,0.036l0.082,0.014l0.039-0.014h0.106l-0.019-0.047
	L13.53,8.164l-0.02-0.043l-0.125-0.007"/>
<path id="path3569" fill="#2A6886" d="M13.898,8.118l0.019,0.067h0.063h0.068h0.121l0.068-0.02l0.048,0.049V8.27h0.043l0.073-0.118
	h0.039l0.024,0.029h0.053V8.143h0.174l0.024,0.03l0.063-0.063l-0.077-0.076h-0.073V8.001h-0.078l-0.034-0.036l-0.024-0.022
	l-0.029-0.027l-0.189,0.014l-0.015,0.016h-0.106l-0.024-0.022L14.106,7.9l-0.029,0.027h-0.048v0.031l0.092,0.018v0.077h-0.072v0.031
	h0.111l0.029,0.027l-0.15,0.031l-0.034-0.034"/>
<path id="path3571" fill="#2A6886" d="M14.944,8.114h0.199v0.029l-0.039,0.041h-0.155"/>
<path id="path3573" fill="#2A6886" d="M15.786,9.194l0.083-0.02l0.01,0.067l-0.039,0.036h-0.106l0.039-0.036l0.014-0.016"/>
<path id="path3575" fill="#2A6886" d="M14.576,9.125V9.057h-0.048l-0.044,0.065l0.073,0.029"/>
<path id="path3577" fill="#2A6886" d="M13.395,7.918l0.034,0.031l0.053-0.031H13.7l0.043,0.045l0.174-0.077V7.857h-0.043
	l-0.058-0.059H13.7V7.75h-0.073l-0.024-0.025l-0.068-0.027l-0.102-0.063L13.4,7.598l-0.083-0.081l-0.063,0.018h-0.083L13.085,7.45
	l-0.218-0.036h-0.15l-0.155,0.034l-0.087,0.027v0.061L12.393,7.56l0.02,0.021h0.063l0.067-0.022V7.524l0.097,0.007l0.054-0.054
	h0.126v0.072l0.034,0.02l0.165,0.023l0.078,0.079l0.082,0.004h0.097l0.044,0.079l0.058,0.056h0.102l0.039,0.041l-0.073,0.018"/>
<path id="path3579" fill="#2A6886" d="M13.98,4.872l0.087-0.034h0.102v0.029h-0.073l-0.024,0.025h-0.054L14,4.913h-0.043"/>
<path id="path3581" fill="#2A6886" d="M15.229,4.184h0.106l0.039-0.043l-0.02-0.021h-0.053V4.089V4.05l-0.034-0.038l-0.034,0.034
	v0.061l-0.005,0.049"/>
<path id="path3583" fill="#2A6886" d="M14.881,3.708l0.083,0.047h0.116l-0.048-0.047L15.016,3.69h-0.043H14.93l-0.068-0.018h-0.034"
	/>
<path id="path3585" fill="#2A6886" d="M15.351,3.796l0.048-0.011V3.767l0.015-0.016V3.708l0.024-0.023V3.623V3.555l0.034-0.074
	l0.019-0.047h0.063v0.083v0.057L15.53,3.596v0.061l0.029-0.031h0.049v0.042h0.053l0.015,0.018l0.029-0.029l0.13,0.023l-0.034,0.034
	l0.024,0.061l0.063,0.014l-0.029,0.029l-0.024,0.025v0.047l-0.034,0.034l-0.029,0.029V3.913h-0.054L15.67,3.922V3.877l-0.102,0.036
	h-0.131l-0.024,0.022L15.36,3.94V3.893l0.029-0.029l0.024-0.024l-0.058-0.016"/>
<path id="path3587" fill="#2A6886" d="M15.874,3.853l-0.02,0.052l0.029,0.029l-0.02,0.056h0.034l0.034-0.034v0.061l0.048-0.011
	V3.913V3.873L15.937,3.9V3.857l-0.029-0.029l-0.01,0.011"/>
<path id="path3589" fill="#2A6886" d="M15.123,4.118l-0.029,0.027H15.07V4.111"/>
<path id="path3591" fill="#2A6886" d="M15.041,4.1v0.039h-0.044l-0.039-0.041h0.058l0.025-0.014"/>
<path id="path3593" fill="#2A6886" d="M14.915,4.078h0.029V4.04h-0.029V4.078z"/>
<path id="path3595" fill="#2A6886" d="M13.206,3.3l0.034,0.034h0.054V3.292"/>
<path id="path3597" fill="#2A6886" d="M14.024,1.259l0.029-0.029h0.174l0.082,0.034h0.043l0.029,0.031l0.029-0.029l0.184,0.176
	l0.029,0.083l0.039,0.041l0.02-0.079l0.102,0.039L14.9,1.624l0.073,0.106L14.9,1.743v0.11l0.082,0.034l0.015,0.07l0.102,0.057
	l0.087,0.087l0.024-0.024l0.024,0.06l0.194,0.138h0.039l0.019,0.057l0.054-0.018l0.014,0.049h0.15l0.102,0.029v0.045h0.048
	l0.02-0.041h0.043l-0.063-0.122L15.83,2.208l-0.063-0.018l0.043-0.045l-0.02-0.059l-0.019-0.018L15.743,2.04V2.001h-0.034
	L15.67,1.966l0.034-0.034V1.891V1.808h0.024l0.029,0.027l0.054,0.011l-0.039-0.038l0.048-0.023l-0.038-0.11l-0.059-0.061
	l0.015-0.018l0.039,0.039h0.053l-0.02-0.054h0.077V1.538l-0.029-0.029l0.02-0.021V1.459H15.85l-0.073-0.077L15.675,1.32
	l-0.078-0.027h-0.092l-0.034-0.036l0.082-0.021L15.51,1.182l-0.228-0.097h-0.082L15.104,1.02L14.76,0.815h-0.107h-0.077
	l-0.233-0.052l-0.029,0.029l-0.111,0.016h-0.063l0.067,0.065v0.029h-0.053l-0.043-0.045L14.082,0.91H14l-0.054-0.056h-0.082
	l-0.02-0.018h-0.102l-0.029,0.027L13.69,0.835h-0.078L13.579,0.88h-0.034l-0.029-0.027l-0.043,0.029h-0.058l0.01,0.047l0.019,0.056
	h0.034l0.024-0.025h0.019V1.02l0.039,0.041l-0.015,0.014h-0.063l-0.034-0.036L13.414,1.07l0.043,0.042h0.053l-0.005,0.034h-0.043
	h-0.039l-0.029-0.039l-0.024,0.025l-0.063,0.024l0.01,0.041h0.16L13.53,1.18l0.034-0.034l0.073,0.006l0.053-0.049l0.073-0.029
	l-0.087-0.038V1.015h0.117l0.073-0.024V0.926l0.082,0.004v0.047l0.059,0.027v0.038h-0.087L13.831,1.07v0.049l0.077-0.004l0.02,0.02
	h0.092l0.01,0.025h-0.116l-0.034,0.034l0.02,0.021l0.068-0.016v0.034"/>
<path id="path3599" fill="#2A6886" d="M14.741,1.599v0.061l0.063,0.027l0.073-0.007l-0.034-0.031l-0.029-0.034"/>
<path id="path3601" fill="#2A6886" d="M13.811,2.112h0.068l0.058,0.059l0.082,0.022v0.065l0.068,0.065l0.078-0.022l0.097,0.056
	h0.029l0.024,0.023h0.087V2.319l-0.097-0.041l-0.063-0.061h0.068l0.054,0.054l0.092-0.002l-0.019-0.063h0.029l-0.02-0.049h-0.038
	v-0.05l-0.116-0.022L14.228,2.02V1.948l0.121,0.044l0.049,0.047l0.078,0.029V2.013h0.034l-0.034-0.037l0.082-0.052L14.47,1.896
	l-0.02,0.021V1.874h-0.058L14.31,1.812h-0.053l-0.01-0.014h-0.024l-0.015-0.011h-0.072V1.736l0.087-0.016l-0.024-0.022H14.15V1.657
	l-0.024-0.024l-0.039,0.024V1.614H13.98l-0.048-0.047V1.542H13.85l-0.024-0.025h-0.034l-0.024-0.024l-0.13-0.027l-0.015,0.016
	h-0.048l-0.063,0.022V1.466l0.024-0.02l-0.034-0.037l0.014-0.034h-0.073l-0.068,0.023l-0.034,0.038l-0.029,0.025h0.029l-0.039,0.036
	l0.029,0.027v0.041h-0.073l0.034-0.032l-0.029-0.067l0.053-0.052l0.048-0.049h-0.097l-0.111,0.049v0.038l-0.063,0.052l0.034,0.034
	h0.058v0.036h-0.073l0.029,0.029h0.067l0.034,0.032h0.179l0.039-0.039l0.062,0.061l0.034-0.032l0.019-0.029l0.083,0.041l0.068,0.072
	l-0.034,0.034h0.111l0.034,0.036l0.059,0.056v0.074l-0.073,0.072l0.048,0.047h-0.097l-0.019,0.024H13.7l-0.029-0.029l-0.034,0.034
	l-0.03,0.029v0.047l0.073,0.023l0.044-0.045l0.063,0.018"/>
<path id="path3603" fill="#2A6886" d="M13.661,1.898l0.102-0.018V1.826L13.69,1.808l-0.029,0.018"/>
<path id="path3605" fill="#2A6886" d="M13.443,2.319v0.052l0.034,0.039l0.034-0.07l-0.034-0.032"/>
<path id="path3607" fill="#2A6886" d="M13.191,2.326h0.068l0.082-0.045l-0.039-0.036L13.24,2.27"/>
<path id="path3609" fill="#2A6886" d="M13.322,2.17v0.022h0.039h0.058l0.039-0.038H13.38l-0.005-0.054h-0.053l-0.02-0.024h-0.029
	l-0.014-0.023L13.23,2.029h-0.029V1.981l-0.053,0.016l-0.039,0.038L13.09,2.112h-0.049l-0.024,0.041h0.087l0.024,0.068h0.043
	l0.034-0.039h0.034V2.146l0.048-0.022"/>
<path id="path3611" fill="#2A6886" d="M13.709,1.432l-0.039-0.039H13.56v0.039v0.014h0.048"/>
<path id="path3613" fill="#2A6886" d="M13.56,1.32V1.263l-0.039-0.038l-0.13,0.011l-0.029,0.027l-0.102-0.02l-0.034-0.032V1.171
	h-0.053v0.059l-0.034,0.034l0.039,0.036h0.048l0.015-0.013l0.034,0.034h0.155l0.039-0.037V1.32"/>
<path id="path3615" fill="#2A6886" d="M13.429,1.02L13.38,1.067h-0.043h-0.034h-0.029V1.038l0.024-0.023h-0.039l-0.024-0.02
	l0.121-0.085L13.4,0.957"/>
<path id="path3617" fill="#2A6886" d="M13.051,1.209h0.053V1.27L13.07,1.302l-0.043-0.043l-0.02-0.018"/>
<path id="path3619" fill="#2A6886" d="M13.085,1.133v0.036h0.043l0.043-0.047"/>
<path id="path3621" fill="#2A6886" d="M13.119,1.058v0.034h0.087l-0.014-0.054l-0.034-0.036"/>
<path id="path3623" fill="#2A6886" d="M13.09,1.024l-0.02,0.05h-0.106V1.047H12.93l0.048-0.052h0.058"/>
<path id="path3625" fill="#2A6886" d="M13.007,1.148l-0.063-0.023v0.045L12.896,1.22l-0.025,0.011l0.063,0.029l0.063-0.067"/>
<path id="path3627" fill="#2A6886" d="M12.983,1.324l-0.044,0.042V1.43v0.03l0.034-0.037l0.117-0.016l0.073-0.077"/>
<path id="path3629" fill="#2A6886" d="M12.853,1.358v0.029l0.015,0.034l-0.034,0.039H12.78l-0.024,0.022h-0.039l-0.029-0.061
	l-0.024-0.025V1.349l0.053,0.013l0.044-0.004V1.32l0.092-0.005h0.068l-0.029,0.029l-0.01,0.027"/>
<path id="path3631" fill="#2A6886" d="M12.591,1.635h0.039l0.053-0.054l0.058,0.049l0.02,0.072L12.683,1.72l-0.024-0.024H12.62
	l-0.024-0.025l-0.024-0.025"/>
<path id="path3633" fill="#2A6886" d="M12.431,1.646h0.053V1.603l-0.039-0.011l0.068-0.018l0.043,0.018l0.029-0.029l-0.049-0.052
	l-0.062-0.025l0.053-0.105V1.315l-0.015-0.018L12.47,1.337l-0.058,0.059h-0.034l0.034-0.065H12.3V1.292h-0.029l-0.024,0.025
	l-0.024-0.025l-0.02-0.018h-0.082l-0.034,0.034l-0.054,0.018l0.083,0.032l-0.029,0.027h-0.092v0.029l0.116,0.016h0.043l-0.048,0.052
	h-0.048L12.029,1.45h-0.111l-0.015,0.043l0.082,0.026l-0.043,0.043l0.15,0.029l0.092,0.038l0.111-0.038l0.043,0.043"/>
<path id="path3635" fill="#2A6886" d="M12.562,1.297v0.065l0.077-0.079l-0.043-0.018"/>
<path id="path3637" fill="#2A6886" d="M12.702,1.209L12.61,1.182l0.02-0.02l0.082-0.054l0.02,0.018l-0.024,0.023l0.049,0.027"/>
<path id="path3639" fill="#2A6886" d="M12.557,1.18l0.029-0.032l-0.029-0.027V1.076l-0.015-0.018l0.024-0.027l-0.14-0.011
	l-0.112,0.034l0.097,0.043l0.043-0.041l0.043,0.031L12.431,1.11l-0.029,0.009l0.015,0.014h0.048l-0.039,0.038l-0.024,0.025
	l0.063,0.018"/>
<path id="path3641" fill="#2A6886" d="M12.668,1.024l0.087,0.041l0.053-0.05V0.981h-0.058"/>
<path id="path3643" fill="#2A6886" d="M12.243,1.236h-0.112l-0.038,0.041h-0.078l-0.053,0.051h-0.073h-0.067l0.058-0.056
	l-0.053-0.018l0.111-0.036h0.043V1.198h0.034l0.034-0.036h0.058l0.044-0.047l0.073,0.027v0.041l0.034-0.029L12.3,1.193"/>
<path id="path3645" fill="#2A6886" d="M13.632,1.193l-0.025,0.022l-0.053-0.024l0.024-0.027"/>
<path id="path3647" fill="#2A6886" d="M9.904,1.743l0.058-0.061l0.14-0.034l0.068,0.009l-0.062,0.036l-0.034,0.037h-0.063H9.958"/>
<path id="path3649" fill="#2A6886" d="M9.778,1.797L9.764,1.806L9.701,1.84L9.589,1.869l0.083-0.05"/>
<path id="path3651" fill="#2A6886" d="M9.483,1.824h0.029V1.794H9.483V1.824z"/>
<path id="path3653" fill="#2A6886" d="M9.415,1.814L9.44,1.79H9.401l-0.02,0.021"/>
<path id="path3655" fill="#2A6886" d="M9.851,2.513L9.817,2.481L9.754,2.542v0.02L9.725,2.589L9.686,2.664v0.059L9.72,2.707v-0.05
	l0.048-0.052l0.029-0.029"/>
<path id="path3657" fill="#2A6886" d="M20.443,7.625L20.39,7.763l-0.019,0.081v0.11l-0.126-0.081l-0.029-0.031l-0.048-0.061
	l0.005-0.11l-0.088-0.12l-0.029-0.029v-0.04l-0.083-0.002V7.351l-0.019-0.003V7.251l-0.029-0.067h-0.034l0.024-0.056l0.005-0.211
	l-0.019-0.021l0.005-0.122l-0.034-0.151l-0.044-0.081l0.005-0.067l-0.073-0.113l-0.02-0.092L19.712,6l0.005-0.142l0.005-0.072
	l-0.049-0.052l0.005-0.117V5.491L19.63,5.36l0.039-0.036l-0.01-0.223l-0.116-0.245l-0.077-0.279l0.004-0.115l-0.092-0.214V4.217
	l0.062,0.002V4.181l0.029,0.002l-0.063-0.228l0.005-0.128l-0.024-0.113l-0.024-0.097l-0.029-0.097c0,0,0.286,0.481,0.382,0.702
	C19.8,4.415,19.979,4.757,20.23,5.62c0.247,0.86,0.228,1.4,0.228,1.511C20.453,7.238,20.443,7.625,20.443,7.625"/>
<path id="path3659" fill="#2A6886" d="M19.364,4.199V4.179V4.138l-0.029-0.081l0.029-0.061l-0.048-0.128l0.005-0.031l-0.073-0.113
	l-0.068-0.07l-0.067-0.153L19.088,3.44l-0.034-0.108L19.01,3.285l-0.072-0.077V3.147l0.004-0.056l-0.029-0.075l0.102,0.147
	l0.208,0.223c0,0-0.281-0.43-0.412-0.577c-0.16-0.182-0.625-0.741-1.288-1.202c-0.62-0.43-1.196-0.709-1.656-0.875
	c-0.019-0.007-0.044-0.009-0.063-0.016l0.136,0.09l0.145,0.072l0.126,0.061l0.082,0.079l0.136,0.061L16.6,1.144l0.165,0.126
	l0.198,0.119l0.117,0.126l0.222,0.153l0.107,0.115l0.136,0.034l-0.029-0.034l0.135,0.052l0.078,0.083l0.043,0.099l0.136,0.049
	l0.155,0.167l0.067,0.106L18.25,2.47l0.146,0.218l-0.054-0.002l0.078,0.081l0.019,0.059l-0.048-0.002l0.024,0.074l0.121,0.056
	l0.14,0.102l0.131,0.126l0.083,0.124l-0.054,0.052l-0.038-0.002l-0.034,0.072l0.014,0.133l0.102,0.106l0.159,0.248l0.049,0.11h0.034
	l0.102,0.151l0.039-0.041l0.034,0.034"/>
<path id="path3661" fill="#2A6886" d="M16.643,1.763l0.029,0.094H16.58l-0.029,0.029l-0.043-0.041l-0.049-0.049l-0.077,0.025
	L16.357,1.77l-0.034-0.072h0.058l-0.039-0.041l0.077-0.032l0.034-0.031l0.063,0.051l0.106,0.034"/>
<path id="path3663" fill="#2A6886" d="M16.28,1.768l-0.063-0.061l0.063-0.02l0.043,0.011l0.053,0.049"/>
<path id="path3665" fill="#2A6886" d="M17.432,2.056l0.063,0.068l0.087,0.024l0.15,0.104L17.8,2.326l0.049-0.029l0.116,0.083
	l0.039,0.092l0.116,0.126l0.029-0.029l0.063,0.063l-0.005,0.056l0.034,0.036l0.005,0.034l0.029,0.002V2.711l0.005-0.081V2.589
	l-0.062-0.067l-0.068-0.115l-0.058-0.061l-0.029,0.029l-0.054-0.059L17.805,2.2l-0.043-0.002l-0.097-0.104l-0.072-0.047
	l-0.039-0.002L17.437,1.92l0.02,0.072v0.045"/>
<path id="path3667" fill="#2A6886" d="M17.703,2.26l0.02,0.072l0.058,0.095l0.034,0.04l0.039,0.057l0.068,0.025l0.048,0.087
	l0.077,0.083l0.024-0.081l-0.043-0.042l0.019-0.023l-0.067-0.072l-0.044-0.045l-0.048-0.054h-0.029l-0.029-0.059h-0.039"/>
<path id="path3669" fill="#2A6886" d="M13.032,6.812l-0.034,0.032v0.027l0.048,0.032l0.024-0.054L13.032,6.812z M9.962,4.222
	L9.904,4.276l0.034,0.103l0.024,0.027l0.039-0.041v-0.05l0.029-0.024H9.972L9.962,4.222z M11.458,1.747l0.019,0.018l0.053,0.014
	l0.063-0.063l0.043-0.045h-0.024l-0.049,0.025h-0.048l-0.01-0.012l0.058-0.027l0.029-0.032L11.56,1.614L11.512,1.63l-0.058-0.006
	L11.415,1.61l-0.02,0.018l-0.072-0.014L11.24,1.655h0.087l0.058,0.021l-0.01,0.022L11.313,1.72H11.25l-0.02,0.02l0.034,0.039
	l0.072-0.009l0.058-0.022l0.025,0.025L11.458,1.747z M11.517,2.116l0.053-0.02l0.015-0.016l0.068,0.02l0.086-0.018v-0.04
	l-0.077-0.032l-0.053,0.013h-0.044l-0.024,0.025l-0.053,0.025l-0.034-0.016l-0.02-0.021l0.01-0.047l-0.029,0.025l-0.029-0.009
	l-0.01-0.061l-0.034,0.016v0.065l-0.015,0.047l-0.043-0.002l-0.049,0.047l-0.062-0.011l-0.029-0.029l-0.01-0.031l-0.063-0.004
	l-0.034,0.036l0.053,0.007v0.047h0.02l0.01,0.032h0.053l0.125,0.02l0.024-0.022l0.053-0.022h0.078L11.517,2.116z M11.647,2.447
	l-0.024-0.02L11.564,2.42l-0.062-0.022V2.373l0.034-0.007l-0.039-0.014L11.439,2.36L11.41,2.389l-0.039,0.018l-0.014,0.016h-0.025
	l-0.072,0.02v0.038h0.063l0.014-0.014l0.039-0.018l0.116,0.007l0.135,0.016L11.647,2.447z M11.725,3.452l-0.039-0.036l0.024-0.023
	V3.308l-0.034-0.012l-0.029-0.029l0.01-0.045l0.029-0.029l0.009-0.063l0.02-0.02L11.7,3.053h-0.077l-0.005,0.034l-0.034,0.016
	l-0.015,0.018l0.049,0.024l0.009,0.036l-0.029,0.021v0.031L11.58,3.265v0.049l0.073,0.014l0.009,0.054l-0.024,0.023l0.015,0.043
	v0.054l-0.015,0.014v0.018l0.054-0.006l0.029-0.029L11.725,3.452z M11.816,3.508l0.01,0.024l0.072-0.038l0.009-0.029l0.039-0.077
	l-0.039-0.036L11.904,3.33V3.292v-0.11l0.01-0.065L11.889,3.08l0.043-0.045V2.987h-0.053v0.019l0.01,0.009v0.027L11.792,3.06
	l-0.029,0.032l-0.024,0.022l0.029,0.003l0.024,0.024v0.034h-0.024v0.052l0.02,0.079h0.029V3.283l0.029,0.007v0.081l0.039-0.025
	l0.015,0.016l-0.015,0.018V3.42l-0.029,0.014v0.024l-0.029,0.03L11.816,3.508z M12.02,3.954v0.036l0.058-0.009l0.015-0.013
	l0.024-0.025l0.019,0.007v0.04l0.088,0.014l0.029-0.029h0.087l0.063-0.063h0.102l-0.102,0.068h0.073l0.053,0.072h0.087l0.019-0.018
	h0.141l0.02,0.034h0.043l0.034,0.037l0.015,0.047L12.78,4.134h-0.16v0.022L12.586,4.17l-0.02-0.016h-0.043l-0.039,0.061
	l-0.053,0.049l-0.039,0.034l0.029,0.018l0.034-0.036l0.058-0.029l-0.068,0.106l-0.078,0.144v0.063l-0.009,0.142l0.039,0.041
	l0.063-0.007l0.092-0.133V4.505l-0.024-0.051l0.024-0.023l0.01-0.054l0.034-0.049l0.009-0.045l0.044-0.022l0.039,0.011l0.01-0.029
	l0.029-0.009h0.043l-0.009-0.061l0.058-0.014l0.01,0.012l0.058,0.018l0.015,0.034l0.043,0.02l-0.005,0.146h-0.029l-0.005,0.029
	l-0.02,0.02l-0.024,0.027l0.034,0.018L12.92,4.46l0.058-0.031l0.02,0.042h0.019l-0.01,0.131l-0.009,0.034l-0.049,0.011v0.041
	l-0.024,0.025L12.911,4.75l-0.024,0.021l0.063,0.043h0.131l0.058-0.025l0.072-0.036l0.063,0.006l0.039-0.047h0.058l0.102-0.074
	l-0.015-0.043l0.024-0.022l0.102-0.027l0.024,0.022h0.122V4.548h0.048l0.015-0.112h-0.044l-0.014,0.011L13.675,4.44v0.031h-0.14
	l-0.02,0.021l-0.082-0.002l-0.063,0.036l-0.01,0.054l0.077,0.014l0.015,0.034h-0.155l-0.053,0.04H13.21l-0.014-0.018h-0.068
	l-0.087,0.059l-0.034,0.036h-0.073l0.024-0.054h0.034V4.661h-0.024l0.039-0.02l0.024-0.075l0.058-0.018l0.019-0.022V4.431
	l0.059-0.049l0.004-0.067l-0.029-0.029V4.264l0.043-0.002l0.01,0.031l0.02,0.018l0.009,0.036h0.044v0.031l0.067-0.006V4.343
	l0.043-0.016L13.351,4.31V4.251h-0.048l-0.034-0.016V4.174l-0.092-0.012L13.1,4.154L13.066,4.12l-0.088,0.009l-0.053-0.022h-0.039
	l-0.039-0.061l-0.005-0.038l-0.009-0.011l-0.01-0.041h0.024V3.934l-0.014-0.016l-0.01-0.072h-0.092L12.702,3.83l-0.014-0.077
	l-0.015-0.016H12.62l-0.029,0.047l-0.015-0.072h-0.034l-0.005-0.02h-0.029L12.49,3.708l-0.02,0.009l-0.024,0.025l-0.058,0.009
	l-0.034,0.034L12.31,3.807h-0.034l-0.01,0.014l-0.058,0.02l-0.014,0.022l-0.106,0.043l-0.029,0.018l-0.043,0.009L12.02,3.954z
	 M13.09,6.018l-0.005,0.057l-0.112,0.157l-0.019,0.079l0.015,0.137v0.063l0.082,0.084v0.117l0.053,0.142l-0.009,0.162l-0.029,0.029
	v0.079l-0.015,0.018l-0.024-0.022h-0.078V7.062l-0.024-0.047L12.876,7V6.952l-0.014-0.04V6.887l-0.024-0.024h-0.029l-0.009-0.045
	V6.781h-0.02V6.711l0.015-0.018L12.77,6.675l0.01-0.167l-0.048-0.02l-0.034-0.032V6.408L12.61,6.367L12.514,6.4h-0.068l-0.019-0.056
	l-0.059-0.012L12.325,6.29h-0.059h-0.014h-0.015l-0.009-0.026l-0.073,0.038h-0.029l-0.02-0.045h-0.223l-0.039-0.018h-0.044v0.049
	h0.068l0.024,0.025l0.024-0.027l0.024,0.025l-0.039,0.038v0.034l0.053,0.029l-0.01,0.036L11.87,6.412l-0.034-0.016l-0.02,0.016
	L11.7,6.396l-0.029-0.027V6.337l-0.073-0.054l-0.043,0.043h-0.048l-0.048-0.05H11.26l-0.015-0.047l-0.024,0.059l-0.02,0.074
	l-0.106,0.05l-0.039-0.036l-0.034,0.016v0.054h-0.039l-0.015,0.043L10.921,6.5h-0.029v0.063h-0.043l0.014,0.041l-0.014,0.218
	L10.81,6.862l-0.073,0.045l-0.019,0.295l-0.039,0.097l0.048,0.115l-0.019,0.072l0.024,0.059l0.078,0.074l0.01,0.148l0.034,0.016
	l0.038,0.069h0.073l0.039,0.075l0.067,0.018l0.063-0.031l0.106,0.016L11.298,7.9l0.063,0.014l0.024,0.047h0.073V7.894l0.077-0.034
	l0.078-0.191V7.583l0.097-0.02l0.102,0.016h0.058l0.029-0.032l0.072,0.012L12,7.587h0.111v0.115l-0.073,0.04L11.996,7.83h-0.019
	l-0.005,0.119L11.933,7.99v0.099h-0.048l-0.048,0.21l-0.053,0.058L11.768,8.4l0.073,0.022l0.053-0.004L12,8.445h0.339l0.213,0.128
	v0.18l-0.048,0.068l-0.029,0.272l-0.024,0.025l0.015,0.095l0.155,0.191l0.078,0.016v0.07l0.087,0.013l0.019,0.021h0.068l0.044-0.045
	h0.097l0.015,0.018l0.034-0.077l0.106,0.013l0.135,0.038l0.106,0.106l0.059,0.061l0.019-0.065l0.078-0.029l0.039-0.063h0.082V9.307
	l0.107-0.054h0.053l0.034,0.032l0.015-0.086l0.16-0.002l0.106-0.068l0.068-0.042l0.078-0.047l0.068,0.036l-0.015,0.059l-0.092,0.024
	l0.029,0.095v0.052l-0.049,0.047v0.099L14.3,9.523h0.067l0.01-0.112l-0.053-0.079V9.273l0.126-0.089l0.325-0.012l0.048,0.126
	l0.3-0.029l0.043,0.041h0.165l0.131-0.083h0.125l0.025,0.052l0.072,0.065h0.131l0.087,0.086v0.042l-0.029,0.027l0.121-0.018
	l0.029,0.029l0.058-0.013l0.145,0.119v0.079l0.106-0.003l0.097,0.106l0.034-0.034h0.112l0.13-0.043h0.136l0.135,0.043l0.18,0.108
	l0.053-0.014l0.083,0.295l0.082,0.007l-0.019,0.09l-0.15,0.151l0.02,0.083l0.039,0.013l0.024-0.13h0.116l0.068,0.009l0.058-0.022
	v0.07l-0.038,0.088l0.043-0.022l0.063-0.108h0.126l0.155,0.004l0.02,0.039l0.034-0.034h0.043v0.065l0.029,0.031l-0.014,0.041
	l0.087-0.085l0.213-0.004l0.164-0.07h0.107l0.169,0.108l0.14-0.045l0.039,0.039v0.153l-0.024,0.027l0.015,0.041l-0.199,0.372
	l-0.078,0.079l-0.174,0.282l-0.058,0.016l-0.097,0.299l-0.092,0.208l-0.058,0.057l-0.062,0.158l-0.044,0.019l-0.058,0.105
	l-0.063,0.027l-0.058,0.115l-0.092,0.038l-0.009,0.061l-0.266,0.088l-0.024,0.029l-0.557,0.367l0.014,0.096l-0.116,0.116
	l-0.078,0.042l-0.14,0.14l-0.053,0.024l-0.068,0.021l-0.16,0.129l-0.121,0.083h-0.039l-0.106,0.086l-0.257,0.083h-0.208
	l-0.029,0.028l0.116,0.017l-0.029,0.026l0.044,0.021l-0.02,0.022l-0.15,0.095l-0.271,0.072l-0.237,0.034l-0.067,0.09l-0.155,0.024
	h-0.126v0.055l0.078-0.017h0.053l-0.02,0.022l-0.073,0.02l-0.072,0.017l-0.048,0.045l-0.106,0.016h-0.097l-0.048,0.048l0.087,0.009
	h0.043l-0.121,0.027l-0.16,0.05h-0.106l-0.034,0.016l0.029,0.024l-0.078,0.012h-0.16l-0.169,0.016l-0.141-0.039l-0.014-0.056
	l0.039-0.041h0.058l0.014-0.042l0.097,0.031l0.039-0.038l0.049-0.055l-0.029-0.029l-0.039,0.041l-0.083,0.018l-0.029-0.011
	l0.044-0.052l0.029-0.027l0.039-0.041l0.034-0.021l-0.024-0.092h0.058l0.184-0.155l0.029-0.074l0.034-0.01l-0.02-0.04l0.005-0.117
	h0.049l-0.015-0.08l0.043-0.048v-0.038l0.053-0.055l0.024-0.024v-0.09h0.049l0.039-0.189L14.3,13.23v-0.092l0.034-0.04L14.3,13.064
	l0.014-0.102l-0.019-0.016l0.01-0.126l-0.087-0.031l-0.169-0.1h-0.043l-0.024-0.02l-0.082-0.023h-0.073l-0.024-0.04l-0.141-0.049
	l-0.179-0.124v-0.084l-0.16-0.207h-0.029l-0.01-0.036v-0.056l-0.092-0.088l-0.053-0.13v-0.052l-0.087-0.045l-0.039-0.043v-0.061
	l-0.058-0.057l-0.169-0.096v-0.021l0.049-0.025l-0.049-0.026v-0.053l-0.024-0.018l0.005-0.061l0.092-0.074l0.068-0.034l0.063-0.025
	l0.019-0.074l-0.034-0.034l-0.048,0.047l-0.039-0.036h-0.039V10.86l0.073-0.024v-0.059l0.048-0.047v-0.099h0.078v-0.029l0.111-0.022
	l-0.015-0.066l0.073-0.027l-0.005-0.072l0.131-0.004l0.044-0.095l0.062-0.049l-0.062-0.034v-0.037l0.01-0.119l-0.02-0.056
	l0.034-0.052L13.38,9.861l-0.062-0.065l-0.029-0.054l-0.039-0.07l0.058-0.056l-0.024-0.025l-0.039,0.002l-0.102-0.075H13.08
	l-0.034,0.037l-0.029,0.042l-0.078,0.011l-0.014,0.036l0.068,0.059l-0.059,0.059h-0.067l-0.01-0.081H12.78l-0.014-0.057
	l-0.169-0.047l-0.02,0.021l-0.039-0.041l-0.014-0.011l-0.02-0.02l-0.009,0.011H12.47L12.451,9.46l-0.13-0.09l-0.024-0.059h-0.039
	v0.045L12.18,9.31l-0.049-0.05l0.015-0.054V9.141l-0.228-0.274V8.812l-0.054-0.016l-0.024,0.023L11.72,8.782l-0.106-0.056
	l-0.049-0.045l-0.193-0.052l-0.126-0.126l-0.15-0.2l-0.136-0.079l-0.087,0.012v0.022l-0.165,0.025l-0.044-0.045l-0.097-0.025
	l-0.121-0.095l-0.025-0.051l-0.058-0.012l-0.067-0.043l-0.121-0.074l-0.092-0.092V7.801L9.982,7.765L9.918,7.697H9.875L9.851,7.63
	L9.827,7.607L9.808,7.549H9.754L9.691,7.414V7.319h0.034V7.256l0.034-0.034L9.73,7.056l0.02-0.021L9.716,6.979L9.701,6.943H9.677
	V6.857l-0.024-0.02V6.804H9.633l-0.068-0.13v-0.09L9.521,6.569L9.507,6.489L9.459,6.471V6.432l0.039-0.045V6.324L9.454,6.308V6.236
	L9.43,6.214L9.411,6.155L9.43,6.117l-0.043-0.02L9.372,6.016l-0.043-0.02V5.928L9.309,5.951l-0.01-0.063l0.029-0.054L9.309,5.757
	l0.019-0.05V5.649l0.015-0.057L9.318,5.567L9.304,5.532H9.255L9.222,5.469L9.197,5.523v0.065L9.173,5.635v0.14l0.039,0.038
	l0.034,0.029L9.227,6.11L9.25,6.133v0.104L9.29,6.277L9.285,6.624l0.058,0.029l0.024,0.065l-0.01,0.09L9.323,6.835H9.271V6.721
	L9.13,6.486l0.034-0.034l0.01-0.149L9.145,6.277V6.182H9.091L9.033,6.097V6.047L8.994,6.011l0.102-0.021L9.13,5.933L9.072,5.759
	l-0.054-0.05l0.044-0.435l0.024-0.076L9.038,5.084V5.052L8.994,5.041V5L8.941,4.96L8.917,4.935l0.039-0.056L8.946,4.636h0.029v-0.16
	l0.034,0.016l0.048-0.047L8.979,4.438l0.02-0.146l0.048-0.083V4.127l0.116-0.14l0.121-0.196l0.247-0.315h0.034V3.431l0.078-0.148
	v-0.05l0.039-0.02l0.053,0.074L9.691,3.328v0.034l0.053-0.049l0.019,0.016l0.078-0.126V3.118V3.078L9.812,3.048
	c0,0-0.01-0.009,0-0.009c0.009,0,0.024-0.034,0.024-0.034L9.808,2.979L9.792,2.992L9.773,3.058L9.75,3.121l0.024,0.024l-0.01,0.079
	L9.73,3.237L9.696,3.202v-0.07L9.682,3.113L9.677,3.066V2.981l0.039-0.099h0.048l0.068-0.065l0.024-0.084L9.827,2.704l0.024-0.047
	l0.048-0.029L9.861,2.614l0.015-0.041l0.067-0.065l0.029-0.063l0.019-0.067L9.928,2.445L9.875,2.42l0.063-0.06l0.029-0.077V2.238
	l0.068-0.07l0.01-0.032l0.058-0.058V2.018l0.029-0.029l0.024-0.085l-0.024-0.025l0.02-0.021l-0.024-0.043l-0.024-0.022l0.044-0.063
	l0.048-0.047L10.17,1.657l-0.034-0.018l0.078-0.047l-0.208,0.057L9.89,1.691L9.851,1.731L9.827,1.761L9.686,1.783l-0.092,0.02H9.551
	l0.02-0.022l0.106-0.034l0.121-0.059l0.029-0.024L9.812,1.639l-0.01-0.011c0,0,0.058-0.052,0.058-0.061
	c0-0.009,0.062-0.058,0.062-0.058l0.049-0.068l0.058-0.018l0.121-0.067l0.116-0.034h0.039l0.15-0.052l-0.015-0.036l0.15-0.079
	l0.049-0.013h0.053l-0.034,0.034l0.083-0.029L10.8,1.11l0.049-0.042l0.111-0.039l0.122-0.02l0.121-0.025L11.298,1l-0.082,0.032
	l0.034,0.031L11.202,1.09l0.034,0.036v0.041l0.078,0.02L11.279,1.22l-0.02,0.023l0.048,0.009L11.24,1.32l0.024,0.045l0.102-0.052
	l0.039,0.039h0.067l0.15-0.023l-0.029,0.055l0.034,0.031l0.078-0.052l-0.034,0.063h0.053l0.039,0.029l-0.014,0.039l0.067,0.016
	l0.034,0.034l0.053,0.004v0.036l-0.097,0.021l0.073,0.052h0.169v0.057l-0.043,0.047h0.102V1.705l0.029-0.032l0.073-0.024
	l0.054-0.014l0.014,0.058h0.058l0.043,0.045h0.131l0.053,0.025l0.034-0.012V1.718h0.043l0.01,0.059v0.038h0.043l0.024-0.054h0.058
	l0.039-0.039l-0.02-0.02l0.053-0.054l-0.082-0.05l0.029-0.029V1.538l0.02-0.021h0.039l0.029-0.032l0.02-0.02l0.039,0.038
	l0.034,0.054v0.049l-0.058,0.036h0.068v0.11l0.067-0.07l0.063,0.043l-0.039,0.041v0.039l0.034,0.054l0.054-0.025v-0.05h0.039
	l0.039-0.04h0.039V1.711l-0.019-0.021l0.019-0.018l0.102,0.018l0.015-0.016l0.019,0.018l0.049,0.021l-0.025,0.054H13.38l0.024,0.07
	l0.034,0.013v0.045l-0.043,0.002l-0.054,0.031h-0.063l-0.014,0.016l0.024,0.045l-0.067-0.045l-0.024-0.022h-0.068v0.009l0.02,0.022
	L13.08,2.02l-0.048-0.009L12.93,1.952l-0.02,0.02l0.048,0.05l0.058,0.011h0.053l-0.029,0.029l-0.063,0.061l-0.116-0.007
	l-0.024,0.027L12.79,2.162l-0.024-0.022l0.014,0.056l-0.019,0.02h-0.092l-0.015,0.041l-0.02,0.043h-0.072v0.036h-0.087v0.051
	l-0.048,0.052l-0.083,0.128l0.02,0.054l0.092-0.02v0.083l-0.02,0.09l-0.019,0.02l0.073-0.002l0.029-0.027l0.106,0.045l0.145,0.07
	l0.01,0.067l0.097,0.022h0.039l0.01,0.065l-0.01,0.043l0.048-0.036l0.102-0.016l0.009,0.014l0.097,0.018l0.015,0.077l-0.01,0.069
	v0.081l0.01,0.063l0.039,0.016v0.018l-0.043,0.016v0.029l0.078-0.011l0.043,0.042v0.041l-0.034,0.034l0.058-0.011h0.034l0.024-0.043
	l0.039-0.011l0.034,0.043V3.444l0.039-0.016V3.388l-0.02-0.016l-0.009-0.173l-0.059-0.059l0.179-0.083l0.073-0.104l0.029,0.009
	l0.015-0.045h-0.029l-0.019-0.07l-0.029-0.099l-0.106-0.063l0.01-0.027l0.068-0.023V2.607l0.058-0.006l-0.029-0.027l-0.02-0.022
	l-0.009-0.042l0.02-0.021l-0.044-0.013V2.447l0.048-0.018l0.01-0.031l-0.049-0.025V2.348l0.039-0.041l0.083,0.002l0.087,0.032
	l0.043-0.006l-0.01-0.036h0.048l0.029,0.024l0.039,0.012l0.015,0.056l0.029-0.007L14.024,2.4l0.01,0.057h0.097l0.019,0.018h0.039
	l0.009,0.067L14.131,2.56l0.073,0.012l0.024,0.072l-0.053,0.029l0.048,0.018l0.083-0.011l0.019,0.041l-0.019,0.042l0.048-0.029
	l0.063-0.006l0.029-0.061h0.034V2.636l0.034-0.022l-0.024-0.052l0.054-0.034l0.063,0.063l0.053,0.054l-0.034,0.014l0.053,0.006
	l0.048,0.025l-0.024,0.025l0.048,0.009l-0.029,0.03l0.058,0.004l0.039,0.034l-0.029,0.022l0.073,0.019v0.049h-0.087V2.9l0.058,0.014
	l0.029,0.026H14.9l0.034,0.039h0.024l0.024,0.009l0.029,0.012v0.038h0.063l0.019,0.021l0.02-0.023l0.039,0.016v0.034l0.078-0.013
	l0.049,0.04l-0.039,0.036h-0.034l-0.083,0.047l-0.111,0.011l0.102,0.045l0.121-0.07l0.048-0.013l0.024-0.025l0.009,0.011
	l0.005,0.041l0.044-0.011l0.068,0.016l0.029,0.034c0,0-0.024,0.032-0.034,0.032c-0.01,0,0.02,0.014,0.02,0.014l0.029,0.056
	l0.034,0.039l-0.053,0.056l0.005,0.027l-0.155,0.022L15.278,3.56l-0.063,0.061l-0.029-0.027l-0.02,0.018L15.05,3.629l-0.406,0.016
	l-0.068,0.063l0.004,0.052h-0.097l-0.141,0.144l-0.009,0.051L14.251,4.04l-0.014,0.036l0.053-0.014l0.083-0.122l0.019-0.04
	l0.271-0.131h0.131v0.016l0.068-0.002V3.85l-0.053,0.054h-0.141L14.653,3.92l0.102,0.018l0.01,0.025l0.024-0.023l0.049,0.002v0.061
	l-0.034,0.034l0.048,0.007l0.039,0.106l0.073-0.014l0.019,0.029l0.034,0.004v0.024h0.112l0.015-0.02l0.034-0.004l0.005,0.024
	l0.058,0.009l0.005,0.034l-0.131,0.077H15.08l-0.015,0.02h-0.024v0.034h-0.059l-0.024,0.025L14.91,4.467h-0.029l-0.004,0.032h-0.044
	l-0.043-0.047l-0.014-0.09l0.058-0.03V4.305l0.092-0.042l0.039,0.018l0.053-0.036h-0.111L14.9,4.199l-0.078,0.052l-0.15,0.036v0.049
	l0.029,0.019l-0.058,0.011l-0.092,0.049l-0.048-0.049l-0.02,0.049l0.005,0.025l-0.073,0.025h-0.058l-0.029,0.061l-0.039,0.056
	l-0.01,0.036l0.02,0.011l0.005,0.043h-0.024l0.072,0.063h0.024l0.029-0.031v0.056l-0.043,0.016l-0.029,0.027H14.3l-0.029-0.025
	v-0.02h-0.024l-0.005,0.027l-0.101,0.03h-0.073l-0.126,0.049v0.034l-0.034,0.02c0,0,0.039,0.027,0.043,0.034
	c0.01,0.009-0.029,0.1-0.029,0.1l-0.078,0.079l-0.009-0.043l-0.068-0.025l-0.02,0.018l0.034,0.034l0.044,0.054l-0.02,0.09
	l-0.067,0.119h-0.024V5.338l0.02-0.061l-0.029-0.065v-0.11l0.024-0.045l-0.015-0.014l-0.039,0.039L13.656,5.1l-0.01,0.133
	l-0.039-0.025l-0.034-0.036v0.043l0.048,0.027l0.039,0.041l0.014,0.088l-0.029,0.029v0.022l0.078,0.016L13.714,5.5L13.7,5.541
	h-0.043h-0.024v0.026l0.086-0.002l0.015,0.043L13.7,5.638h-0.078v0.043l0.039,0.038l-0.112,0.022l-0.086,0.115l-0.097-0.009
	l-0.01,0.032l-0.039,0.009l-0.02,0.067l-0.121,0.063"/>
<path id="path3671" fill="#2A6886" d="M8.897,5.045H8.97V5.012H8.897V5.045z"/>
<path id="path3673" fill="#2A6886" d="M40.758,12.205l0.082,0.08l0.02-0.02v-0.063l-0.117-0.115v-0.099h0.055l-0.025-0.128
	l0.064-0.065v0.081l0.068-0.077l0.125-0.05l0.174-0.128l0.164,0.029l0.045-0.047h0.129l0.055-0.054l0.191-0.037l0.152-0.092
	l0.018-0.082l0.107-0.052l-0.029-0.092l0.092-0.09l0.098,0.099l0.062-0.061l-0.053-0.056l0.025-0.031l0.043,0.002h0.059V11h0.047
	v-0.085h0.059v-0.039h0.047v-0.058h0.094l0.025-0.081l0.109,0.022v-0.063l0.088-0.004l0.096,0.097v0.063l0.055-0.056h0.082
	l0.092,0.034l-0.033-0.092l-0.006-0.056h0.043l0.025-0.077h0.062v-0.075l0.049-0.051h0.053l0.01-0.052h0.145l0.068-0.067v-0.077
	h0.045l0.049,0.047l0.285,0.04l0.062-0.063l0.053,0.057v-0.05l0.033-0.036l0.035,0.032l0.027,0.029l-0.053,0.054v0.061h-0.068
	l-0.053,0.052l0.035,0.032l-0.078,0.16l0.111,0.029v0.059h0.098l0.131,0.083l0.086,0.009l0.035-0.013l0.066,0.069l0.117-0.047
	l0.066-0.211l0.078-0.079l-0.023-0.088v-0.128l0.043-0.043l0.01-0.117l0.049-0.05v-0.081l0.053-0.055l0.049-0.049v0.133h0.033
	l0.039,0.149v0.137l0.029,0.032l0.057-0.054l0.078,0.081l-0.014,0.212h0.062v0.095l-0.025,0.061l0.039,0.092h0.102v0.034l0.121,0.05
	l-0.053,0.054l0.059,0.059v0.099l0.035-0.036h0.07v0.059l-0.033,0.038l0.039,0.041h0.053l0.029,0.087l0.062-0.065l-0.072,0.145
	l-0.039,0.133l-0.088,0.229l-0.172,0.245l-0.195,0.191v0.036l-0.211,0.217l-0.1,0.17l-0.154,0.042l-0.213,0.144l-0.102-0.008
	l-0.121,0.07l-0.189-0.024l-0.043,0.043l-0.107-0.036l0.049-0.088l-0.043-0.043l-0.145,0.038l0.105-0.104l-0.02-0.016l-0.062,0.063
	h-0.053v-0.032l0.072-0.071l0.074-0.074l-0.045-0.046l-0.125,0.126L43.6,12.733l-0.092,0.095l-0.039-0.138h-0.076l-0.061-0.059
	h-0.115l-0.141-0.04l-0.049,0.021l-0.072,0.041l-0.076-0.032l-0.346,0.119H42.43l-0.244,0.104l-0.092,0.099h-0.125h-0.117
	l-0.148,0.025h-0.107l-0.055,0.052h-0.076l-0.078,0.079h-0.266l-0.135-0.089l0.033-0.033l0.072-0.004v-0.065v-0.112L40.98,12.68
	v-0.1l-0.111-0.107V12.4l-0.141-0.142l0.072,0.026"/>
<path id="path3675" fill="#2A6886" d="M44.229,13.053l-0.043,0.048v0.072l-0.014,0.057h0.068l0.096-0.067l0.102-0.042l0.088-0.144
	l-0.166,0.063"/>
<path id="path3677" fill="#2A6886" d="M44.898,9.784l-0.133,0.03h-0.037l-0.107-0.11l-0.291,0.11l0.049-0.169h0.115V9.6
	l-0.033-0.034V9.519l-0.023-0.022V9.411l-0.195-0.063l-0.285-0.045L43.92,9.264l-0.02-0.02l-0.025,0.022l-0.053-0.054l-0.023-0.072
	L43.76,9.262l-0.043,0.043h-0.053l-0.025-0.124l-0.107-0.034v-0.04h0.098l0.062-0.029h0.088V9.015l-0.215,0.034l-0.062-0.063
	l-0.107-0.034V8.9l0.051-0.05h0.086l0.072-0.074l0.127,0.043h0.072l0.059,0.058v0.115l0.027,0.085l0.035-0.034l0.072,0.108
	l0.082-0.034l0.078-0.138h0.086l0.045-0.104l0.072-0.04l0.146,0.056l0.145,0.029l0.023-0.029l0.252,0.077l0.043,0.039h0.146
	l0.145,0.074l0.068,0.074v0.047l0.141,0.047h0.062l0.059,0.056l-0.115,0.059v0.045l0.096,0.094l0.053,0.052l0.006,0.05l0.049-0.047
	l0.014,0.085h0.068v0.059h0.082l-0.074,0.072l-0.027-0.03l-0.219,0.027L45.4,9.652l-0.025-0.104l-0.178-0.04l-0.059,0.056
	l-0.053-0.038v0.04l-0.059,0.061l-0.039,0.041l0.039,0.038l-0.072,0.077"/>
<path id="path3679" fill="#2A6886" d="M45.629,9.141v0.045l0.135,0.029l0.164-0.074l0.088-0.088V8.992l0.043-0.045V8.866
	l-0.088,0.022v0.104h-0.053l-0.02,0.074h-0.082l-0.023-0.022l-0.025,0.024l0.025,0.025l-0.045,0.043"/>
<path id="path3681" fill="#2A6886" d="M42.85,9.325L42.805,9.37L42.689,9.33l-0.049-0.047l0.098-0.056h0.047"/>
<path id="path3683" fill="#2A6886" d="M42.951,9.325V9.233l0.062-0.061h0.195h0.123l0.055,0.117l-0.029,0.034l-0.111-0.061h-0.082
	h-0.078l-0.043,0.043l-0.035-0.034v0.054"/>
<path id="path3685" fill="#2A6886" d="M42.965,8.751h0.107l-0.084-0.083l0.068-0.072l-0.049-0.05l-0.057,0.059V8.463h-0.049
	l-0.064,0.126l0.035,0.097l0.039,0.146l0.096,0.097l-0.047-0.133"/>
<path id="path3687" fill="#2A6886" d="M42.514,10.167l0.225-0.083l0.039-0.045l0.047-0.044l0.025-0.025l-0.18,0.027l-0.158,0.041
	v0.047l-0.107,0.034l-0.094,0.034L42.277,10.3h0.107l0.066-0.07"/>
<path id="path3689" fill="#2A6886" d="M41.812,9.67h-0.145l-0.029-0.032l0.053-0.169l-0.023-0.081h-0.082l-0.039-0.122l0.078-0.077
	V9.037l0.053-0.049V8.911l0.076-0.16h0.068V8.693l0.133-0.012l0.027,0.029h0.127h0.057l0.098-0.025h0.082l0.131-0.128l0.055,0.051
	l-0.08,0.075l-0.047,0.112h-0.137l-0.086-0.029h-0.068l-0.088,0.041H41.93h-0.121l-0.049,0.05v0.128l0.049,0.052l0.053,0.041h0.059
	l0.035-0.093h0.066h0.145l0.078-0.076l0.043,0.045l-0.059,0.061l-0.027,0.029l-0.025,0.024h-0.049l-0.043,0.043h-0.107l0.035,0.092
	l0.107,0.11l-0.035,0.068l0.049,0.047l0.033,0.036l0.062-0.025v0.079L42.186,9.56l0.039,0.038l-0.053,0.054V9.611h-0.068V9.555
	l0.035-0.037l0.027-0.026l-0.027-0.029L42.09,9.512L42.051,9.55h-0.059V9.451l-0.102-0.103l0.049-0.045l-0.049-0.059l-0.098,0.045
	v0.077l0.041,0.036l-0.025,0.153"/>
<path id="path3691" fill="#2A6886" d="M41.717,10.084l0.076-0.079l0.162,0.039h0.125h0.096L42.221,10l-0.094,0.09l-0.043,0.042
	h-0.115h-0.078l-0.078-0.027h-0.047h-0.062"/>
<path id="path3693" fill="#2A6886" d="M41.867,10.255v0.063h-0.074l-0.047-0.004l-0.039-0.036l-0.105-0.047v-0.044h0.07h0.08"/>
<path id="path3695" fill="#2A6886" d="M41.602,10.133h-0.152L41.4,10.186h-0.129l-0.055-0.052l-0.021,0.027h-0.074l0.023-0.083
	h0.045h0.047l0.021,0.022l0.033-0.034l0.141,0.029l0.023-0.027l-0.039-0.036h0.066l0.094,0.022l0.053,0.052"/>
<path id="path3697" fill="#2A6886" d="M40.994,10.161l0.074-0.075l-0.039-0.04h-0.145v-0.05L40.83,9.992h-0.178L40.602,9.94
	l0.17-0.012l0.045-0.044H40.67h-0.057l-0.02,0.02l-0.043-0.045l-0.064,0.018h-0.072h-0.029l-0.049-0.05l-0.057,0.061h-0.305
	L39.92,9.832L39.809,9.8l-0.043-0.042h-0.062h-0.127L39.52,9.818L39.467,9.87l0.109,0.034h0.074l-0.025,0.052l0.088,0.036h0.043
	l0.092,0.016h0.115h0.049l0.166,0.025l0.102,0.052h0.115l0.043,0.039l0.082-0.039l0.033,0.043l0.1-0.016l0.105-0.011l0.098,0.047
	h0.043V10.07h0.062"/>
<path id="path3699" fill="#2A6886" d="M40.211,9.33l0.111,0.036l0.115-0.041l0.045,0.097l0.15-0.034V9.343l0.139,0.068h0.088
	l0.078,0.081l0.178-0.063l0.039,0.036l0.041-0.041l-0.055-0.052V9.314l0.062-0.063l-0.029-0.029V9.141l0.059-0.057l0.066,0.011
	l0.055-0.126V8.832l0.062-0.047V8.733l0.045,0.041h0.105V8.744l-0.188-0.126l0.047-0.045l-0.115-0.162l-0.039-0.036h0.107v-0.05
	L41.33,8.276h0.096l0.049-0.045l-0.033-0.032V8.164h0.115l0.053-0.054h-0.082l-0.059-0.054H41.4V8.021h-0.066V7.947l-0.029-0.029
	L41.266,7.88h-0.033v0.031L41.197,7.88L41.141,7.94l-0.045,0.041l-0.02,0.097H41L40.99,8.13l0.035,0.034h-0.068h-0.039l-0.049,0.049
	h-0.078l-0.115,0.142l-0.062,0.113l-0.209,0.036v0.063h-0.057v0.11h-0.16l-0.062-0.063l-0.068,0.067l-0.068,0.144v0.052h0.049v0.126
	l0.076,0.029l0.068,0.07v0.079l0.02,0.063"/>
<path id="path3701" fill="#2A6886" d="M39.537,9.721V9.366l-0.068-0.072l-0.105-0.043V9.199h-0.039l-0.033-0.126L39.15,9.021
	l0.049-0.139l-0.053-0.05h-0.072v-0.07H39l-0.027-0.077l-0.025-0.02l-0.023,0.02h-0.039V8.618l-0.029-0.029L38.83,8.616
	l-0.053-0.054L38.734,8.6l-0.127-0.128l-0.086-0.086l-0.078-0.032l-0.135-0.14V8.152l-0.043-0.042h-0.209l-0.068-0.068H37.93v0.077
	l0.166,0.214h0.053l0.064,0.065l0.072,0.128l0.158,0.099v0.061l0.082,0.081l-0.02,0.081l0.102,0.047V8.94l0.094,0.092v0.057
	l0.086,0.085l-0.029,0.047l0.229,0.228l0.025,0.059L39.15,9.6h0.025l0.076,0.029l0.088,0.083l0.047-0.009l0.035,0.039l0.039-0.039"
	/>
<path id="path3703" fill="#2A6886" d="M39.432,9.174h0.057l0.039-0.038l0.055,0.054l0.008,0.072l0.088,0.025l-0.023,0.067
	L39.568,9.33l-0.041-0.077l-0.033-0.031l-0.072-0.022"/>
<path id="path3705" fill="#2A6886" d="M39.805,9.285V9.37h0.049h0.053V9.307l-0.045-0.043"/>
<path id="path3707" fill="#2A6886" d="M35.994,7.265l0.039,0.014l0.043,0.074l0.055,0.119l0.033,0.032l-0.012,0.067l0.018,0.016
	l-0.006,0.149l-0.102,0.077l-0.094-0.009l-0.02-0.056l-0.004-0.021L35.922,7.56l0.01-0.027V7.479l0.018-0.018l0.012-0.095h0.029
	v-0.07l-0.006-0.018"/>
<path id="path3709" fill="#2A6886" d="M41.266,7.659h0.064l0.131-0.135l0.021-0.076h0.055l0.092-0.09L41.59,7.211v0.11l-0.141,0.089
	l-0.057,0.084l-0.121,0.092"/>
<path id="path3711" fill="#2A6886" d="M42.035,7.842h-0.033V7.69l0.117-0.047l0.041-0.047h0.084v0.052l0.066-0.011l0.045-0.043
	h0.043V7.533h0.098V7.458V7.407l0.119,0.119l0.088,0.228l-0.049,0.051v0.084l-0.053-0.1l-0.033-0.031l-0.055,0.056l0.051,0.097
	v0.104l-0.059-0.057l-0.014,0.018h-0.107l-0.092-0.087l0.029-0.095l0.039-0.041l-0.117-0.059L42.195,7.75h-0.043l-0.033-0.037
	l-0.055,0.054"/>
<path id="path3713" fill="#2A6886" d="M42.412,7.155h-0.057L42.33,7.13v0.081l0.049,0.049l0.033,0.095h0.055l-0.035-0.09v-0.07
	h0.088l-0.057-0.054l0.029-0.103l-0.045-0.047h-0.137v0.038l0.051,0.047"/>
<path id="path3715" fill="#2A6886" d="M42.379,7.407V7.369h-0.076H42.26l0.004,0.063h0.047"/>
<path id="path3717" fill="#2A6886" d="M42.166,7.511v-0.1l0.055-0.142l-0.094-0.027l-0.033,0.032l0.059-0.104h-0.117l-0.066-0.072
	v0.124l-0.025,0.1h0.059h0.055h0.047v0.065l-0.039,0.041l-0.02,0.021l0.049,0.054l0.033,0.032"/>
<path id="path3719" fill="#2A6886" d="M41.881,6.934v0.104l-0.047,0.047l-0.047-0.047V6.955l-0.07-0.07h0.105"/>
<path id="path3721" fill="#2A6886" d="M41.9,6.817l-0.033,0.036h-0.049L41.76,6.79l0.01-0.013V6.718L41.754,6.7l-0.037,0.039
	l-0.059-0.057V6.635l-0.062-0.122h0.082V6.209l0.059-0.059l0.119,0.027h0.039V6.14l0.045,0.042v0.131l0.053,0.056l-0.049,0.133
	h-0.053l-0.035,0.117l0.039,0.11l0.061,0.056l0.043-0.043l0.061,0.002l0.064,0.065l0.02-0.021h0.062l0.016,0.085l0.061,0.063
	l-0.086,0.016l-0.053-0.052l-0.098-0.097v0.061v0.052l-0.062-0.065h-0.043"/>
<path id="path3723" fill="#2A6886" d="M41.678,5.678l0.039-0.099l0.043-0.047V5.358l0.027-0.027V5.216l-0.051-0.022l-0.072,0.009
	l-0.055,0.102l-0.047,0.119l0.023,0.118"/>
<path id="path3725" fill="#2A6886" d="M43.672,2.756l-0.033,0.036l-0.121-0.041l-0.199-0.099l0.049,0.126v0.099h-0.043l-0.025,0.068
	l0.059,0.085v0.057h0.062v0.148l0.049,0.047v0.169l-0.033,0.029l-0.029,0.054l-0.088,0.083l-0.033-0.034V3.54h-0.033v0.079
	l-0.025,0.047l0.02,0.095h-0.082h-0.023h-0.033L43,3.796h-0.088L42.83,3.879l-0.072,0.072h-0.041v0.061l-0.109,0.063l0.033,0.083
	l0.059,0.061V4.15l0.035,0.036l-0.02,0.083l0.023,0.072l0.033,0.009V4.285l0.045,0.049l0.014,0.023l0.049-0.065l0.004-0.095
	l0.01-0.043V4.113l-0.057-0.061h-0.045l-0.043-0.04l0.131-0.032V3.945h0.086l0.049-0.047h0.059l0.043-0.043l0.107,0.027
	l-0.012,0.036l0.021,0.045l0.066,0.069l0.055-0.099h0.039l-0.055-0.05V3.839l0.078,0.027h0.102l0.02-0.047l0.066,0.042V3.796
	l0.025-0.024l0.049,0.013v0.027l0.057-0.061V3.708l-0.049-0.052V3.593l0.025-0.024L43.652,3.46l0.033-0.174l-0.188-0.186
	l-0.043,0.009L43.43,3.028L43.373,2.97l0.047-0.047l0.074,0.018l0.154,0.059V2.914l0.082-0.021l0.037-0.052L43.711,2.78"/>
<path id="path3727" fill="#2A6886" d="M43.145,3.972v0.077l-0.088,0.018l-0.051,0.1l-0.08-0.079l-0.02-0.059l0.045-0.045h0.082
	V3.934h0.053"/>
<path id="path3729" fill="#2A6886" d="M40.24,1.785v0.045l-0.043,0.007l-0.01,0.036l-0.043,0.059l-0.049,0.049l-0.074,0.02
	l-0.08,0.083h-0.055L39.771,2.17l-0.113,0.002v0.022h0.039l0.025,0.025l0.098-0.023l0.061-0.009l0.061-0.079h0.037l0.053-0.039H40.1
	l0.066-0.047l0.012-0.049h0.057l0.082-0.182L40.24,1.785z M36.973,2.767l0.043-0.044l0.125-0.126l0.041,0.04h0.123h0.107
	l0.062-0.063l-0.115,0.036l-0.15-0.018l-0.092-0.022l-0.203,0.162v0.083L36.973,2.767z M35.949,2.848l0.078,0.013v0.032l0.084-0.079
	l0.039-0.038l0.053-0.018l0.057-0.101l0.062-0.063L36.197,2.63L36.17,2.641l-0.039,0.016l-0.094,0.065l-0.023,0.065L35.949,2.848z
	 M35.393,3.134l-0.037,0.02l-0.121,0.122l-0.053,0.072l-0.049,0.075l0.02,0.041l-0.025,0.054l0.121,0.021l0.039-0.099l0.072-0.075
	l0.064-0.079v-0.04l0.043-0.027V3.164l0.039-0.039h0.057l0.045-0.047V3.026h-0.045l-0.033,0.032l0.064-0.081l0.033-0.037V2.882
	l0.049-0.031l0.02-0.086l0.049-0.049l0.027,0.011l0.049-0.049l0.072-0.023l0.035,0.034l0.027-0.031l0.059-0.119l-0.078-0.014
	l-0.082,0.043l-0.092,0.061L35.68,2.684l-0.086,0.13l-0.035,0.037l-0.141,0.193v0.052L35.393,3.134z M39.264,8.677h-0.049h-0.074
	l-0.16-0.07L38.836,8.46V8.429l-0.115-0.083V8.199l-0.035-0.036l-0.029-0.239h-0.037l-0.176-0.236h-0.047l-0.035,0.034v-0.16
	l0.076-0.185h-0.033l0.033-0.2h-0.062V7.155l0.061-0.059L38.438,7l-0.033-0.133h-0.029l-0.033-0.16V6.466L38.25,6.369V6.322
	L38.217,6.4l-0.059,0.059l-0.043,0.045l-0.072,0.072l-0.107-0.024l-0.055-0.054l0.055-0.263l-0.055-0.149h-0.047V6.034l0.033-0.031
	l-0.102-0.054L37.67,5.851v-0.11V5.608l-0.045-0.043l-0.049-0.047h-0.043v0.039l-0.086,0.087l-0.049,0.047l-0.102-0.018h-0.082
	V5.615l-0.059,0.054l-0.121,0.05l-0.023,0.126L36.947,5.91l-0.145,0.032l-0.189,0.187l-0.082,0.083l-0.068-0.004l-0.057,0.061
	l-0.029,0.085H36.26l-0.047,0.094h-0.078l-0.053,0.054v0.272L35.984,7v0.196h-0.078l-0.023,0.077l-0.01,0.054l-0.082,0.029
	l-0.039,0.103L35.67,7.452l-0.068-0.167v-0.09V7.074l-0.027-0.122l-0.08-0.077L35.5,6.552V6.448V6.374h-0.039V6.223l0.031-0.029
	l-0.025-0.256l0.027-0.167l0.064-0.065V5.586V5.529l0.037-0.036V5.441h-0.057l-0.045,0.133l-0.047,0.049H35.35l-0.072-0.193
	l0.025-0.025l0.088-0.021l0.051-0.049l-0.131-0.014l-0.033-0.031V5.212l-0.023-0.027V4.966h-0.166l-0.037-0.038l-0.025,0.029h-0.039
	H34.9l-0.166-0.105h-0.041l0.041-0.208l-0.115,0.063L34.59,4.676V4.523h-0.033l0.053-0.166l0.029-0.115H34.58l-0.049,0.052
	l-0.043,0.133l-0.062,0.282h0.035l-0.035,0.114l-0.064,0.063V4.96l0.088,0.034l0.088-0.085l0.121-0.122l-0.053,0.133v0.092
	l0.066,0.07v0.2l-0.135,0.135l-0.02,0.106l-0.035-0.034l-0.066,0.173h-0.057l-0.051,0.126h-0.051l-0.051,0.097h-0.105l-0.064,0.108
	l-0.145,0.07v0.063H33.84l-0.049,0.05l-0.027-0.029l-0.064,0.063l-0.004,0.072l0.068,0.065v0.038l-0.021,0.018l-0.037-0.038
	l-0.029-0.032l-0.049,0.16h0.078l0.08-0.027h0.049h0.064l-0.033,0.09l-0.064,0.173v0.051l-0.092,0.305V7.17l-0.164,0.484L33.5,7.796
	v0.229c0,0-0.053-0.319,0-1.044c0.059-0.723,0.277-1.785,0.814-2.78c0.537-0.993,1.447-2.085,2.531-2.769
	c0.775-0.486,1.09-0.567,1.09-0.567l-0.029,0.097l0.131,0.045l0.17-0.043l0.252-0.063l0.053,0.054l0.068,0.069l0.154-0.157
	l0.285-0.088l0.043,0.043l0.016,0.032l0.15-0.052h0.105l0.051-0.047h0.184L39.621,0.7h0.334l0.174-0.024l0.068-0.065l-0.166-0.027
	h0.121h0.137l0.004,0.059h0.121h0.121l-0.049,0.081l-0.131,0.034h0.213h0.219h0.102V0.723l0.238,0.011l0.082,0.079l0.096,0.036
	V0.791l0.203,0.011l0.078-0.027L41.5,0.687l-0.133,0.007l-0.029,0.029l-0.039-0.041l-0.082-0.006l0.131-0.034h0.18l0.145,0.022
	l0.098,0.052l-0.168-0.034h-0.055l0.078,0.075l0.141,0.018h0.121l0.053,0.055l0.111-0.027h0.088h0.076l0.217,0.077h0.184h0.08h0.158
	l0.199-0.155c0,0,0.139,0.049,0.266,0.108c0.127,0.056,0.127,0.056,0.127,0.056l0.17,0.272l0.076,0.16v0.063L43.58,1.354L43.537,1.4
	l0.102,0.067l-0.029,0.03l0.057,0.056l0.137,0.07v0.069l0.121,0.075l-0.049,0.049v0.036l0.082,0.041L43.93,1.923l0.066,0.12
	l-0.023,0.092l-0.039,0.041V2.083L43.57,1.718l-0.115-0.072V1.572L43.406,1.52l0.029-0.031L43.406,1.4v-0.07l-0.088-0.083
	l-0.027,0.079l-0.1-0.04h-0.105v0.097l0.055,0.054h0.049l-0.082,0.039h-0.055l-0.184-0.052v0.068h-0.154h-0.189l-0.078,0.079
	l0.01,0.05l-0.059,0.056l-0.125,0.131l0.037,0.047h0.078h0.059V1.79L42.5,1.871v0.034h0.064V1.86l0.131,0.011l0.09,0.09l0.102,0.065
	L42.85,1.927l0.029-0.024L42.816,1.84l0.158,0.112l0.033,0.09l0.113,0.112l0.223,0.153l-0.154-0.029l0.043,0.126l0.141,0.14h-0.062
	v0.068L43.227,2.53l-0.023-0.126l-0.088-0.087l-0.062-0.13l-0.082-0.079l-0.025-0.025l-0.033-0.036l-0.014,0.094l0.082,0.083
	l0.014,0.146l-0.057,0.126l0.014,0.108L42.85,2.778l-0.02,0.119l-0.15,0.081h-0.082l-0.084-0.083l-0.057,0.083h-0.053l-0.049,0.093
	v0.121l-0.088,0.086h-0.053l-0.039,0.04v0.074l0.127,0.052L42.457,3.6l0.035,0.126l0.027,0.031l-0.023,0.105H42.43v0.023h-0.064
	l-0.043,0.043l-0.141,0.026V3.897h-0.035l0.049-0.108l-0.068-0.065l-0.033-0.036V3.656h0.072v-0.04L42.109,3.56h-0.092h-0.025
	l-0.086-0.047l0.051-0.056V3.353l-0.145-0.041l-0.027,0.029h-0.082l-0.107,0.034v0.051l-0.113,0.041l0.055-0.059l-0.029-0.032
	l0.062-0.094l-0.057-0.059h-0.078l-0.043,0.043L41.271,3.33v0.067l-0.029,0.027h-0.135l-0.045,0.041l0.127,0.124l0.047,0.047
	l0.016,0.038h0.096l0.094-0.092l0.121,0.04h0.109v0.057H41.59l-0.086,0.029l-0.029,0.074h-0.068v0.023l-0.102,0.133l0.145,0.063
	l0.127,0.218l0.127,0.126c0,0-0.189-0.067-0.17-0.052c0.014,0.018,0.174,0.133,0.174,0.133l-0.088,0.092l0.111,0.045l-0.047,0.049
	l0.037,0.038l-0.023,0.025L41.672,4.8h-0.043l-0.053,0.054v0.065L41.518,4.98l0.006,0.039l-0.029-0.029l-0.049,0.029l0.029,0.115
	l-0.141,0.142l-0.055,0.03l-0.047,0.049L41.16,5.431h-0.051l-0.033,0.099l-0.338,0.067l-0.037,0.039l-0.055-0.072v0.093l-0.068-0.07
	l-0.039,0.121l-0.348,0.068l-0.053,0.052l0.062,0.065l-0.043,0.045l0.102,0.034v0.047L40.191,6.16l-0.088,0.09l-0.162-0.068V6.075
	l0.119-0.124l0.072,0.016V5.919L40.07,5.854V5.759l-0.033,0.032l-0.078-0.075l-0.207,0.077v0.034l-0.068,0.07l-0.029,0.029
	l-0.086,0.088l-0.074,0.142l0.115,0.117v0.065l0.176,0.181h0.057l0.074,0.074l0.053,0.052l0.053,0.331V7.04l-0.027,0.09v0.081
	l-0.258,0.196l-0.064-0.063l-0.07,0.079l-0.039,0.025L39.549,7.5L39.51,7.535h-0.055l-0.029,0.083l-0.039,0.041l-0.033-0.081V7.511
	v-0.07L39.311,7.4l-0.033-0.034h-0.049v0.029l-0.045-0.042H39.15V7.297h-0.037L39.053,7.17l-0.061-0.065l-0.08-0.075h-0.125V6.925
	h-0.141v0.189l-0.082,0.081v0.126l-0.066,0.065v0.14L38.6,7.54l0.014,0.09l0.072,0.07v0.133l0.117,0.085h0.057l0.094,0.092
	l0.174,0.175v0.318h0.068"/>
<path id="path3731" fill="#FFFFFF" d="M34.207,7.517c0,4.019-3.232,7.274-7.228,7.274c-3.989,0-7.228-3.255-7.228-7.274
	c0-4.016,3.239-7.274,7.228-7.274C30.975,0.243,34.207,3.501,34.207,7.517"/>
<path id="path3733" fill="#FFFFFF" d="M23.179,20.901c0,0.335-0.271,0.607-0.605,0.607s-0.605-0.272-0.605-0.607
	c0-0.336,0.271-0.606,0.605-0.606S23.179,20.565,23.179,20.901"/>
<path id="path4259" fill="#2A6886" d="M25.231,2.339l-0.053,0.104h-0.194v-0.02h-0.135V2.331L24.81,2.29l0.097-0.047V2.191h0.063
	l-0.039-0.039h0.15l-0.034,0.031l-0.029,0.032h0.078l0.053,0.052l0.034,0.034h0.068"/>
<path id="path4261" fill="#2A6886" d="M22.762,2.233h0.087l0.169-0.171h0.039V1.997l0.068-0.07l0.145-0.036l-0.024-0.022h-0.111
	l-0.048,0.047h-0.068l-0.087,0.038l-0.034,0.102H22.85l-0.029,0.068l0.024,0.02"/>
<path id="path4263" fill="#2A6886" d="M23.29,1.799v0.063l0.102-0.043l0.165-0.121l-0.054-0.054l0.063-0.063l0.029,0.097
	l0.291-0.259v0.038l0.431-0.193h-0.141V1.214l0.102-0.057h0.062l0.083-0.049h0.048l0.097-0.059h0.068l0.073-0.072l0.083-0.085
	l-0.15,0.029h-0.155l-0.068,0.063l-0.184,0.057h-0.072l0.029-0.034l-0.339,0.101l0.126-0.077l0.3-0.105l0.213-0.092L24.97,0.64
	l0.262-0.059h0.111l-0.029,0.034L25.43,0.63l-0.087,0.052l-0.218,0.054v0.038h0.111l0.14-0.038v0.047h0.262l-0.155,0.108h-0.13
	h-0.112l0.054,0.054h-0.16l-0.02-0.022h-0.073l0.054-0.054h-0.073l-0.068,0.07l-0.054,0.052l-0.227,0.065l-0.179,0.126h0.063
	l0.039-0.016l0.125-0.054l-0.125,0.079h0.106l0.247-0.135h0.073l-0.237,0.126h0.184l0.247-0.142h0.087l0.16-0.043l0.237-0.101h0.125
	V0.837l0.02-0.022l0.024,0.063h0.072l0.039-0.037l0.039-0.038l-0.034-0.031l-0.078-0.027h-0.067l0.053-0.054h-0.083l-0.067,0.067
	l-0.092-0.022l-0.048-0.052h0.155l0.053-0.054l0.339,0.025V0.615H26.04l-0.083-0.031V0.547l0.126-0.029l0.102-0.023l0.034,0.034
	h0.15h0.106l0.048,0.047h0.083l0.082-0.086l0.054,0.055l0.15-0.027l0.015,0.014h0.106h0.184V0.457h-0.174L26.979,0.5l-0.034-0.034
	h-0.097l-0.155-0.047h0.426h0.349h0.252L28.084,0.5l0.328,0.083l0.346,0.038l0.082,0.034h0.047l-0.043-0.063l0.232,0.072
	l-0.039-0.038l0.15,0.009c0,0-1.088-0.439-2.63-0.329c-1.055,0.075-2.251,0.35-3.34,1.083c-0.571,0.385-0.562,0.401-0.562,0.401
	l0.024,0.022l0.077-0.038l0.107-0.061v0.097l-0.16,0.09l0.058,0.02v0.063h0.063l0.059-0.057L22.854,1.9l0.184-0.185h0.077
	l0.005-0.065l0.039,0.038l0.087-0.087V1.544h0.087l-0.169,0.171h0.068V1.79"/>
<path id="path4265" fill="#2A6886" d="M26.984,13.064l0.237-0.024l0.456-0.687l-0.02-0.115h0.054v0.054h0.048l-0.039-0.281
	l-0.077-0.076l-0.044,0.016v0.086l-0.131,0.028l-0.015,0.101l-0.193,0.087l-0.237,0.024l-0.068,0.11l0.029,0.203l-0.155,0.158v0.103
	h0.034v0.14"/>
<path id="path4267" fill="#2A6886" d="M24.897,5.714L24.8,5.705L24.68,5.628l-0.02,0.018l-0.01,0.068l0.029,0.029l0.116,0.128h0.039
	l0.01-0.097l0.067-0.036"/>
<path id="path4269" fill="#2A6886" d="M24.568,5.282l-0.072,0.142h-0.048l-0.01,0.012h-0.039V5.358l0.063-0.061V5.199h0.106"/>
<path id="path4271" fill="#2A6886" d="M24.554,5.161h0.034L24.65,5.1l0.01-0.063h-0.078L24.554,5.07"/>
<path id="path4273" fill="#2A6886" d="M25.386,5.908l0.024,0.126h0.034v0.063l0.029-0.029h0.015l0.02,0.057l0.024-0.128l0.014-0.016
	V5.951l-0.077-0.057"/>
<path id="path4275" fill="#2A6886" d="M25.522,6.241v0.039h0.053l0.015-0.016l0.01,0.044l0.024,0.027l0.155,0.014L25.71,6.295
	l-0.106-0.039L25.59,6.241l-0.068-0.016"/>
<path id="path4277" fill="#2A6886" d="M26.345,6.471l0.015,0.047l0.058,0.016l0.092-0.023l0.058-0.058l-0.122-0.005l-0.038,0.014"/>
<path id="path4279" fill="#2A6886" d="M24.65,3.902h0.078l0.053-0.052V3.794h-0.092l0.048-0.045V3.693h0.049l-0.005-0.145
	l0.043-0.047V3.434h-0.053l0.01-0.041h0.043l0.145-0.085l-0.072-0.075l0.121-0.061l-0.121-0.021l-0.136,0.072V3.186l0.043-0.042
	l-0.019-0.021l-0.063,0.063v0.067h-0.048l-0.043,0.043l-0.044,0.043l0.053,0.052l-0.058,0.054l0.063,0.063l-0.024,0.104
	l-0.034,0.031l-0.082-0.026l-0.034,0.038v0.041h-0.116v0.047l0.053,0.052l-0.073,0.025l-0.14,0.029l0.125,0.059l0.048-0.049
	l0.039,0.054h0.097l0.043,0.059h0.087"/>
<path id="path4281" fill="#2A6886" d="M24.496,3.481l-0.179,0.182V3.616h-0.204V3.53l0.039-0.039h0.102V3.413l0.068-0.065L24.37,3.4
	h0.048l0.015-0.059h0.116l0.039,0.04l-0.029,0.09"/>
<path id="path4283" fill="#2A6886" d="M23.978,5.129h0.092v0.054l-0.043,0.041l-0.039-0.041l-0.024-0.022"/>
<path id="path4285" fill="#2A6886" d="M26.984,1.992l-0.039,0.041l-0.049,0.047l0.029,0.081l0.087-0.09l0.067-0.065v0.081
	l0.02,0.049l0.073-0.047V1.963l0.063,0.025h0.068l0.01-0.059l-0.059-0.056l-0.039,0.036l-0.015-0.034H27.11h-0.102L26.892,1.95
	l0.043,0.042"/>
<path id="path4287" fill="#2A6886" d="M27.957,2.704L28,2.76l0.088,0.045h0.127l-0.102-0.126V2.558l0.053-0.101l0.105-0.106h0.074
	V2.297h0.039V2.238l-0.053-0.056l-0.068,0.094l-0.088,0.021l-0.088,0.087l-0.039,0.115l-0.054,0.088"/>
<path id="path4289" fill="#2A6886" d="M28.537,1.779l0.123,0.119h0.141l0.121,0.045l-0.025-0.067h0.098L28.82,1.79l-0.039,0.038
	l-0.049-0.022H28.65l-0.082-0.05"/>
<path id="path4291" fill="#2A6886" d="M29.518,1.565l-0.064,0.018l-0.111-0.107l0.035-0.029h0.092l0.053,0.056"/>
<path id="path4293" fill="#2A6886" d="M29.453,1.407h-0.062l-0.039-0.038h0.064"/>
<path id="path4295" fill="#2A6886" d="M27.851,2.979h0.072l0.034-0.031l-0.059-0.057l-0.034,0.021"/>
<path id="path4297" fill="#2A6886" d="M31.312,9.217l0.023,0.027l-0.039,0.146v0.196l0.051,0.047h0.051l0.1-0.102V9.404L31.43,9.289
	l-0.039-0.041l-0.039-0.041"/>
<path id="path4299" fill="#2A6886" d="M32.654,9.129l0.086,0.133l0.062,0.025l0.055,0.022v0.072h0.086l0.025,0.146h0.053
	l0.064,0.201l0.168,0.171l0.082-0.083l0.025-0.092V9.591l0.049-0.047l0.004-0.067l-0.049-0.047v0.042l-0.049,0.055v-0.09h-0.072
	V9.303l-0.062-0.065l-0.117,0.011l-0.072-0.072H32.92l-0.059-0.105l-0.072,0.072"/>
<path id="path4301" fill="#2A6886" d="M33.434,9.787l-0.088,0.088l-0.057,0.059l0.129,0.025l0.102-0.137h0.062l0.234-0.324
	l0.111-0.194l-0.209,0.311V9.537l-0.072,0.072l-0.059,0.023l-0.039,0.097l-0.037,0.036"/>
<path id="path4303" fill="#2A6886" d="M33.598,9.125v0.178l0.092-0.05v0.036l0.053-0.056l-0.018-0.067l0.066-0.023v0.05l0.082-0.083
	l0.035-0.392V8.526l0.078-0.079l-0.059-0.061l0.02-0.09L33.918,8.27V8.164l0.049-0.045l-0.02-0.124l0.057-0.059h-0.092l-0.039-0.034
	L33.826,8.22l-0.055,0.101v0.191l-0.107,0.11v0.16l-0.082,0.041v0.054l-0.027,0.029v0.201"/>
<path id="path4305" fill="#2A6886" d="M33.994,8.558l-0.023,0.164L33.941,8.81l0.033,0.227l0.029-0.072V8.787V8.722l0.033,0.133
	V8.731V8.593V8.54l0.068-0.183l-0.092,0.151V8.38l0.092-0.169V8.118L34.023,8.27l-0.029,0.105"/>
<path id="path4307" fill="#2A6886" d="M33.516,5.842l0.033,0.196l0.064,0.07l-0.016-0.102V5.955l-0.062-0.158V5.723H33.5v0.092"/>
<path id="path4309" fill="#2A6886" d="M33.777,6.428V6.387l0.033,0.104l0.043,0.088V6.464l0.064-0.05V6.345V6.304l0.037-0.155v0.086
	v0.132L33.902,6.5l-0.049,0.124v0.178l0.049-0.045l0.033,0.034l0.031,0.032v0.045l0.027-0.029l0.02,0.057l0.023,0.142l0.064,0.146
	v0.236l-0.053-0.201l-0.025-0.132L33.98,7.04l-0.01-0.079l-0.043-0.039l-0.035,0.126l-0.025-0.142L33.83,6.867l-0.047-0.045V6.655
	l-0.035-0.081V6.455"/>
<path id="path4311" fill="#2A6886" d="M33.971,7.085l-0.023,0.026l0.047,0.129v0.092l0.016-0.128V7.121"/>
<path id="path4313" fill="#2A6886" d="M34.02,7.377v0.12l0.023,0.151V7.475l0.02-0.065"/>
<path id="path4315" fill="#2A6886" d="M33.336,4.699l-0.141-0.173V4.438l-0.057-0.061l-0.064-0.185V4.055l-0.086-0.198l-0.033-0.032
	l-0.031-0.11l-0.027-0.027l-0.223-0.315l-0.043-0.045L32.494,3.19V3.15l-0.193-0.194h0.078L32.34,2.916l0.09,0.045l0.119,0.189
	v0.067l0.115,0.117l0.135,0.149l0.16,0.163l0.105,0.207l0.062,0.198l0.049,0.16h-0.023v0.063l0.062,0.063l0.039,0.102v0.065
	l0.068,0.104"/>
<path id="path4317" fill="#2A6886" d="M26.011,0.75h0.106V0.709l-0.039-0.036l-0.159,0.021l-0.02,0.02"/>
<path id="path4319" fill="#2A6886" d="M26.074,0.847l0.121,0.016l0.073-0.075V0.763h0.13l-0.111-0.036l-0.058,0.016"/>
<path id="path4321" fill="#2A6886" d="M26.325,0.811l-0.106,0.068l0.112,0.024l0.034,0.063h0.141l0.072,0.086l0.145,0.067
	l0.174-0.067l-0.004-0.128h-0.121l-0.087,0.024v-0.04l-0.077-0.016h-0.102l-0.034-0.075"/>
<path id="path4323" fill="#2A6886" d="M26.708,0.892h0.126h0.078l-0.092-0.09l-0.218,0.004l-0.078,0.029L26.51,0.851h0.072"/>
<path id="path4325" fill="#2A6886" d="M26.94,0.763h-0.194V0.728h0.106"/>
<path id="path4327" fill="#2A6886" d="M26.959,0.671l0.044,0.042h0.073V0.658"/>
<path id="path4329" fill="#2A6886" d="M27.1,0.646h0.082l0.054-0.057l-0.315-0.011H26.8L26.732,0.61l0.024,0.024h0.063l0.034,0.037
	l0.043-0.05h0.073"/>
<path id="path4331" fill="#2A6886" d="M26.722,0.667l-0.039,0.043h-0.116L26.5,0.687l0.039-0.041"/>
<path id="path4333" fill="#2A6886" d="M26.229,0.626l0.213,0.016l0.019-0.027l-0.102-0.029h-0.141"/>
<path id="path4335" fill="#2A6886" d="M26.195,0.646l-0.034,0.036l0.029,0.032h0.116l0.034-0.036l-0.078-0.027"/>
<path id="path4337" fill="#2A6886" d="M26.432,0.763h0.102h0.082l-0.043-0.042l-0.097-0.009h-0.078"/>
<path id="path4339" fill="#2A6886" d="M23.847,8.339L23.9,8.382v0.063l0.087,0.041v0.079h-0.136v-0.07L23.798,8.42V8.339H23.847z
	 M27.144,3.463l0.039,0.038V3.58l0.024,0.023v0.063h-0.053V3.618L27.11,3.573L27.144,3.463z M26.921,3.551l0.058,0.061V3.69h-0.063
	l-0.043,0.041l-0.029-0.153L26.921,3.551z M30.016,5.311l-0.082-0.083V5.176l0.043-0.09l0.066-0.007l0.102-0.013h0.074l0.047-0.05
	h0.025l-0.059,0.059l-0.197,0.029l-0.059,0.054V5.23L30.016,5.311z M28.781,5.534l-0.029-0.069l0.039-0.115l0.043-0.019l0.025,0.003
	l0.062-0.021l0.057-0.038l-0.004,0.083l0.057,0.061l0.016,0.052h-0.043l-0.035,0.075v0.056h-0.178L28.781,5.534z M27.981,6.16
	l0.038-0.016l0.02-0.128l0.068-0.009V5.984h-0.062l-0.039-0.072L27.87,5.725l-0.01-0.126l-0.078-0.076l0.015-0.054l0.067-0.092
	l0.01-0.065l0.053,0.054l0.03-0.05l-0.039-0.013V5.262h0.034l0.019,0.018l0.035-0.011l0.088-0.009l0.068-0.045l0.062,0.027
	l0.025-0.021l0.051,0.016l0.059,0.059v0.029l0.107,0.083v0.045h-0.049l-0.01-0.011l-0.131-0.02l-0.092,0.027v0.075h-0.098
	l0.102,0.076v0.09h0.039l0.01,0.038h0.053v0.151l0.021,0.018h0.02V5.838l0.061-0.025L28.5,5.921l-0.029,0.049h-0.043l-0.062-0.018
	l-0.02-0.022v0.142l0.02-0.02l0.043,0.02v0.032l-0.023,0.025l0.049,0.029l0.002,0.196h0.031v0.061h-0.113L28.32,6.448h-0.088
	l-0.086-0.031l-0.039-0.067h-0.093l-0.033-0.038V6.16z M26.858,5.23V5.199l0.131-0.014l0.116-0.041l0.073,0.011l0.019,0.021
	l-0.048,0.013l-0.014,0.016h-0.063l0.019,0.061l-0.068,0.07H26.95l-0.014-0.021h-0.116V5.244L26.858,5.23z M26.171,5.433h0.058
	l0.019-0.102h0.034l0.078-0.052l0.015-0.083h0.068l0.034-0.057h0.077v0.039l0.049,0.045h0.082L26.66,5.246l-0.063,0.034l0.078,0.047
	v0.05L26.66,5.392l0.024,0.027h0.034l0.034-0.034h0.059V5.368l0.121-0.016l0.048,0.052l0.354,0.282v0.114L27.23,5.876h-0.077
	l-0.019-0.018l-0.18-0.012l-0.034-0.036h-0.063V5.75L26.8,5.739l-0.043-0.042l-0.15,0.004l-0.029-0.027l-0.174,0.065h-0.058
	l-0.014-0.018h-0.054l-0.145-0.059l-0.015-0.139L26.171,5.433z M25.977,5.728l0.093-0.034l0.077,0.011L26.2,5.719v0.036L26.074,5.77
	l-0.058-0.016L25.977,5.728z M25.663,10.769h-0.034l-0.005-0.115l0.048-0.153l0.262,0.011v0.052l0.053,0.011l-0.058,0.018
	l-0.092,0.126v0.052H25.73l-0.034-0.034L25.663,10.769z M25.454,11.351l-0.049-0.049l-0.009-0.092l-0.053-0.023l-0.058-0.09
	l0.029-0.299l0.049,0.108v0.203l0.077,0.051v0.1l0.063,0.087L25.454,11.351z M25.778,11.502l0.087,0.016l0.024,0.047v0.115
	l0.029,0.029l-0.029,0.075l0.015,0.125l0.058,0.074l-0.106-0.021l-0.039-0.138l-0.029-0.051l0.039-0.036l0.015-0.169L25.778,11.502z
	 M29.145,0.703l0.17,0.139l0.223,0.221l0.145,0.045l0.154,0.155l-0.127,0.009l0.074,0.13l-0.074,0.029v0.092h-0.143l0.037,0.036
	l0.141,0.018l0.033,0.039l0.088,0.029v0.097l-0.033,0.034l0.072,0.069h-0.062l-0.213-0.081l-0.035,0.077l0.082,0.085L29.566,1.95
	l-0.049,0.051v0.05l-0.031,0.027L29.453,2.04l-0.057-0.094l-0.184-0.07l-0.055,0.052h-0.164l0.086,0.09l-0.057,0.029l-0.049,0.051
	l-0.047,0.075l-0.006,0.103l0.082,0.081l-0.145,0.052l0.105,0.108h0.098l0.092,0.097v0.083l-0.039-0.043L29.018,2.56L28.84,2.515
	l0.057,0.102h-0.027l-0.078-0.074l-0.039,0.074l0.092,0.09l0.025,0.092l0.053,0.052l0.109-0.018l0.074,0.072l0.025,0.025h0.049
	v0.038h-0.068l-0.1-0.097h-0.047v0.041l0.045,0.047v0.117h-0.031v0.057h-0.096l-0.035-0.036l0.068-0.021V3.037l0.02-0.018
	l-0.02-0.099l-0.057-0.059l-0.084-0.085l0.006-0.063l-0.062-0.061l-0.029-0.083l-0.111-0.07v0.108V2.65l-0.043,0.047l0.023,0.067
	h0.053l0.006,0.088h0.068l0.053,0.054V2.97l-0.268-0.108h-0.117L28.307,2.81h-0.039v0.057h0.066l0.059,0.061l-0.018,0.076h-0.041
	V2.945h-0.047l-0.035,0.038h-0.086v0.034h-0.043V2.954l-0.272,0.122v0.072h-0.087l-0.039-0.042V3.05h0.068l-0.053-0.054h-0.087
	v0.117l0.029,0.032v0.074l-0.092-0.042l-0.049,0.047h-0.092v0.055l0.058,0.056h-0.083l-0.048-0.051l-0.073-0.018l-0.039,0.038
	l0.062,0.063l0.02,0.021h-0.106l-0.073-0.07l0.024-0.115V3.156l-0.073-0.074V3.033l0.126,0.085l0.165,0.063l0.121-0.042V3.042
	l-0.204-0.165l-0.145-0.04l-0.029-0.032H27.09V2.765l0.039-0.041l-0.053-0.059l-0.034-0.029l-0.044,0.043l-0.053-0.054L26.848,2.65
	h-0.034v0.025h-0.068l-0.077-0.034l-0.126,0.066h-0.111l-0.058,0.092l-0.111,0.054l-0.199,0.14l-0.125,0.02l-0.03,0.029l-0.3,0.034
	l-0.155,0.158v0.059l-0.068,0.065v0.09l0.058,0.056l0.141-0.027l0.083-0.047l0.038-0.038l-0.024,0.124l-0.048,0.144v0.113h-0.116
	l-0.019,0.022H25.41l0.054-0.052h0.039V3.674L25.58,3.6h-0.067l-0.019,0.022h-0.092L25.313,3.71v0.122l-0.062,0.061h-0.15
	l-0.107-0.034L24.82,3.994h-0.16l-0.048,0.067h-0.131v0.034h-0.063l-0.034-0.092H24.36l-0.034,0.102L24.239,4.08V4.028h-0.111
	l-0.044,0.043l0.106,0.173l-0.029,0.032V4.37l-0.213,0.254l-0.344-0.27h-0.125l-0.044,0.121l-0.193,0.241h-0.044l-0.043,0.041
	l0.024,0.072l-0.106,0.105l0.068,0.068h0.053l0.044,0.047v0.137h0.13l0.136,0.081l0.039-0.04h0.097l0.068-0.067h0.058V5.079
	l0.179-0.119h0.204l0.068-0.067V4.805h0.116l0.102,0.104l0.179-0.027l0.106-0.029l0.068,0.067l-0.024,0.205h0.043l0.039,0.183h0.058
	l0.049,0.112h0.029V5.5l0.024,0.025v0.144l-0.039,0.041l-0.029,0.029l0.005,0.031l0.097-0.072V5.66h0.059V5.597l-0.025-0.024
	l0.034-0.034l0.063-0.022l0.043,0.042v0.047h0.034V5.512l-0.155-0.156l0.024-0.027V5.293h-0.063l-0.048-0.047V5.057L24.946,5V4.935
	l0.058-0.074h0.092v0.095l0.029,0.029l0.034-0.034v0.153l0.073,0.088l0.034,0.032h-0.044l0.053,0.051l0.106,0.11l-0.039,0.167v0.142
	l0.048,0.025l0.034,0.135l0.111,0.056l0.087,0.088V5.93l0.087,0.043V5.892l-0.087-0.067l-0.029-0.135l0.048-0.047l0.039,0.085
	l0.034-0.034l0.029-0.029h0.058h0.087l0.049,0.05l-0.068,0.144l0.053,0.054l-0.068,0.027l-0.024,0.025h0.039l0.063,0.06v0.151
	l0.125,0.031l0.034,0.077h0.125V6.229h0.063l0.121,0.12h0.145l0.063-0.063l0.039,0.038l0.097-0.007l-0.048,0.047v0.198l-0.16,0.16
	l-0.034,0.151l-0.073,0.074h-0.16l-0.049-0.085h-0.13l-0.02-0.022l-0.155,0.042l-0.262-0.137l-0.111-0.027V6.655l-0.179-0.076
	l-0.024-0.072l-0.136-0.045l-0.165,0.072v0.121l-0.058,0.059l-0.106-0.04l-0.092-0.131l-0.141-0.047V6.347l-0.169-0.13h-0.068
	l-0.092-0.092V6.047h-0.068V5.993l0.102-0.034l0.062-0.063V5.762h0.068V5.707h-0.063V5.63h-0.102h-0.053L24.21,5.577h-0.058V5.543
	h-0.116l-0.029-0.031l-0.251-0.083h-0.252l-0.024,0.024h-0.078L23.319,5.37l-0.092-0.039V5.214l-0.024-0.025L23.125,5.25l-0.102,0.1
	H22.84l-0.232,0.184v0.084l-0.106,0.069h-0.116l-0.01,0.011h-0.082l-0.029-0.027l-0.102,0.104l-0.097-0.009l-0.397,0.358
	l-0.024,0.182l-0.059,0.061v0.115l-0.228,0.304h-0.053v0.173l0.029,0.027l0.034,0.036l0.048,0.047l-0.072-0.027l-0.049-0.045
	l-0.029,0.102l0.043,0.117v0.16l0.053,0.259V7.83l0.073,0.124v0.117l0.068,0.059l0.039,0.178l0.116,0.169h0.16l0.145,0.09
	l0.15,0.151l0.3,0.02l0.014-0.016h0.063l0.228,0.108l0.087,0.135v0.158l0.102,0.04h0.073l0.067,0.034h0.053l0.112,0.203
	l-0.092,0.232V9.67l-0.024,0.088l-0.058,0.061l0.053,0.16l0.233,0.391v0.16l0.068,0.11v0.102l0.053,0.05l-0.058,0.056v0.074
	l0.072,0.072l-0.029,0.185h-0.092l-0.111,0.27v0.159l0.314,0.503v0.139l0.058,0.093l0.029,0.11l0.092,0.155l0.092,0.093l0.136,0.198
	l0.121,0.121l-0.073,0.018l0.068,0.082v0.044l0.189,0.082l0.339,0.028l0.165,0.059h0.15l0.218-0.02l0.199-0.098l0.097-0.099h0.111
	l0.077-0.146l-0.043-0.043v-0.035h0.276l0.073-0.221h-0.039v-0.097l-0.053-0.057v-0.049l0.203-0.084l0.146-0.093h0.188l0.213-0.139
	v-0.338l0.063-0.063v-0.05l-0.078-0.081L26.5,11.466l0.048-0.101l-0.106-0.109l0.087-0.141h0.043l0.126-0.218h0.063v-0.05h0.073
	l0.184-0.187l0.31-0.189h0.087l0.363-0.367h0.043l0.02-0.063l0.014-0.063l0.224-0.293V9.582l0.058-0.022v-0.16l-0.033-0.036
	l-0.089,0.044l-0.203,0.045h-0.155l-0.063,0.063l-0.141-0.034L27.386,9.55l-0.082-0.024l-0.097-0.138l-0.067-0.022l0.067-0.07
	l-0.232-0.307l-0.155-0.083l-0.077-0.155v-0.13l-0.087-0.126l-0.073-0.022V8.164l-0.014-0.012V8.064L26.446,7.94V7.826h0.039
	l-0.083-0.151L26.306,7.38V7.312l-0.059-0.101V7.06l0.059,0.122l0.019,0.085l0.044,0.079h0.029l0.097-0.189l-0.029,0.173H26.5
	l0.16,0.376V7.79l0.106,0.063l0.063,0.185v0.221l0.13,0.083l0.063,0.106v0.11l0.112,0.114l0.048,0.124L27.153,8.92l0.043,0.205
	l0.068,0.128h0.165l0.086-0.087L27.7,9.19l0.053-0.054l0.126-0.007l0.072-0.069l0.237-0.072l0.043-0.041h0.055v-0.07l0.232-0.101
	h0.105l0.035-0.097h0.125l0.016-0.126h0.115l0.012-0.165l0.047-0.05l0.057,0.02V8.262l0.107-0.144l-0.043-0.045l-0.092-0.092
	l-0.141-0.018l-0.111-0.115V7.693l-0.223,0.223L28.334,7.94h-0.076l-0.053-0.049l0.033-0.081V7.727l-0.039-0.041L28.162,7.77v0.104
	l-0.059-0.108l-0.029-0.029V7.621l-0.186-0.223v-0.11V7.202l0.068-0.007V7.139l0.068,0.065l0.078,0.021l0.105,0.184v0.077h0.082
	l0.102,0.106l0.219,0.067l0.115-0.12l0.094,0.052v0.103l0.066,0.052l0.428,0.038l0.512-0.106v0.077h0.072l0.029,0.106h0.092
	l0.023,0.063h0.141l0.029,0.029l-0.049,0.045h-0.076l0.164,0.165h0.094l0.076-0.079v-0.14h0.039v0.126l0.043,0.11l0.033,0.286
	l0.133,0.246v0.059l0.119,0.119v0.155l0.088,0.092l0.086,0.194v0.072l0.088,0.086l0.096-0.052V9.345l0.08-0.042l0.02-0.135h0.043
	l0.033-0.403l-0.059-0.162l0.045-0.097h0.053V8.429l0.096-0.036V8.328l0.17-0.263V7.97l0.164-0.14V7.664l0.074-0.072h0.049
	l0.121-0.072V7.38h0.086l0.059,0.131l0.102,0.101h0.066v0.097l0.068,0.018l0.045,0.108v0.178h0.076l0.078-0.126V7.785l0.098,0.049
	l0.023,0.144l0.102,0.212v0.137l0.029,0.029v0.372h0.043l0.025-0.027l0.102,0.137v0.135h0.027v0.082l0.055,0.054v0.047l0.15,0.041
	V9.158h0.039L33.26,9.037V8.814l-0.102-0.099h-0.094l-0.08-0.18h-0.049l-0.02-0.176V8.031l0.072-0.014v0.088l0.086-0.025
	l0.102,0.105l0.055,0.05l0.047-0.047v0.022l0.02,0.148l0.082-0.202V8.096l0.113-0.248L33.41,7.457l-0.201-0.155V7.245l-0.066-0.02
	V6.842l0.043-0.049V6.745h0.059l0.059,0.104l-0.039,0.042l0.02,0.173l0.078,0.034V6.842l-0.039-0.038l-0.033-0.086l0.082-0.193
	V6.457l0.039-0.036l-0.031-0.025l0.045-0.042l0.039-0.077V5.833l-0.068-0.131V5.554l-0.053-0.146l-0.049-0.16h-0.045L33.23,5.151
	l-0.049-0.05V5.07l-0.18-0.18h-0.059l-0.062-0.211V4.505L32.838,4.55h-0.039v0.124l-0.053-0.052h-0.078l-0.023-0.079l0.029-0.027
	l-0.059-0.219l-0.033-0.036V4.194l0.076,0.05l0.025,0.11l0.037,0.036l0.039,0.04l-0.023-0.103L32.707,4.19h0.062l0.084,0.151
	l0.049-0.049l0.053,0.065v0.038l0.033,0.031l0.119,0.18l-0.021-0.245l-0.148-0.194l-0.066-0.021L32.76,4.071l-0.039-0.185
	l-0.197-0.309h0.053l0.006-0.067l-0.133-0.208l-0.223-0.302l-0.191-0.198l-0.258-0.257l0.197,0.104l0.285,0.288l-0.018-0.09
	L32.156,2.76l-0.049-0.016l-0.102-0.104l0.018-0.02L31.555,2.36l0.092,0.092l-0.043,0.043v0.049l-0.059,0.023L31.398,2.42
	l-0.305-0.317l-0.062-0.207l-0.062-0.065h0.055l-0.107-0.11h-0.062l-0.252-0.187V1.477l0.111,0.047l0.154,0.11l0.15,0.083
	l0.092,0.093l0.301,0.128l0.105,0.05l-0.459-0.343l-0.15-0.083l-0.174-0.072L30.49,1.326l-0.131-0.104l-0.547-0.297h-0.111
	l-0.18-0.039l-0.131-0.133l-0.107-0.061l0.055,0.056l-0.055,0.011l-0.047-0.042L29.145,0.703z M25.372,3.81l0.102,0.104l0.117-0.07
	l0.078,0.043l0.043-0.043h0.131l0.126-0.198V3.611h0.126l0.068-0.067l-0.063-0.063l0.125-0.203l0.232-0.077l0.063-0.063l0.083-0.081
	l0.111,0.018v0.106l-0.188,0.105h-0.087l-0.068,0.161l-0.034,0.038V3.54l0.062,0.024v0.061h0.32l0.029,0.027l0.034,0.036
	l-0.097,0.021l-0.029,0.027l-0.102-0.052h-0.155L26.364,3.78l0.044,0.047l-0.039,0.074h-0.063v-0.07h-0.083l-0.097,0.097
	l-0.039,0.107h-0.092v0.052H25.89V4.021h-0.145L25.575,4.06V3.965h-0.174V3.911h-0.044"/>
<path id="path4341" fill="#2A6886" d="M25.405,1.811l-0.043,0.042l0.053,0.056l0.039,0.029l0.044-0.047l0.019-0.047h0.062V1.781
	L25.405,1.811z M24.137,1.849l0.073-0.07V1.722l0.329-0.205h0.111l-0.034-0.036l0.314-0.122h0.106l0.029,0.029l0.136-0.027
	l-0.039-0.036l0.073-0.029h0.092l0.029,0.029l0.092-0.04V1.243h0.15l0.3-0.09l0.111-0.049l0.053-0.097h0.087v0.042l0.063-0.025
	l0.029-0.029h0.106l0.083,0.086h0.165l0.082,0.083l-0.029,0.027v0.042l0.223,0.052l-0.146,0.02l0.16,0.029v0.036l-0.048,0.047
	L26.718,1.47l0.034,0.059l-0.063,0.057l-0.053,0.002L26.35,1.61l-0.063,0.063l-0.165-0.02l-0.097,0.094l-0.097-0.004l-0.083,0.081
	h-0.058l0.039-0.088H25.73l-0.087,0.086l0.044,0.04l-0.218,0.11l-0.262-0.038l-0.019-0.063h-0.107l0.049-0.045l-0.228,0.036
	L24.81,1.828l0.039-0.041h-0.063V1.754h-0.073l-0.169,0.043h-0.15L24.34,1.849h-0.077l-0.048,0.047h-0.111"/>
<path id="path4343" fill="#2A6886" d="M45.076,12.874l0.039-0.066l0.354-0.256l0.232-0.226l0.072-0.124l0.062-0.033l0.039-0.025
	l0.039,0.014l0.018,0.021l-0.008,0.02l-0.062,0.043l-0.014,0.051l-0.08,0.051l-0.053,0.097l-0.004,0.077l-0.107,0.036l-0.129,0.128
	l-0.113,0.121l-0.125,0.095l-0.053,0.041l-0.045,0.009"/>
<path id="path4345" fill="#2A6886" d="M45.957,12.214l0.049-0.057l0.01-0.024L46,12.097l-0.049-0.025l0.117-0.109l0.043-0.106
	l0.041,0.015l-0.02,0.103l0.021,0.059l0.08-0.054l0.02,0.011l-0.303,0.279"/>
</svg>
