<?xml version="1.0" encoding="utf-8"?>
<!-- Generator: Adobe Illustrator 16.0.0, SVG Export Plug-In . SVG Version: 6.00 Build 0)  -->
<!DOCTYPE svg PUBLIC "-//W3C//DTD SVG 1.1//EN" "http://www.w3.org/Graphics/SVG/1.1/DTD/svg11.dtd">
<svg version="1.1" id="Layer_1" xmlns="http://www.w3.org/2000/svg" xmlns:xlink="http://www.w3.org/1999/xlink" x="0px" y="0px"
	 width="54px" height="23px" viewBox="0 0 54 23" enable-background="new 0 0 54 23" xml:space="preserve">
<g>
	<path fill="#FFFFFF" d="M3.236,6.413c0.958-0.305,2.003-0.29,2.971-0.033c0.816,0.221,1.53,0.712,2.136,1.287
		c-0.24,0.269-0.484,0.534-0.738,0.79C6.96,7.835,6.158,7.331,5.254,7.219c-1.128-0.18-2.338,0.214-3.114,1.058
		c-1.389,1.468-1.371,4.017,0.037,5.468c0.688,0.738,1.71,1.133,2.716,1.066c1.081,0,2.043-0.602,2.795-1.333
		c0.232,0.239,0.489,0.45,0.717,0.693c-0.586,0.579-1.252,1.104-2.042,1.371c-1.19,0.399-2.537,0.368-3.686-0.156
		c-1.175-0.532-2.073-1.599-2.451-2.827c-0.404-1.34-0.275-2.854,0.433-4.07C1.223,7.51,2.157,6.75,3.236,6.413z"/>
	<path fill="#FFFFFF" d="M16.098,6.288c1.425-0.254,2.953,0.135,4.058,1.076c-0.207,0.28-0.42,0.554-0.629,0.832
		c-0.805-0.679-1.859-1.094-2.921-1.008c-0.497,0.041-1.009,0.211-1.357,0.583c-0.497,0.501-0.506,1.435,0.039,1.905
		c0.545,0.448,1.257,0.603,1.926,0.768c1.004,0.226,2.109,0.491,2.793,1.322c0.745,1.02,0.482,2.616-0.541,3.353
		c-0.878,0.666-2.049,0.753-3.105,0.604c-1.099-0.148-2.116-0.69-2.929-1.433c0.223-0.264,0.445-0.53,0.674-0.791
		c0.799,0.76,1.849,1.309,2.97,1.313c0.659,0.036,1.375-0.096,1.859-0.576c0.582-0.564,0.556-1.684-0.167-2.12
		c-1.028-0.64-2.299-0.605-3.385-1.104c-0.615-0.254-1.209-0.689-1.434-1.341c-0.231-0.709-0.187-1.536,0.227-2.17
		C14.596,6.833,15.341,6.434,16.098,6.288z"/>
	<g>
		<path fill="#FFFFFF" d="M29.476,6.255c1.276-0.211,2.652,0.067,3.692,0.858c1.016,0.751,1.666,1.944,1.823,3.192
			c0.204,1.481-0.268,3.068-1.339,4.127c-1.577,1.658-4.395,1.833-6.214,0.475c-1.064-0.779-1.741-2.037-1.864-3.346
			c-0.139-1.261,0.203-2.579,0.989-3.583C27.265,7.059,28.332,6.433,29.476,6.255z M29.565,7.249
			c-1.107,0.203-2.074,0.984-2.538,2.007c-0.599,1.297-0.475,2.916,0.364,4.08c0.936,1.364,2.87,1.86,4.367,1.185
			c0.797-0.344,1.436-1.003,1.8-1.784c0.427-0.949,0.488-2.058,0.153-3.043c-0.288-0.883-0.919-1.658-1.743-2.093
			C31.242,7.204,30.375,7.088,29.565,7.249z"/>
	</g>
	<path fill="#FFFFFF" d="M10.288,6.344c0.357,0,0.716,0,1.073,0.001c0.001,3.105,0.001,6.209,0.001,9.315c-0.358,0-0.716,0-1.075,0
		C10.287,12.555,10.287,9.45,10.288,6.344z"/>
	<path fill="#FFFFFF" d="M22.626,6.344c0.357,0,0.716,0,1.073,0c0.001,3.106,0.001,6.211,0,9.316c-0.357,0-0.715,0-1.073,0
		C22.625,12.555,22.625,9.45,22.626,6.344z"/>
	<path fill="#FFFFFF" d="M36.576,6.345c0.33-0.001,0.661,0,0.992-0.001c1.948,2.474,3.896,4.949,5.837,7.43
		c0.002-2.478,0-4.953,0.002-7.43c0.343,0,0.686,0,1.028,0.001c0.001,3.105,0,6.209,0,9.315c-0.28,0-0.562,0-0.844,0
		c-1.996-2.531-3.985-5.068-5.985-7.594c-0.002,2.531,0,5.063,0,7.594c-0.343,0-0.688,0-1.03,0
		C36.576,12.555,36.574,9.45,36.576,6.345z"/>
	<path fill="#FFFFFF" d="M51.019,9.219c0.997,0.595,1.989,1.196,2.981,1.8c-0.993,0.6-1.987,1.2-2.981,1.802
		C51.019,11.619,51.019,10.419,51.019,9.219z"/>
</g>
<g>
	<path fill="#FFFFFF" d="M46.519,6.408c0.998,0.593,1.992,1.198,2.986,1.8c-0.996,0.6-1.988,1.203-2.985,1.801
		C46.515,8.809,46.52,7.607,46.519,6.408z"/>
</g>
<g>
	<path fill="#FFFFFF" d="M46.521,12.13c0.995,0.594,1.986,1.198,2.979,1.799c-0.991,0.606-1.984,1.208-2.981,1.803
		C46.52,14.531,46.515,13.33,46.521,12.13z"/>
</g>
</svg>
