<?xml version="1.0" encoding="utf-8"?>
<!-- Generator: Adobe Illustrator 16.0.0, SVG Export Plug-In . SVG Version: 6.00 Build 0)  -->
<!DOCTYPE svg PUBLIC "-//W3C//DTD SVG 1.1//EN" "http://www.w3.org/Graphics/SVG/1.1/DTD/svg11.dtd">
<svg version="1.1" id="Layer_1" xmlns="http://www.w3.org/2000/svg" xmlns:xlink="http://www.w3.org/1999/xlink" x="0px" y="0px"
	 width="54px" height="23px" viewBox="0 0 54 23" enable-background="new 0 0 54 23" xml:space="preserve">
<path fill="#FFFFFF" d="M1.694,4.84h11.617l-0.493,3.8H1.221L1.694,4.84z M1.012,10.038h11.63l-0.358,3.091h-7.27l-0.189,1.479
	h7.283l-0.452,3.531H0L1.012,10.038z M13.5,8.641c0,0,0.081-1.296,0.405-1.971c0.304-0.634,0.708-1.093,1.391-1.478
	C15.7,4.976,16.422,4.84,16.422,4.84h20.925c0,0,0.878,0.014,1.256,0.169c0.404,0.168,0.992,0.418,1.303,1.174
	c0.304,0.722,0.243,0.958,0.243,1.681c0,0.709-0.021,0.776-0.021,0.776H13.5z M13.311,10.072h10.706c0,0,0.952,0,1.391,0.263
	c0.459,0.304,0.668,0.675,0.803,1.262c0.128,0.587-0.229,3.551-0.438,4.272c-0.229,0.709-0.5,1.377-1.606,1.932
	c-0.993,0.506-2.498,0.338-2.498,0.338H12.42l0.546-3.531h8.661l0.175-1.498h-5.974c0,0-0.972,0.135-1.883-0.654
	c-0.554-0.473-0.614-1.195-0.648-1.513C13.257,10.76,13.311,10.072,13.311,10.072z M27.236,10.072h12.629
	c0,0-0.114,1.458-0.459,1.977c-0.344,0.541-0.647,0.83-1.222,0.959c-0.587,0.135-1.465,0.135-1.465,0.135h-5.494l-0.574,4.996
	h-4.408L27.236,10.072z M40.723,8.674h13.122c0,0,0.25-1.147,0.115-1.87c-0.136-0.722-0.459-1.208-0.992-1.559
	c-0.702-0.493-1.985-0.405-1.965-0.405c-0.021,0-9.747,0-9.747,0L40.723,8.674z M40.554,10.072h4.348l-0.992,8.067h-4.313
	L40.554,10.072z M49.288,10.105h4.307l-0.992,8.033h-4.286L49.288,10.105z"/>
</svg>
