<?xml version="1.0" encoding="utf-8"?>
<!-- Generator: Adobe Illustrator 16.0.0, SVG Export Plug-In . SVG Version: 6.00 Build 0)  -->
<!DOCTYPE svg PUBLIC "-//W3C//DTD SVG 1.1//EN" "http://www.w3.org/Graphics/SVG/1.1/DTD/svg11.dtd">
<svg version="1.1" id="Layer_1" xmlns="http://www.w3.org/2000/svg" xmlns:xlink="http://www.w3.org/1999/xlink" x="0px" y="0px"
	 width="54px" height="23px" viewBox="0 0 54 23" enable-background="new 0 0 54 23" xml:space="preserve">
<g>
	<path id="path1371_1_" fill="#FFFFFF" d="M54,23.109c-2.457,0-4.957,0-7.385,0c-0.067,0-0.19-0.299-0.228-0.361
		c-1.017-1.832-2.03-3.674-3.04-5.508c-1.083,1.951-2.133,3.934-3.209,5.885c-2.42,0.002-4.816-0.014-7.213-0.01
		c0.272-0.508,0.561-1.004,0.851-1.502c2.018-3.482,4.005-7.014,6.023-10.501c-2.147-3.75-4.326-7.469-6.483-11.21
		c-0.007,0-0.021-0.024-0.007-0.021c2.474,0,4.946,0,7.418,0c0.913,1.659,1.801,3.339,2.699,5.01
		c0.935-1.655,1.832-3.345,2.759-5.01c2.391,0,4.779,0,7.17,0c0.007,0.03-0.015,0.062-0.031,0.086
		c-2.093,3.679-4.235,7.369-6.325,11.053C49.323,15.057,51.691,19.086,54,23.109z"/>
	<path id="path1373_1_" fill="#FFFFFF" d="M36.073,8.898c0.188,0.768,0.301,1.613,0.301,2.501c0,2.771-0.807,4.826-1.922,6.498
		c-0.188,0.283-0.383,0.557-0.587,0.814c-0.604,0.768-1.338,1.467-2.155,2.051c-0.549,0.387-1.122,0.74-1.757,1.041
		c-1.264,0.594-2.789,1.059-4.549,1.059c-2.752,0-4.782-0.842-6.428-1.994s-2.927-2.68-3.797-4.604
		c-0.585-1.291-0.969-2.779-1.013-4.589c-0.021-0.899,0.092-1.785,0.253-2.551c0.414-1.937,1.226-3.454,2.253-4.762
		c1.028-1.304,2.329-2.325,3.903-3.096c0.616-0.303,1.308-0.559,2.061-0.744c0.752-0.186,1.586-0.314,2.486-0.314
		c0.005,0,0.008,0,0.015,0c0.879-0.041,1.812,0.102,2.544,0.263c0.762,0.169,1.468,0.425,2.097,0.709
		c1.948,0.879,3.401,2.197,4.571,3.841C35.121,6.095,35.698,7.388,36.073,8.898z M27.216,16.592
		c0.071-0.283,0.051-0.648,0.051-1.021c0-2.861,0-5.661,0-8.532c0-0.366-0.043-0.649-0.149-0.915
		c-0.097-0.243-0.248-0.462-0.425-0.643c-0.346-0.351-0.864-0.668-1.517-0.618c-0.317,0.024-0.579,0.125-0.808,0.269
		c-0.427,0.272-0.752,0.688-0.886,1.24c-0.067,0.282-0.065,0.638-0.065,1.008c0,2.821,0,5.683,0,8.531
		c0,0.184-0.008,0.361,0.015,0.518c0.062,0.451,0.264,0.811,0.526,1.08c0.339,0.344,0.866,0.633,1.544,0.561
		C26.377,17.969,27.022,17.387,27.216,16.592z"/>
	<path id="path1377_1_" fill="#FFFFFF" d="M14.469,6.22c-2.616,0-5.228,0-7.844,0C6.594,7.194,6.62,8.271,6.61,9.25
		c2.12,0.019,4.273,0.003,6.406,0.005c0,2.12,0,4.239,0,6.358c-2.148,0.006-4.317-0.01-6.453,0.006
		c0.003,2.521,0.015,4.994,0.015,7.516c0,0.01-0.003,0.012-0.005,0.016c-2.178,0-4.36,0-6.539,0
		c-0.013,0.004-0.013-0.006-0.024-0.006C-0.003,15.402-0.003,7.612,0.008-0.13c0-0.008,0-0.021,0.005-0.021
		c4.671,0,9.342,0,14.008,0c0.008,0,0.012,0,0.015,0.007C14.186,1.974,14.327,4.097,14.469,6.22z"/>
</g>
</svg>
