<?xml version="1.0" encoding="utf-8"?>
<!-- Generator: Adobe Illustrator 16.0.0, SVG Export Plug-In . SVG Version: 6.00 Build 0)  -->
<!DOCTYPE svg PUBLIC "-//W3C//DTD SVG 1.1//EN" "http://www.w3.org/Graphics/SVG/1.1/DTD/svg11.dtd">
<svg version="1.1" id="Layer_1" xmlns="http://www.w3.org/2000/svg" xmlns:xlink="http://www.w3.org/1999/xlink" x="0px" y="0px"
	 width="54px" height="23px" viewBox="0 0 54 23" enable-background="new 0 0 54 23" xml:space="preserve">
<path fill="#FFFFFF" d="M0,0.7v1.478h10.511V0.7H0z M11.999,0.7v1.478h14.978c0,0-1.528-1.478-3.555-1.478H11.999z M29.916,0.7
	v1.478h9.064L38.439,0.7H29.916z M45.477,0.7l-0.539,1.478h8.98V0.7H45.477z M0,3.574v1.478h10.511V3.574H0z M11.999,3.575v1.477
	h16.718c0,0-0.197-1.138-0.535-1.477H11.999z M29.916,3.575v1.477h10.057l-0.498-1.477H29.916z M44.402,3.575l-0.498,1.477h10.014
	V3.575H44.402z M3.02,6.447v1.48h4.551v-1.48H3.02z M15.02,6.447v1.48h4.552v-1.48H15.02z M24.001,6.447v1.48h4.552
	c0,0,0.287-0.781,0.287-1.48H24.001z M32.939,6.447v1.48h8.068l-0.537-1.48H32.939z M43.41,6.447l-0.541,1.48h8.111v-1.48H43.41z
	 M3.02,9.322v1.479h4.551V9.322H3.02z M15.02,9.322v1.479h11.627c0,0,0.972-0.757,1.282-1.479H15.02z M32.939,9.322v1.479h4.549
	V9.979l0.293,0.822h8.336l0.312-0.822v0.822h4.549V9.322h-8.545l-0.453,1.252l-0.455-1.252H32.939z M3.02,12.197v1.477h4.551v-1.477
	H3.02z M15.02,12.197v1.477h12.908c-0.31-0.717-1.282-1.477-1.282-1.477H15.02z M32.939,12.197v1.477h4.549v-1.477H32.939z
	 M38.316,12.197l0.551,1.477h6.25l0.525-1.477H38.316z M46.43,12.197v1.477h4.549v-1.477H46.43z M3.02,15.072v1.477h4.551v-1.477
	H3.02z M15.02,15.072v1.477h4.552v-1.477H15.02z M24.001,15.072v1.477h4.839c0-0.697-0.287-1.477-0.287-1.477H24.001z
	 M32.939,15.072v1.477h4.549v-1.477H32.939z M39.35,15.072l0.531,1.477h4.193l0.535-1.477H39.35z M46.43,15.072v1.477h4.549v-1.477
	H46.43z M0.082,17.945v1.48h10.511v-1.48H0.082z M11.999,17.945v1.48h16.183c0.338-0.34,0.535-1.48,0.535-1.48H11.999z
	 M29.998,17.945v1.48h7.488v-1.48H29.998z M40.387,17.945l0.549,1.48h2.131l0.516-1.48H40.387z M46.43,17.945v1.48H54v-1.48H46.43z
	 M0.082,20.82v1.48h10.511v-1.48H0.082z M11.999,20.82v1.477h11.423c2.027,0,3.555-1.477,3.555-1.477H11.999z M29.998,20.82v1.48
	h7.488v-1.48H29.998z M41.426,20.82l0.527,1.473l0.09,0.004l0.537-1.477H41.426z M46.43,20.82v1.48H54v-1.48H46.43z"/>
</svg>
