<?xml version="1.0" encoding="utf-8"?>
<!-- Generator: Adobe Illustrator 16.0.0, SVG Export Plug-In . SVG Version: 6.00 Build 0)  -->
<!DOCTYPE svg PUBLIC "-//W3C//DTD SVG 1.1//EN" "http://www.w3.org/Graphics/SVG/1.1/DTD/svg11.dtd">
<svg version="1.1" id="Layer_1" xmlns="http://www.w3.org/2000/svg" xmlns:xlink="http://www.w3.org/1999/xlink" x="0px" y="0px"
	 width="54px" height="23px" viewBox="0 0 54 23" enable-background="new 0 0 54 23" xml:space="preserve">
<g>
	<g>
		<path fill="#FFFFFF" d="M7.998,9.201c-0.178,0.62-0.343,1.233-0.534,1.846c-0.468,1.503-0.943,3.006-1.411,4.496
			c-0.013,0.053-0.033,0.105-0.046,0.145c-0.178,0.58-0.079,0.475-0.64,0.488c-0.33,0-0.652-0.014-0.982,0
			c-0.152,0-0.231-0.04-0.277-0.198c-0.587-2.162-1.252-4.311-1.688-6.506C2.408,9.399,2.388,9.326,2.368,9.247
			c-0.072,0.04-0.053,0.086-0.053,0.125c-0.033,0.91-0.059,1.819-0.099,2.729c-0.06,1.358-0.139,2.703-0.205,4.048
			c-0.006,0.145-0.072,0.185-0.204,0.185c-0.541,0-1.081,0-1.622,0c-0.158,0-0.191-0.066-0.185-0.211
			c0.085-1.292,0.165-2.584,0.25-3.876c0.099-1.417,0.191-2.842,0.29-4.259c0.02-0.25,0.04-0.508,0.046-0.765
			c0-0.139,0.053-0.211,0.205-0.211c0.824,0.006,1.648,0.006,2.479,0c0.171,0,0.211,0.099,0.244,0.23
			c0.593,2.017,1.232,4.021,1.628,6.085c0,0.013,0.013,0.013,0.02,0.026c0.059-0.014,0.053-0.079,0.066-0.105
			c0.375-1.648,0.87-3.264,1.397-4.872c0.125-0.382,0.25-0.771,0.369-1.16c0.04-0.145,0.119-0.204,0.271-0.204
			c0.791,0.006,1.582,0.006,2.373,0c0.158,0,0.224,0.053,0.237,0.217C9.91,7.916,9.956,8.595,9.996,9.273
			c0.066,1.253,0.138,2.499,0.205,3.751c0.033,0.554,0.059,1.107,0.092,1.661c0.026,0.488,0.046,0.963,0.073,1.45
			c0.013,0.132-0.033,0.198-0.171,0.198c-0.58,0-1.154,0-1.734,0c-0.138,0-0.185-0.066-0.191-0.198
			c-0.02-0.396-0.053-0.804-0.066-1.213C8.163,14,8.13,13.077,8.104,12.154c-0.033-0.982-0.059-1.964-0.092-2.947
			C8.011,9.208,8.005,9.208,7.998,9.201z"/>
		<path fill="#FFFFFF" d="M39.027,15.503c-0.053,0.185-0.059,0.383-0.066,0.58c-0.006,0.172-0.072,0.264-0.256,0.251
			c-0.463,0-0.93,0-1.393,0c-0.158,0.013-0.203-0.053-0.197-0.211c0.092-3.099,0.027-6.19,0.047-9.282c0-0.33,0-0.33,0.336-0.33
			c0.508,0,1.008,0,1.516,0c0.271,0,0.291,0.02,0.291,0.29c0.006,1.081,0.006,2.162,0.006,3.243c0,0.079,0,0.151,0,0.284
			c0.258-0.284,0.502-0.508,0.811-0.646c1.332-0.62,3.059-0.217,3.705,1.385c0.58,1.417,0.527,2.828-0.33,4.146
			c-0.816,1.239-2.398,1.543-3.514,1.055c-0.328-0.145-0.613-0.355-0.83-0.659C39.127,15.569,39.105,15.517,39.027,15.503z
			 M41.994,12.919c0.012-0.355-0.041-0.712-0.199-1.041c-0.25-0.6-0.83-0.91-1.469-0.785c-0.555,0.105-0.988,0.626-1.01,1.246
			c-0.02,0.409-0.025,0.817,0,1.227c0.033,0.54,0.305,0.936,0.805,1.134c0.514,0.197,0.988,0.105,1.385-0.29
			C41.914,14,41.98,13.473,41.994,12.919z"/>
		<path fill="#FFFFFF" d="M25.382,10.282c0.277-0.25,0.541-0.468,0.857-0.62c1.18-0.567,2.808-0.218,3.289,1.404
			c0.105,0.356,0.172,0.718,0.172,1.087c0,1.306,0,2.598,0,3.89c0,0.29-0.006,0.29-0.283,0.29c-0.527,0-1.055,0-1.582,0
			c-0.27,0-0.283-0.014-0.283-0.277c0-1.134,0-2.28,0-3.414c0-0.185,0-0.383-0.04-0.567c-0.139-0.679-0.521-0.976-1.193-0.91
			c-0.527,0.053-0.936,0.541-0.936,1.134c0,1.199,0,2.412,0,3.625c0,0.436,0.04,0.409-0.416,0.409c-0.501,0-1.002,0-1.496,0.013
			c-0.171,0-0.244-0.053-0.244-0.237c0.007-3.124,0.007-6.236,0.007-9.36c0-0.171,0.053-0.244,0.23-0.237
			c0.554,0.006,1.107,0.006,1.668,0c0.198-0.007,0.25,0.079,0.25,0.27c-0.007,1.081,0,2.162,0,3.244
			C25.382,10.111,25.382,10.196,25.382,10.282z"/>
		<path fill="#FFFFFF" d="M14.966,15.661c-0.686,0.738-1.517,0.923-2.419,0.778c-0.877-0.132-1.523-0.752-1.701-1.569
			c-0.198-0.896,0.138-1.793,0.876-2.307c0.666-0.475,1.437-0.646,2.228-0.712c0.224-0.026,0.442-0.04,0.666-0.053
			c0.132,0,0.171-0.066,0.152-0.185c-0.046-0.277-0.191-0.475-0.455-0.581c-0.475-0.198-0.962-0.145-1.45-0.059
			c-0.343,0.053-0.679,0.165-0.989,0.323c-0.145,0.079-0.211,0.06-0.257-0.105c-0.085-0.33-0.185-0.659-0.283-0.982
			c-0.046-0.139-0.013-0.205,0.119-0.271c0.514-0.244,1.061-0.396,1.628-0.475c0.561-0.073,1.121-0.086,1.681,0.013
			c1.338,0.25,2.129,1.167,2.156,2.518c0.02,0.765,0.006,1.529,0.006,2.294c0,0.606,0.013,1.227,0.092,1.833
			c0.026,0.185-0.046,0.211-0.204,0.211c-0.495,0-0.982,0-1.477,0c-0.171,0.013-0.257-0.053-0.277-0.237
			C15.045,15.965,15.006,15.846,14.966,15.661z M14.861,13.71c-0.007-0.58,0.072-0.554-0.475-0.527c-0.02,0-0.039,0-0.065,0
			c-0.396,0.053-0.792,0.105-1.114,0.369c-0.277,0.251-0.33,0.554-0.244,0.896c0.073,0.304,0.29,0.448,0.574,0.501
			c0.224,0.04,0.441,0.014,0.646-0.079C14.722,14.633,14.894,14.185,14.861,13.71z"/>
		<path fill="#FFFFFF" d="M34.406,15.661c-0.33,0.356-0.686,0.606-1.115,0.712c-0.811,0.198-1.588,0.172-2.279-0.355
			c-0.93-0.712-1.043-2.241-0.244-3.111c0.541-0.58,1.232-0.817,1.977-0.976c0.41-0.079,0.832-0.119,1.246-0.132
			c0.211,0,0.252-0.053,0.197-0.264c-0.084-0.35-0.342-0.515-0.664-0.574c-0.752-0.145-1.471,0-2.162,0.31
			c-0.244,0.112-0.244,0.112-0.324-0.145c-0.092-0.303-0.172-0.606-0.264-0.903c-0.045-0.138-0.02-0.224,0.119-0.283
			c1.166-0.514,2.379-0.699,3.625-0.382c1.062,0.27,1.629,1.015,1.801,2.07c0.033,0.237,0.045,0.462,0.045,0.686
			c0,0.738,0,1.477,0,2.215c0,0.527,0.014,1.042,0.086,1.556c0.027,0.185-0.006,0.264-0.211,0.264
			c-0.488-0.013-0.969-0.013-1.449-0.013c-0.186,0.013-0.277-0.053-0.297-0.237C34.484,15.965,34.445,15.846,34.406,15.661z
			 M34.295,13.631c0-0.092,0-0.211,0-0.316c0-0.079-0.033-0.132-0.127-0.145c-0.539,0-1.074,0.039-1.516,0.382
			c-0.277,0.225-0.342,0.527-0.264,0.87c0.072,0.304,0.277,0.462,0.561,0.527c0.355,0.066,0.68-0.026,0.963-0.25
			C34.248,14.422,34.314,14.04,34.295,13.631z"/>
		<path fill="#FFFFFF" d="M51.736,13.645c-0.645,0-1.277,0-1.924,0c-0.252,0-0.277,0.039-0.186,0.276
			c0.145,0.396,0.463,0.633,0.844,0.791c0.463,0.172,0.938,0.185,1.412,0.158c0.447-0.039,0.883-0.105,1.305-0.237
			c0.131-0.039,0.172,0,0.197,0.132c0.066,0.356,0.133,0.726,0.211,1.081c0.039,0.146-0.014,0.211-0.145,0.264
			c-0.396,0.146-0.805,0.237-1.213,0.29c-0.857,0.105-1.715,0.132-2.545-0.132c-1.293-0.435-1.979-1.357-2.148-2.689
			c-0.146-1.067,0.064-2.057,0.725-2.92c0.619-0.811,1.463-1.2,2.465-1.253c0.727-0.033,1.398,0.079,1.992,0.508
			c0.777,0.547,1.107,1.345,1.238,2.255c0.053,0.408,0.039,0.817,0,1.226c-0.014,0.185-0.078,0.251-0.264,0.251
			C53.043,13.645,52.396,13.645,51.736,13.645L51.736,13.645z M50.775,12.142c0.328,0,0.658,0,0.988,0c0.014,0,0.025,0,0.039,0
			c0.092,0,0.172-0.014,0.186-0.146c0.039-0.408-0.305-0.936-0.699-1.081c-0.777-0.283-1.518,0.152-1.715,1.068
			c-0.039,0.145,0.066,0.158,0.172,0.158C50.102,12.142,50.432,12.142,50.775,12.142z"/>
		<path fill="#FFFFFF" d="M19.693,16.479c-0.659,0.014-1.325-0.105-1.971-0.369c-0.178-0.079-0.231-0.171-0.178-0.369
			c0.105-0.343,0.198-0.698,0.277-1.055c0.04-0.185,0.119-0.197,0.277-0.118c0.554,0.264,1.134,0.422,1.753,0.396
			c0.132-0.014,0.257-0.026,0.382-0.066c0.178-0.053,0.316-0.158,0.349-0.369c0.026-0.197-0.02-0.369-0.191-0.501
			c-0.244-0.185-0.521-0.264-0.798-0.355c-0.455-0.158-0.876-0.369-1.259-0.659c-0.989-0.778-0.732-2.09-0.172-2.709
			c0.554-0.6,1.259-0.837,2.044-0.89c0.652-0.04,1.285,0.072,1.905,0.29c0.185,0.072,0.264,0.158,0.197,0.362
			c-0.099,0.343-0.178,0.692-0.257,1.035c-0.033,0.145-0.092,0.165-0.224,0.112c-0.429-0.185-0.877-0.31-1.345-0.303
			c-0.165,0-0.33,0.026-0.481,0.105c-0.33,0.165-0.369,0.56-0.066,0.785c0.171,0.132,0.382,0.211,0.593,0.29
			c0.468,0.171,0.943,0.329,1.365,0.633c1.062,0.751,0.989,2.491-0.06,3.203C21.196,16.36,20.477,16.492,19.693,16.479z"/>
		<path fill="#FFFFFF" d="M46.924,11.423c0,1.536,0,3.078,0,4.621c0,0.29-0.012,0.29-0.303,0.29c-0.527,0-1.055,0-1.582,0.013
			c-0.197,0-0.277-0.053-0.277-0.264c0-3.098,0-6.196,0-9.294c0-0.205,0.066-0.284,0.277-0.277c0.541,0.006,1.082,0.006,1.621,0
			c0.186,0,0.264,0.059,0.252,0.257c0,1.556,0,3.105,0,4.661C46.912,11.423,46.912,11.423,46.924,11.423z"/>
	</g>
</g>
</svg>
