<?xml version="1.0" encoding="utf-8"?>
<!-- Generator: Adobe Illustrator 16.0.0, SVG Export Plug-In . SVG Version: 6.00 Build 0)  -->
<!DOCTYPE svg PUBLIC "-//W3C//DTD SVG 1.1//EN" "http://www.w3.org/Graphics/SVG/1.1/DTD/svg11.dtd">
<svg version="1.1" id="Layer_1" xmlns="http://www.w3.org/2000/svg" xmlns:xlink="http://www.w3.org/1999/xlink" x="0px" y="0px"
	 width="54px" height="23px" viewBox="0 0 54 23" enable-background="new 0 0 54 23" xml:space="preserve">
<g>
	<path fill="#FFFFFF" d="M13.856,9.53c1.068-0.666,2.36-0.066,3.487-0.461c-0.191,0.659-0.362,1.332-0.501,2.004
		c-0.382-0.6-1.061-0.962-1.779-0.745c-1.628,0.363-1.648,3.104-0.046,3.526c0.686,0.225,1.312-0.171,1.819-0.58
		c0.25,0.316,0.507,0.633,0.765,0.949c-1.219,0.989-3.144,1.107-4.324,0C11.944,12.957,12.195,10.406,13.856,9.53z"/>
	<path fill="#FFFFFF" d="M51.732,8.805c0.594-0.007,1.187,0.006,1.779,0c0,1.839,0.014,3.678,0,5.511
		c0.172,0.171,0.33,0.355,0.488,0.54c-0.738,0.014-1.49,0.014-2.229,0.026c0.146-0.185,0.304-0.382,0.462-0.554
		c0-1.661,0.013-3.309,0-4.963C52.115,9.227,51.864,8.95,51.732,8.805z"/>
	<path fill="#FFFFFF" d="M0.534,8.903c1.325,1.2,2.656,2.399,3.988,3.605c-0.105-1.094,0.356-2.373-0.448-3.276
		c0.718,0.026,1.444,0.013,2.168,0.02C6.078,9.444,5.919,9.635,5.755,9.82c0.006,1.799,0.006,3.585,0,5.378
		c-1.358-1.173-2.663-2.399-4.001-3.599c-0.013,0.896-0.006,1.806-0.013,2.702c0.171,0.185,0.343,0.383,0.508,0.567
		c-0.745,0-1.503,0-2.248,0c0.171-0.198,0.35-0.383,0.527-0.58C0.514,12.496,0.508,10.696,0.534,8.903z"/>
	<path fill="#FFFFFF" d="M17.765,9.259c0.778-0.02,1.556-0.013,2.34-0.013c-0.231,0.31-0.58,0.6-0.507,1.028
		c0.02,0.982-0.066,1.971,0.065,2.946c0.29,0.963,1.932,0.896,2.123-0.092c0.125-1.107,0.033-2.222,0.039-3.335
		c-0.125-0.139-0.389-0.402-0.521-0.534c0.778-0.02,1.562-0.013,2.34-0.013c-0.165,0.218-0.355,0.422-0.475,0.672
		c-0.138,1.2,0.132,2.432-0.138,3.619c-0.633,2.057-4.225,1.965-4.673-0.171c-0.178-1.187-0.033-2.386-0.079-3.58
		C18.154,9.662,17.896,9.398,17.765,9.259z"/>
	<path fill="#FFFFFF" d="M29.584,9.253c0.494-0.58,1.47,0.072,1.18,0.758c-0.224,0.837-1.654,0.435-1.41-0.435
		C29.412,9.497,29.531,9.332,29.584,9.253z"/>
	<g>
		<path fill="#FFFFFF" d="M6.526,9.266C7.805,9.259,9.09,9.2,10.375,9.279c0.765,0.02,1.417,0.679,1.384,1.45
			c0.066,0.527-0.422,0.863-0.725,1.219c0.31,0.231,0.712,0.416,0.857,0.797c0.389,0.857-0.23,1.951-1.167,2.057
			c-1.384,0.158-2.788,0.04-4.179,0.066c0.171-0.198,0.349-0.396,0.534-0.58c-0.006-1.477,0.006-2.966-0.006-4.45
			C6.935,9.694,6.664,9.411,6.526,9.266z M8.411,10.301c0,0.389-0.007,0.785-0.007,1.173c0.574-0.006,1.147,0,1.721,0.013
			c0.25-0.296,0.547-0.824,0.079-1.081C9.624,10.242,9.011,10.327,8.411,10.301z M8.404,12.456c0.007,0.436-0.02,0.87,0.033,1.306
			c0.508,0.211,1.141,0.053,1.681,0c0.594-0.014,0.758-1.002,0.185-1.187C9.69,12.391,9.037,12.47,8.404,12.456z"/>
	</g>
	<path fill="#FFFFFF" d="M25.543,11.566c0.561-0.593,1.615-0.91,2.241-0.257c0.877,1.015-0.138,2.61,0.851,3.572
		c-0.573,0-1.147-0.013-1.714,0c-0.026-0.83,0.053-1.674-0.046-2.491c-0.125-0.237-0.429-0.561-0.726-0.383
		c-0.916,0.343-0.415,1.556-0.547,2.308c0.178,0.185,0.343,0.369,0.514,0.566c-0.745-0.013-1.483-0.013-2.228,0
		c0.712-0.686,0.481-1.74,0.501-2.623c0.053-0.488-0.204-0.896-0.501-1.252c0.554,0.006,1.114,0.013,1.668,0.006
		C25.557,11.151,25.55,11.428,25.543,11.566z"/>
	<path fill="#FFFFFF" d="M28.951,11.02c0.594-0.013,1.187-0.007,1.779-0.013c0,1.107,0,2.214,0,3.322
		c0.165,0.185,0.33,0.356,0.502,0.541c-0.752,0-1.51,0-2.262,0c0.152-0.198,0.323-0.383,0.494-0.567
		c-0.013-0.909-0.013-1.819-0.013-2.735C29.281,11.389,29.123,11.21,28.951,11.02z"/>
	<path fill="#FFFFFF" d="M31.127,10.993c0.507,0.013,1.015,0.02,1.516,0.02c0.264,0.6,0.514,1.206,0.817,1.773
		c0.218-0.594,0.448-1.18,0.659-1.773c0.527,0.007,1.055-0.006,1.575,0c-1.009,1.232-1.522,2.762-2.268,4.146
		C32.616,13.788,32.102,12.259,31.127,10.993z"/>
	<g>
		<path fill="#FFFFFF" d="M36.742,11.079c0.732-0.191,1.668-0.237,2.229,0.363c0.514,0.475,0.481,1.213,0.594,1.846
			c-0.963,0.039-1.919,0-2.875,0.039c0.396,0.752,1.266,0.791,1.938,0.396c0.224,0.277,0.448,0.541,0.679,0.817
			c-0.89,0.475-2.01,0.699-2.92,0.146C35.062,13.894,35.286,11.586,36.742,11.079z M36.657,12.562c0.547,0,1.101,0.026,1.654,0.014
			c-0.093-0.172-0.264-0.501-0.35-0.666C37.382,11.791,36.928,12.048,36.657,12.562z"/>
	</g>
	<path fill="#FFFFFF" d="M41.528,11.619c0.422-0.541,1.042-0.745,1.714-0.639c-0.079,0.402-0.185,0.811-0.277,1.212
		c-0.447-0.053-1.12-0.283-1.305,0.304c-0.105,0.606-0.053,1.213-0.066,1.819c0.172,0.185,0.344,0.369,0.515,0.554
		c-0.751,0.013-1.503,0-2.268,0c0.165-0.185,0.329-0.383,0.501-0.554c0-0.91,0-1.819,0-2.736c-0.132-0.138-0.389-0.415-0.514-0.554
		c0.573-0.013,1.146-0.013,1.727-0.02C41.555,11.158,41.528,11.468,41.528,11.619z"/>
	<path fill="#FFFFFF" d="M44.429,11.039c0.817-0.158,1.661,0.086,2.466-0.178c-0.146,0.488-0.291,0.976-0.409,1.477
		c-0.501-0.488-1.213-0.58-1.858-0.316c0.54,0.554,1.424,0.396,2.004,0.87c0.566,0.487,0.382,1.463-0.251,1.819
		c-0.962,0.54-2.149,0.276-3.085-0.185c0.185-0.277,0.383-0.567,0.58-0.857c0.514,0.237,1.068,0.396,1.635,0.475
		c0.066-0.145,0.172-0.422,0.225-0.554c-0.699-0.224-1.596-0.171-2.057-0.844C43.295,12.101,43.717,11.204,44.429,11.039z"/>
	<g>
		<path fill="#FFFFFF" d="M47.487,11.514c0.831-0.606,1.964-0.731,2.9-0.369c1.081,0.653,0.62,2.116,0.698,3.157
			c0.158,0.185,0.316,0.369,0.462,0.567c-0.554,0-1.095,0-1.635,0.013c-0.026-0.092-0.053-0.25-0.079-0.329
			c-0.488,0.316-1.081,0.646-1.661,0.369c-0.738-0.225-1.028-1.227-0.515-1.807c0.527-0.606,1.411-0.461,2.123-0.606
			c0.211-0.956-1.187-0.553-1.648-0.25C47.922,12.008,47.698,11.764,47.487,11.514z M48.832,13.379
			c-0.436,0.251-0.026,0.884,0.396,0.738c0.487-0.026,0.58-0.566,0.712-0.936C49.57,13.234,49.162,13.208,48.832,13.379z"/>
	</g>
</g>
</svg>
