<?xml version="1.0" encoding="utf-8"?>
<!-- Generator: Adobe Illustrator 16.0.0, SVG Export Plug-In . SVG Version: 6.00 Build 0)  -->
<!DOCTYPE svg PUBLIC "-//W3C//DTD SVG 1.1//EN" "http://www.w3.org/Graphics/SVG/1.1/DTD/svg11.dtd" [
	<!ENTITY ns_extend "http://ns.adobe.com/Extensibility/1.0/">
	<!ENTITY ns_ai "http://ns.adobe.com/AdobeIllustrator/10.0/">
	<!ENTITY ns_graphs "http://ns.adobe.com/Graphs/1.0/">
	<!ENTITY ns_vars "http://ns.adobe.com/Variables/1.0/">
	<!ENTITY ns_imrep "http://ns.adobe.com/ImageReplacement/1.0/">
	<!ENTITY ns_sfw "http://ns.adobe.com/SaveForWeb/1.0/">
	<!ENTITY ns_custom "http://ns.adobe.com/GenericCustomNamespace/1.0/">
	<!ENTITY ns_adobe_xpath "http://ns.adobe.com/XPath/1.0/">
]>
<svg version="1.1" id="Layer_1" xmlns:x="&ns_extend;" xmlns:i="&ns_ai;" xmlns:graph="&ns_graphs;"
	 xmlns="http://www.w3.org/2000/svg" xmlns:xlink="http://www.w3.org/1999/xlink" x="0px" y="0px" width="54px" height="23px"
	 viewBox="0 0 54 23" enable-background="new 0 0 54 23" xml:space="preserve">
<metadata>
	<sfw  xmlns="&ns_sfw;">
		<slices></slices>
		<sliceSourceBounds  bottomLeftOrigin="true" height="17.353" width="53.348" y="1491.229" x="1472.826"></sliceSourceBounds>
	</sfw>
</metadata>
<g>
	<path fill="#FFFFFF" d="M11.064,4.196c0.631-0.217,1.247-0.474,1.843-0.778c-0.012,3.072,0.001,6.144-0.007,9.216
		c0.007,0.309-0.007,0.627,0.12,0.914c0.205,0.181,0.504,0.162,0.756,0.227c-0.009,0.06-0.026,0.177-0.037,0.238
		c-0.91-0.005-1.82-0.003-2.73,0c-0.001-0.062-0.005-0.184-0.006-0.245c0.245-0.071,0.542-0.062,0.727-0.261
		c0.174-0.365,0.13-0.784,0.159-1.175c0.003-2.171-0.001-4.338,0.003-6.508c-0.013-0.349,0.001-0.71-0.121-1.043
		C11.572,4.543,11.3,4.391,11.064,4.196z"/>
	<path fill="#FFFFFF" d="M29.285,3.982c1.014-0.727,2.599-0.746,3.485,0.189c0.279,0.271,0.474,0.931-0.018,1.091
		c-0.669,0.153-0.879-0.637-1.229-1.03c-0.455-0.622-1.421-0.41-1.852,0.135C28.907,5.3,28.54,6.477,28.178,7.607
		c0.533,0,1.066,0,1.602-0.004c-0.04,0.141-0.079,0.282-0.118,0.422c-0.54,0.022-1.08,0.025-1.621,0.03
		c-0.759,2.486-1.531,4.969-2.301,7.452c-0.479,1.448-0.943,2.969-1.973,4.131c-0.891,1.039-2.435,1.383-3.71,0.949
		c-0.523-0.173-1.015-0.687-0.874-1.273c0.114-0.487,0.9-0.588,1.113-0.132c0.179,0.352-0.131,0.943,0.36,1.104
		c0.897,0.363,1.867-0.222,2.318-1.001c0.914-1.477,1.326-3.188,1.867-4.821c0.663-2.148,1.358-4.283,1.995-6.436
		c-0.585,0-1.169,0-1.756,0c0.038-0.141,0.077-0.282,0.115-0.42c0.597,0,1.193,0,1.79,0C27.47,6.258,28.09,4.85,29.285,3.982z"/>
	<path fill="#FFFFFF" d="M1.133,7.816c0.961-0.61,2.208-0.39,3.179,0.087c0.003,0.582,0.029,1.17-0.068,1.748
		C3.896,9.164,3.836,8.503,3.373,8.094C2.933,7.667,2.197,7.576,1.679,7.912c-0.484,0.32-0.505,1.116-0.041,1.465
		c0.771,0.594,1.759,0.857,2.476,1.532c0.775,0.732,0.596,2.125-0.254,2.729c-1.021,0.752-2.461,0.645-3.534,0.055v-1.955
		c0.506,0.417,0.449,1.165,0.871,1.645c0.467,0.62,1.504,0.631,2.002,0.047c0.407-0.477,0.444-1.283-0.039-1.723
		c-0.709-0.669-1.75-0.855-2.416-1.582C0.148,9.446,0.37,8.279,1.133,7.816z"/>
	<g>
		<path fill="#FFFFFF" d="M6.26,8.21c0.862-0.591,1.982-0.989,3.019-0.667c0.582,0.215,0.72,0.891,0.736,1.44
			c0.03,1.313-0.001,2.627,0.012,3.942c0.015,0.211-0.017,0.497,0.242,0.571c0.369,0.01,0.436-0.432,0.628-0.655
			c0.259,0.725-0.521,1.452-1.238,1.283c-0.524-0.019-0.771-0.518-0.887-0.957c-0.505,0.454-1.08,0.902-1.774,0.988
			c-0.518,0.058-1.113-0.115-1.396-0.582c-0.356-0.596-0.192-1.413,0.319-1.868c0.825-0.765,1.937-1.096,2.963-1.496
			C8.861,9.57,8.961,8.913,8.819,8.285C8.513,7.63,7.583,7.82,7.072,8.113c-0.544,0.273-0.295,0.96-0.509,1.419
			c-0.192,0.516-1.168,0.447-1.152-0.158C5.437,8.86,5.879,8.497,6.26,8.21z M6.674,11.726c-0.479,0.485-0.206,1.389,0.439,1.565
			c0.627,0.275,1.241-0.144,1.738-0.49c0.001-0.746,0.003-1.493-0.001-2.237C8.091,10.872,7.262,11.127,6.674,11.726z"/>
	</g>
	<g>
		<path fill="#FFFFFF" d="M15.387,7.996c0.686-0.521,1.594-0.612,2.426-0.504c1.08,0.17,1.867,1.275,1.796,2.342
			c-0.193,0.092-0.41,0.083-0.618,0.087c-1.229-0.003-2.458-0.005-3.688-0.001c-0.093,0.881-0.028,1.854,0.553,2.572
			c0.662,0.89,2.084,1.16,2.954,0.417c0.357-0.255,0.486-0.767,0.925-0.907c-0.298,0.895-0.954,1.727-1.863,2.049
			c-0.953,0.271-2.074,0.074-2.807-0.62c-0.626-0.641-0.966-1.536-0.955-2.433C14.035,9.875,14.459,8.677,15.387,7.996z
			 M16.075,8.243c-0.377,0.31-0.543,0.786-0.721,1.225c0.978-0.01,1.96,0.068,2.932-0.06C18.211,8.98,18.158,8.5,17.817,8.189
			C17.343,7.728,16.549,7.835,16.075,8.243z"/>
	</g>
	<path fill="#FFFFFF" d="M21.212,7.763c0.958-0.538,2.155-0.333,3.094,0.146c0,0.563,0.02,1.126-0.034,1.687
		c-0.333-0.17-0.323-0.579-0.47-0.876c-0.277-0.753-1.184-1.248-1.947-0.905c-0.633,0.225-0.753,1.178-0.217,1.57
		c0.777,0.588,1.763,0.853,2.476,1.527c0.77,0.739,0.585,2.135-0.27,2.732c-1.017,0.748-2.439,0.629-3.512,0.063
		c0.002-0.633-0.016-1.265,0.018-1.896c0.479,0.241,0.368,0.909,0.666,1.312c0.324,0.713,1.292,0.951,1.933,0.523
		c0.626-0.402,0.768-1.415,0.213-1.934c-0.731-0.696-1.838-0.871-2.488-1.668C20.134,9.322,20.423,8.184,21.212,7.763z"/>
	<g>
		<path fill="#FFFFFF" d="M31.195,7.536c0.921-0.196,1.968-0.083,2.715,0.536c1.489,1.26,1.53,3.803,0.263,5.231
			c-1.017,1.066-2.841,1.167-4.009,0.292c-1.372-1.102-1.526-3.247-0.729-4.733C29.801,8.198,30.458,7.714,31.195,7.536z
			 M31.646,7.825c-0.539,0.128-0.933,0.586-1.136,1.083c-0.329,0.8-0.361,1.687-0.297,2.539c0.068,0.696,0.243,1.437,0.74,1.958
			c0.524,0.555,1.492,0.592,2.04,0.049c0.619-0.587,0.774-1.487,0.824-2.304c0.029-0.924-0.035-1.921-0.568-2.708
			C32.908,7.927,32.243,7.669,31.646,7.825z"/>
	</g>
	<path fill="#FFFFFF" d="M35.423,8.18c0.621-0.247,1.25-0.475,1.853-0.769c0,0.353,0.002,0.706-0.001,1.06
		c0.422-0.575,1.055-1.229,1.842-1.037c0.531,0.099,0.674,0.978,0.154,1.182c-0.415,0.057-0.784-0.194-1.19-0.221
		c-0.401,0.051-0.837,0.387-0.802,0.827c-0.006,1.237,0,2.472-0.003,3.708c0.024,0.253-0.031,0.602,0.257,0.728
		c0.257,0.069,0.524,0.073,0.787,0.101c-0.003,0.062-0.008,0.187-0.011,0.252c-0.981,0-1.961,0-2.942,0.003
		c-0.007-0.062-0.023-0.175-0.03-0.234c0.332-0.072,0.798-0.13,0.804-0.565c0.08-1.333,0.031-2.677,0.028-4.013
		C36.228,8.688,35.724,8.481,35.423,8.18z"/>
	<path fill="#FFFFFF" d="M41.212,7.757c1.201-0.599,3.02-0.39,3.68,0.9c0.316,0.467-0.158,1.142-0.7,0.899
		c-0.571-0.4-0.308-1.39-0.992-1.714c-0.786-0.288-1.681,0.17-2.086,0.862c-0.582,0.968-0.571,2.229-0.119,3.246
		c0.284,0.623,0.819,1.163,1.501,1.323c0.668,0.167,1.424-0.051,1.883-0.575c0.245-0.248,0.395-0.609,0.748-0.732
		c-0.245,0.745-0.739,1.421-1.404,1.84c-0.957,0.594-2.275,0.43-3.111-0.304C38.916,12.016,39.147,8.804,41.212,7.757z"/>
	<g>
		<path fill="#FFFFFF" d="M46.635,8.149c0.717-0.666,1.773-0.795,2.702-0.641c1.003,0.209,1.698,1.213,1.723,2.208
			c-0.028,0.249-0.352,0.178-0.52,0.204c-1.269,0-2.537-0.004-3.805-0.002c-0.084,0.879-0.033,1.85,0.546,2.564
			c0.615,0.827,1.878,1.14,2.762,0.568c0.472-0.253,0.639-0.836,1.122-1.065c-0.264,0.872-0.898,1.657-1.742,2.021
			c-0.922,0.322-2.018,0.162-2.782-0.449c-0.727-0.631-1.104-1.599-1.102-2.549C45.476,9.96,45.825,8.848,46.635,8.149z
			 M47.417,8.33c-0.325,0.305-0.469,0.735-0.625,1.139c0.97-0.013,1.943,0.062,2.91-0.053c-0.055-0.446-0.116-0.948-0.482-1.256
			C48.699,7.708,47.87,7.857,47.417,8.33z"/>
	</g>
	<g>
		<path fill="#FFFFFF" d="M52.627,8.882c-0.771-0.167-0.52-1.611,0.272-1.41c0.622-0.043,0.869,0.738,0.742,1.242V8.669
			c-0.001-0.021-0.003-0.062-0.003-0.083C53.351,8.846,53.018,9.074,52.627,8.882z M52.597,7.677l0.021,0.065
			c0.19,0.041,0.378,0.037,0.564-0.015C53.144,7.492,52.735,7.547,52.597,7.677z M52.525,7.721c-0.703,0.365,0.01,1.474,0.649,1.036
			c0.104-0.219-0.174-0.332-0.269-0.49c0.083-0.163,0.163-0.325,0.247-0.487c-0.096,0.026-0.289,0.08-0.386,0.107
			c0.077,0.295-0.005,0.577-0.146,0.838c-0.018-0.327,0.024-0.657-0.005-0.983L52.525,7.721z M53.182,7.728
			c-0.052,0.329-0.095,0.669,0.154,0.94C53.57,8.384,53.63,7.822,53.182,7.728z"/>
	</g>
</g>
</svg>
