<?xml version="1.0" encoding="utf-8"?>
<!-- Generator: Adobe Illustrator 16.0.0, SVG Export Plug-In . SVG Version: 6.00 Build 0)  -->
<!DOCTYPE svg PUBLIC "-//W3C//DTD SVG 1.1//EN" "http://www.w3.org/Graphics/SVG/1.1/DTD/svg11.dtd" [
	<!ENTITY ns_extend "http://ns.adobe.com/Extensibility/1.0/">
	<!ENTITY ns_ai "http://ns.adobe.com/AdobeIllustrator/10.0/">
	<!ENTITY ns_graphs "http://ns.adobe.com/Graphs/1.0/">
	<!ENTITY ns_vars "http://ns.adobe.com/Variables/1.0/">
	<!ENTITY ns_imrep "http://ns.adobe.com/ImageReplacement/1.0/">
	<!ENTITY ns_sfw "http://ns.adobe.com/SaveForWeb/1.0/">
	<!ENTITY ns_custom "http://ns.adobe.com/GenericCustomNamespace/1.0/">
	<!ENTITY ns_adobe_xpath "http://ns.adobe.com/XPath/1.0/">
]>
<svg version="1.1" id="Layer_1" xmlns:x="&ns_extend;" xmlns:i="&ns_ai;" xmlns:graph="&ns_graphs;"
	 xmlns="http://www.w3.org/2000/svg" xmlns:xlink="http://www.w3.org/1999/xlink" x="0px" y="0px" width="54px" height="23px"
	 viewBox="0 0 54 23" enable-background="new 0 0 54 23" xml:space="preserve">
<metadata>
	<sfw  xmlns="&ns_sfw;">
		<slices></slices>
		<sliceSourceBounds  bottomLeftOrigin="true" height="8.453" width="52.834" y="1496.274" x="1473.083"></sliceSourceBounds>
	</sfw>
</metadata>
<g>
	<g>
		<path fill="#FFFFFF" d="M35.353,7.334c0.97-0.104,1.985-0.102,2.91,0.243c1.24,0.506,2.108,1.748,2.254,3.067
			c0.051,0.494,0.054,0.992,0.025,1.487c-0.057,1.284-0.839,2.508-1.987,3.092c-0.942,0.511-2.049,0.56-3.094,0.464
			c-1.088-0.112-2.133-0.689-2.788-1.571c-0.563-0.834-0.699-1.881-0.665-2.868c0.048-0.842,0.223-1.727,0.758-2.404
			c0.421-0.514,0.918-1.004,1.553-1.238C34.65,7.471,34.999,7.383,35.353,7.334z M35.552,8.907
			c-0.361,0.107-0.713,0.296-0.964,0.583c-0.377,0.442-0.502,1.035-0.556,1.599c-0.064,0.736-0.019,1.527,0.374,2.173
			c0.323,0.546,0.941,0.875,1.568,0.899c0.623,0.029,1.307-0.051,1.806-0.461c0.521-0.436,0.723-1.141,0.732-1.798
			c0.014-0.714,0.034-1.484-0.338-2.122c-0.292-0.525-0.857-0.913-1.469-0.917C36.321,8.858,35.932,8.836,35.552,8.907z"/>
	</g>
	<path fill="#FFFFFF" d="M0.583,7.4c0.49-0.068,0.985-0.056,1.477-0.044C2.235,7.367,2.435,7.36,2.572,7.488
		C2.722,7.624,2.792,7.82,2.877,7.997c0.733,1.701,1.357,3.448,2.083,5.152c0.755-1.721,1.473-3.456,2.212-5.183
		C7.283,7.689,7.481,7.4,7.809,7.383c0.554-0.049,1.12-0.066,1.671,0.021c-1.213,2.719-2.433,5.435-3.654,8.148
		c-0.57,0.005-1.142,0.045-1.712,0.016c-0.121,0.012-0.199-0.08-0.229-0.188c-0.973-2.341-1.954-4.68-2.928-7.021
		C0.83,8.041,0.687,7.727,0.583,7.4z"/>
	<path fill="#FFFFFF" d="M10.741,7.347c0.638,0,1.275,0,1.913,0c0,2.772,0,5.544,0,8.315c-0.606-0.041-1.384,0.16-1.812-0.398
		c-0.093-0.246-0.048-0.521-0.072-0.779C10.721,12.106,10.749,9.726,10.741,7.347z"/>
	<g>
		<path fill="#FFFFFF" d="M14.993,7.337c1.772,0.029,3.547,0.007,5.318,0.093c0.802,0.008,1.62,0.442,1.962,1.188
			c0.291,0.558,0.268,1.203,0.3,1.815c0.026,1.036,0.04,2.075-0.05,3.109c-0.107,1-0.929,1.893-1.944,1.993
			c-1.186,0.109-2.38,0.132-3.569,0.074c-0.723-0.036-1.513-0.26-1.95-0.88c-0.678-0.993-0.628-2.435,0.126-3.372
			c0.447-0.558,1.203-0.686,1.875-0.728c1.208-0.062,2.419-0.037,3.629-0.043c-0.065-0.465-0.061-1.008-0.423-1.358
			c-0.322-0.306-0.796-0.274-1.208-0.298c-1.199-0.038-2.398-0.055-3.597-0.068c-0.165-0.164-0.378-0.32-0.406-0.567
			C15.012,7.978,15.012,7.656,14.993,7.337z M16.963,12.316c-0.359,0.215-0.422,0.696-0.326,1.069
			c0.06,0.251,0.218,0.535,0.504,0.56c0.754,0.112,1.521,0.128,2.282,0.092c0.383-0.042,0.859-0.125,1.038-0.517
			c0.194-0.437,0.178-0.927,0.234-1.39c-0.94,0.002-1.879,0-2.819,0.022C17.569,12.176,17.242,12.171,16.963,12.316z"/>
	</g>
	<path fill="#FFFFFF" d="M27.358,7.417c1.278-0.063,2.558-0.056,3.838-0.083c-0.011,0.339,0.029,0.685-0.044,1.019
		c-0.08,0.199-0.251,0.34-0.385,0.503c-0.938,0.026-1.879,0.033-2.816,0.08c-0.465,0.017-0.903,0.237-1.244,0.543
		c-0.421,0.394-0.534,0.994-0.571,1.546c-0.034,0.654-0.026,1.337,0.241,1.945c0.259,0.596,0.883,0.987,1.522,1.021
		c0.904,0.071,1.815,0.036,2.719,0.144c0.243,0.004,0.422,0.215,0.491,0.43c0.118,0.354,0.08,0.733,0.087,1.099
		c-0.932-0.005-1.865-0.005-2.796-0.027c-0.744-0.007-1.511-0.036-2.2-0.349c-0.937-0.388-1.642-1.233-1.914-2.202
		c-0.297-1.059-0.297-2.21,0.047-3.258c0.262-0.751,0.719-1.471,1.405-1.898C26.229,7.635,26.782,7.43,27.358,7.417z"/>
	<path fill="#FFFFFF" d="M42.159,7.347c0.983,0.011,1.968-0.027,2.949,0.031c0.381,0.012,0.505,0.428,0.643,0.713
		c0.716,1.683,1.358,3.395,2.033,5.096c0.625-1.439,1.22-2.892,1.846-4.328c0.202-0.435,0.382-0.884,0.63-1.294
		c0.123-0.193,0.375-0.196,0.578-0.205c0.859-0.025,1.719-0.008,2.579-0.013c0,2.747,0,5.496,0,8.241
		c-0.438-0.005-0.877,0.022-1.312-0.043c-0.295-0.04-0.537-0.311-0.52-0.615c-0.104-1.879-0.083-3.765-0.117-5.647
		c-0.935,2.089-1.867,4.18-2.802,6.27c-0.618,0.014-1.236,0.027-1.854,0.04c-0.906-2.152-1.805-4.31-2.705-6.466
		c-0.035,1.934-0.012,3.872-0.118,5.802c0.019,0.302-0.221,0.575-0.516,0.617c-0.435,0.065-0.876,0.038-1.314,0.043
		C42.159,12.843,42.159,10.094,42.159,7.347z"/>
</g>
</svg>
