<?xml version="1.0" encoding="utf-8"?>
<!-- Generator: Adobe Illustrator 16.0.0, SVG Export Plug-In . SVG Version: 6.00 Build 0)  -->
<!DOCTYPE svg PUBLIC "-//W3C//DTD SVG 1.1//EN" "http://www.w3.org/Graphics/SVG/1.1/DTD/svg11.dtd">
<svg version="1.1" id="Layer_1" xmlns="http://www.w3.org/2000/svg" xmlns:xlink="http://www.w3.org/1999/xlink" x="0px" y="0px"
	 width="54px" height="23px" viewBox="0 0 54 23" enable-background="new 0 0 54 23" xml:space="preserve">
<path fill="#FFFFFF" d="M10.835,17.174c0-0.723-0.089-1.355-0.361-1.898c-0.359-0.451-0.992-0.541-1.987-0.541H6.23v2.709h0.723
	c1.083,0,1.266-0.27,1.266-1.625h0.902v4.516H8.218c0-1.535-0.18-1.895-1.266-1.895H6.23v2.346c0,0.814,0.091,0.814,0.903,0.814
	h0.994v1.082H2.619V21.6h0.542c0.724,0,0.994-0.092,0.994-0.814c0-5.326,0,0,0-5.326c0-0.725-0.271-0.811-0.994-0.811H2.619v-0.994
	c9.21,0,0,0,9.21,0v3.52H10.835L10.835,17.174z"/>
<path fill="#FFFFFF" d="M31.604,20.152h-0.812c0,0.992,0,1.445-0.541,1.445c-0.269,0-0.542-0.273-0.542-0.812
	c0-0.18,0-0.361,0-0.453c-0.091-1.266-0.359-1.803-1.896-2.258c1.716-0.178,2.708-0.994,2.708-2.256
	c0-1.537-1.082-2.166-3.339-2.166h-6.23v0.992h0.722c0.814,0,0.905,0.09,0.905,0.811v5.328c0,0.633-0.361,0.814-0.905,0.814h-0.633
	c-0.542,0-0.813-0.182-1.083-0.814l-2.889-7.133h-2.168l-3.072,7.133c-0.271,0.633-0.452,0.814-1.174,0.814h-0.361v1.08h4.696v-1.08
	h-0.994c-0.453,0-0.724,0-0.724-0.273c0-0.094,0.091-0.271,0.181-0.453l0.452-1.084h3.432l0.451,0.996
	c0.091,0.176,0.091,0.359,0.091,0.447c0,0.363-0.272,0.363-0.723,0.363h-0.994v1.084h10.204v-1.084h-0.813
	c-0.813,0-0.904,0-0.904-0.811v-2.35h0.904c1.534,0,1.988,0.273,2.076,1.805v0.992c0.091,1.266,0.905,1.625,2.167,1.625
	c1.084,0,1.805-0.629,1.805-2.346C31.604,20.424,31.604,20.242,31.604,20.152z M14.268,18.709l1.444-3.434l1.355,3.434H14.268z
	 M26.549,17.352l-1.897,0.092v-2.797h1.897c1.264,0,1.898,0.359,1.898,1.354v0.092C28.443,16.992,27.812,17.352,26.549,17.352z"/>
<path fill="#FFFFFF" d="M39.643,16.541c-0.451-1.355-1.354-1.988-2.798-1.988s-2.62,1.174-2.62,3.521c0,2.35,0.903,3.523,2.62,3.611
	c1.174,0,2.256-0.629,2.256-1.621V19.52c0-0.633-0.091-0.633-0.992-0.633h-0.453v-0.99H41.9v0.99h-0.36
	c-0.632,0-0.724,0-0.724,0.729v2.98h-0.812l-0.453-0.725c-0.812,0.631-1.987,0.992-3.07,0.992c-1.264,0-2.256-0.453-3.07-1.354
	c-0.899-0.904-1.443-2.074-1.443-3.436c0-1.441,0.453-2.527,1.356-3.426c0.812-0.812,1.985-1.176,3.251-1.176
	c0.992,0,2.167,0.273,2.799,0.992l0.451-0.992h0.726v3.07h-0.907V16.541z"/>
<path fill="#FFFFFF" d="M47.859,22.77c-2.979,0-5.327-1.805-5.327-4.695c0-2.799,2.348-4.605,5.327-4.605
	c2.979,0,5.237,1.805,5.237,4.697C53.099,20.965,50.839,22.77,47.859,22.77z M50.932,18.166c0-3.25-2.169-3.613-3.072-3.613
	c-1.714,0-3.069,1.266-3.069,3.613c0,2.346,1.355,3.611,3.069,3.611C48.763,21.777,50.932,21.326,50.932,18.166z"/>
<path fill="#FFFFFF" d="M33.683,7.419c-0.271,0.542-0.903,0.633-1.987,0.633h-2.256v-6.05c0-0.723,0.178-0.813,1.082-0.813h0.633
	V0.106h-5.417v1.083h0.452c0.813,0,1.264,0,1.264,0.813V7.33c0,0.723-0.359,0.812-1.173,0.812h-0.452v0.994h9.302V5.524
	c0,0-0.903,0-1.084,0C34.045,6.336,33.954,6.878,33.683,7.419z"/>
<path fill="#FFFFFF" d="M21.854,8.052h-2.89V4.983h0.633c1.083,0,1.264,0.179,1.355,1.714h0.992V2.181h-0.992
	c-0.092,1.355-0.272,1.717-1.355,1.717h-0.633v-2.71h2.439c1.805,0,2.349,0.359,2.438,2.438h0.994v-3.52c-9.481,0-0.541,0-8.938,0
	h-4.428v1.083h0.633c0.542,0,0.723,0.09,0.723,0.361c0,0.18,0,0.361-0.092,0.723l-1.713,4.514c0,0,0,0-0.091,0
	C10.117,4.529,9.032,1.91,9.032,1.91C8.94,1.729,8.94,1.638,8.94,1.548c0-0.271,0.181-0.361,0.633-0.361h0.723V0.106H5.512v1.083
	h0.633c0.722,0,0.994,0.361,1.083,1.083L5.422,6.788c0,0,0,0-0.089,0C4.52,4.35,3.436,1.822,3.436,1.822c-0.09-0.09,0-0.181,0-0.271
	c-0.09-0.272,0.18-0.361,0.722-0.361H4.52V0.106H0v1.083h0.181c0.633,0,1.172,0.361,1.444,1.172l2.708,6.772h1.625l1.987-4.967
	l2.077,4.967h1.625l2.53-6.863c0.362-0.814,0.542-1.083,1.354-1.083h0.091c0.814,0,1.264,0,1.264,0.812c0,5.329,0,0,0,5.329
	c0,0.722-0.45,0.812-1.264,0.812h-0.542v0.994h9.933V5.522h-1.083C23.839,7.33,23.479,8.052,21.854,8.052z"/>
<path fill="#FFFFFF" d="M43.707,5.522c0,0.813-0.093,1.355-0.362,1.897c-0.271,0.542-0.903,0.633-1.987,0.633h-2.166v-6.05
	c0-0.723,0.178-0.813,0.992-0.813h0.724V0.106h-5.509v1.083h0.633c0.722,0,1.082,0,1.082,0.813V7.33
	c0,0.723-0.271,0.812-1.082,0.812H35.85v0.994h8.94V5.524C44.79,5.522,43.887,5.522,43.707,5.522z"/>
<path fill="#FFFFFF" d="M54,6.515c0,2.077-1.625,2.8-3.972,2.8c-1.443,0-2.891-0.813-3.161-1.085l-0.362,0.903h-0.903V5.521h1.087
	c0.27,1.715,1.441,2.438,3.069,2.528c1.444,0.089,2.439-0.272,2.528-1.264c0.18-1.174-1.084-1.083-2.165-1.264l-1.536-0.272
	c-2.258-0.452-3.068-1.083-3.068-2.619c-0.093-1.625,1.441-2.708,3.429-2.708c0.994,0,2.258,0.181,3.161,0.905l0.453-0.724h0.811
	v3.161h-0.993c-0.18-1.715-1.989-2.258-3.432-2.258c-1.086,0.091-1.719,0.633-1.719,1.355c0,0.723,0.633,0.813,1.445,0.994
	l1.897,0.272C52.557,3.987,54,4.35,54,6.515z"/>
</svg>
