<?xml version="1.0" encoding="utf-8"?>
<!-- Generator: Adobe Illustrator 16.0.0, SVG Export Plug-In . SVG Version: 6.00 Build 0)  -->
<!DOCTYPE svg PUBLIC "-//W3C//DTD SVG 1.1//EN" "http://www.w3.org/Graphics/SVG/1.1/DTD/svg11.dtd">
<svg version="1.1" id="Layer_1" xmlns="http://www.w3.org/2000/svg" xmlns:xlink="http://www.w3.org/1999/xlink" x="0px" y="0px"
	 width="83px" height="198px" viewBox="0 0 83 198" enable-background="new 0 0 83 198" xml:space="preserve">
<rect x="0.292" y="-0.167" fill="#3E7977" width="9.333" height="9.333"/>
<rect x="35.542" y="-0.167" fill="#3E7977" width="9.333" height="9.333"/>
<rect x="59.041" y="-0.167" fill="#3E7977" width="9.334" height="9.333"/>
<rect x="35.542" y="14.083" fill="#3E7977" width="9.333" height="9.333"/>
<rect x="59.041" y="14.083" fill="#3E7977" width="9.334" height="9.333"/>
<rect x="0.292" y="28.333" fill="#3E7977" width="9.333" height="9.333"/>
<rect x="12.042" y="28.333" fill="#3E7977" width="9.333" height="9.333"/>
<rect x="47.291" y="28.333" fill="#3E7977" width="9.334" height="9.333"/>
<rect x="0.292" y="42.583" fill="#3E7977" width="9.333" height="9.333"/>
<rect x="35.542" y="42.583" fill="#3E7977" width="9.333" height="9.333"/>
<rect x="59.041" y="42.583" fill="#3E7977" width="9.334" height="9.333"/>
<rect x="12.042" y="56.833" fill="#3E7977" width="9.333" height="9.333"/>
<rect x="35.542" y="56.833" fill="#3E7977" width="9.333" height="9.333"/>
<rect x="0.292" y="71.083" fill="#3E7977" width="9.333" height="9.333"/>
<rect x="12.042" y="71.083" fill="#3E7977" width="9.333" height="9.333"/>
<rect x="59.041" y="71.083" fill="#3E7977" width="9.334" height="9.333"/>
<rect x="0.292" y="85.333" fill="#3E7977" width="9.333" height="9.333"/>
<rect x="23.792" y="85.333" fill="#3E7977" width="9.333" height="9.333"/>
<rect x="35.542" y="85.333" fill="#3E7977" width="9.333" height="9.333"/>
<rect x="0.292" y="99.583" fill="#3E7977" width="9.333" height="9.334"/>
<rect x="12.042" y="99.583" fill="#3E7977" width="9.333" height="9.334"/>
<rect x="0.292" y="113.834" fill="#3E7977" width="9.333" height="9.334"/>
<rect x="12.042" y="113.834" fill="#3E7977" width="9.333" height="9.334"/>
<rect x="0.292" y="128.084" fill="#3E7977" width="9.333" height="9.334"/>
<rect x="59.041" y="128.084" fill="#3E7977" width="9.334" height="9.334"/>
<rect x="23.792" y="142.334" fill="#3E7977" width="9.333" height="9.334"/>
<rect x="35.542" y="142.334" fill="#3E7977" width="9.333" height="9.334"/>
<rect x="0.292" y="156.584" fill="#3E7977" width="9.333" height="9.334"/>
<rect x="12.042" y="156.584" fill="#3E7977" width="9.333" height="9.334"/>
<rect x="59.041" y="156.584" fill="#3E7977" width="9.334" height="9.334"/>
<rect y="170.168" fill="#3E7977" width="9.333" height="9.334"/>
<rect x="35.542" y="184.5" fill="#3E7977" width="9.333" height="9.334"/>
<rect x="47.291" y="184.5" fill="#3E7977" width="9.334" height="9.334"/>
<rect x="59.041" y="184.5" fill="#3E7977" width="9.334" height="9.334"/>
<rect x="71.375" y="14.083" fill="#3E7977" width="9.334" height="9.333"/>
<rect x="71.375" y="42.583" fill="#3E7977" width="9.334" height="9.333"/>
<rect x="71.375" y="56.833" fill="#3E7977" width="9.334" height="9.333"/>
<rect x="71.375" y="99.583" fill="#3E7977" width="9.334" height="9.334"/>
<rect x="71.375" y="113.834" fill="#3E7977" width="9.334" height="9.334"/>
<rect x="71.375" y="128.084" fill="#3E7977" width="9.334" height="9.334"/>
<rect x="71.375" y="156.584" fill="#3E7977" width="9.334" height="9.334"/>
<rect x="71.082" y="170.168" fill="#3E7977" width="9.334" height="9.334"/>
</svg>
