<?xml version="1.0" encoding="utf-8"?>
<!-- Generator: Adobe Illustrator 16.0.0, SVG Export Plug-In . SVG Version: 6.00 Build 0)  -->
<!DOCTYPE svg PUBLIC "-//W3C//DTD SVG 1.1//EN" "http://www.w3.org/Graphics/SVG/1.1/DTD/svg11.dtd">
<svg version="1.1" id="Layer_1" xmlns="http://www.w3.org/2000/svg" xmlns:xlink="http://www.w3.org/1999/xlink" x="0px" y="0px"
	 width="1000px" height="1000px" viewBox="0 0 1000 1000" enable-background="new 0 0 1000 1000" xml:space="preserve">
<path fill="#EE6F55" d="M217.659,318.208l7.027,5.087l-7.061,5.112l-7.027-5.087L217.659,318.208z"/>
<path fill="#EE6F55" d="M243.66,71.208l7.026,5.087l-7.061,5.112l-7.026-5.087L243.66,71.208z"/>
<path fill="#EE6F55" d="M439.777,645.101l6.224,4.306l-6.254,4.325L439.777,645.101z"/>
<path fill="#EE6F55" d="M768.504,692.177l6.225,4.306l-6.256,4.325L768.504,692.177z"/>
<path fill="#EE6F55" d="M858.525,430.254l6.225,4.305l-6.254,4.325L858.525,430.254z"/>
<path fill="#EE6F55" d="M136.526,636.254l6.224,4.305l-6.254,4.325L136.526,636.254z"/>
<path fill="#EE6F55" d="M484.526,438.254l6.224,4.305l-6.254,4.325L484.526,438.254z"/>
<path fill="#EE6F55" d="M484.526,438.254l6.224,4.305l-6.254,4.325L484.526,438.254z"/>
<path fill="#EE6F55" d="M584.525,589.254l6.225,4.305l-6.254,4.325L584.525,589.254z"/>
<path fill="#EE6F55" d="M250.743,570.869l7.026,5.088l-7.061,5.112l-7.026-5.088L250.743,570.869z"/>
<path fill="#EE6F55" d="M761.246,156.869l7.025,5.087l-7.062,5.112l-7.025-5.088L761.246,156.869z"/>
<path fill="#EE6F55" d="M356.085,409.762l7.027,5.087l-7.062,5.112l-7.026-5.087L356.085,409.762z"/>
<path fill="#EE6F55" d="M338.085,232.762l7.027,5.087l-7.062,5.112l-7.026-5.087L338.085,232.762z"/>
<path fill="#EE6F55" d="M525.086,36.762l7.026,5.087l-7.062,5.112l-7.025-5.087L525.086,36.762z"/>
<path fill="#EE6F55" d="M491.086,286.762l7.026,5.087l-7.062,5.112l-7.026-5.087L491.086,286.762z"/>
<path fill="#EE6F55" d="M80.085,357.761l7.027,5.088l-7.061,5.112l-7.027-5.087L80.085,357.761z"/>
<path fill="#EE6F55" d="M92.867,134.069l7.026,5.087l-7.061,5.112l-7.026-5.087L92.867,134.069z"/>
<path fill="#EE6F55" d="M742.834,392.192l-7.025,5.088l7.062,5.11l7.024-5.088L742.834,392.192z"/>
<path fill="#EE6F55" d="M148.834,458.192l-7.027,5.088l7.061,5.11l7.027-5.088L148.834,458.192z"/>
<path fill="#EE6F55" d="M148.834,458.192l-7.027,5.088l7.061,5.11l7.027-5.088L148.834,458.192z"/>
<path fill="#EE6F55" d="M243.66,795.247l7.026,5.087l-7.061,5.112l-7.026-5.087L243.66,795.247z"/>
<path fill="#EE6F55" d="M761.246,880.908l7.025,5.088l-7.062,5.111l-7.025-5.088L761.246,880.908z"/>
<path fill="#EE6F55" d="M482.085,910.208l7.027,5.088l-7.062,5.111l-7.026-5.088L482.085,910.208z"/>
<path fill="#EE6F55" d="M525.086,760.801l7.026,5.088L525.052,771l-7.025-5.087L525.086,760.801z"/>
<path fill="#EE6F55" d="M92.867,858.108l7.026,5.087l-7.061,5.111l-7.026-5.087L92.867,858.108z"/>
<path fill="#EE6F55" d="M807.877,960.623l-7.025,5.087l7.062,5.112l7.024-5.087L807.877,960.623z"/>
</svg>
