<?xml version="1.0" encoding="utf-8"?>
<!-- Generator: Adobe Illustrator 16.0.0, SVG Export Plug-In . SVG Version: 6.00 Build 0)  -->
<!DOCTYPE svg PUBLIC "-//W3C//DTD SVG 1.1//EN" "http://www.w3.org/Graphics/SVG/1.1/DTD/svg11.dtd">
<svg version="1.1" id="Layer_1" xmlns="http://www.w3.org/2000/svg" xmlns:xlink="http://www.w3.org/1999/xlink" x="0px" y="0px"
	 width="1000px" height="1000px" viewBox="0 0 1000 1000" enable-background="new 0 0 1000 1000" xml:space="preserve">
<path fill-rule="evenodd" clip-rule="evenodd" fill="#FACC5E" d="M22.777,670.101l6.225,4.305l-6.254,4.325L22.777,670.101z"/>
<path fill-rule="evenodd" clip-rule="evenodd" fill="#FACC5E" d="M147.837,709.438l6.224,4.305l-6.254,4.326L147.837,709.438z"/>
<path fill-rule="evenodd" clip-rule="evenodd" fill="#FACC5E" d="M58.916,233.054l6.225,4.305l-6.255,4.326L58.916,233.054z"/>
<path fill-rule="evenodd" clip-rule="evenodd" fill="#FACC5E" d="M335.955,167.285l6.225,4.305l-6.255,4.326L335.955,167.285z"/>
<path fill-rule="evenodd" clip-rule="evenodd" fill="#FACC5E" d="M940.693,679.623l6.225,4.306l-6.254,4.324L940.693,679.623z"/>
<path fill-rule="evenodd" clip-rule="evenodd" fill="#FACC5E" d="M53.99,562.407l6.224,4.305l-6.254,4.326L53.99,562.407z"/>
<path fill-rule="evenodd" clip-rule="evenodd" fill="#FACC5E" d="M395.526,504.254l6.224,4.305l-6.254,4.325L395.526,504.254z"/>
<path fill-rule="evenodd" clip-rule="evenodd" fill="#FACC5E" d="M354.526,322.254l6.224,4.305l-6.254,4.326L354.526,322.254z"/>
<path fill-rule="evenodd" clip-rule="evenodd" fill="#FACC5E" d="M263.526,460.254l6.225,4.305l-6.255,4.325L263.526,460.254z"/>
<path fill-rule="evenodd" clip-rule="evenodd" fill="#FACC5E" d="M609.525,447.254l6.225,4.305l-6.254,4.325L609.525,447.254z"/>
<path fill-rule="evenodd" clip-rule="evenodd" fill="#FACC5E" d="M609.525,447.254l6.225,4.305l-6.254,4.325L609.525,447.254z"/>
<path fill-rule="evenodd" clip-rule="evenodd" fill="#FACC5E" d="M16.526,449.254l6.225,4.305l-6.255,4.325L16.526,449.254z"/>
<path fill-rule="evenodd" clip-rule="evenodd" fill="#FACC5E" d="M345.526,57.254l6.225,4.305l-6.255,4.325L345.526,57.254z"/>
<path fill-rule="evenodd" clip-rule="evenodd" fill="#FACC5E" d="M754.525,28.254l6.225,4.305l-6.254,4.326L754.525,28.254z"/>
<path fill-rule="evenodd" clip-rule="evenodd" fill="#FACC5E" d="M583.086,211.762l7.026,5.087l-7.061,5.112l-7.026-5.087
	L583.086,211.762z"/>
<path fill-rule="evenodd" clip-rule="evenodd" fill="#FACC5E" d="M636.086,96.762l7.027,5.087l-7.061,5.112l-7.027-5.087
	L636.086,96.762z"/>
<path fill-rule="evenodd" clip-rule="evenodd" fill="#FACC5E" d="M605.086,334.762l7.027,5.087l-7.061,5.112l-7.027-5.087
	L605.086,334.762z"/>
<path fill-rule="evenodd" clip-rule="evenodd" fill="#FACC5E" d="M482.085,143.762l7.027,5.087l-7.061,5.112l-7.027-5.087
	L482.085,143.762z"/>
<path fill-rule="evenodd" clip-rule="evenodd" fill="#FACC5E" d="M782.086,587.761l7.027,5.088l-7.061,5.112l-7.027-5.087
	L782.086,587.761z"/>
<path fill-rule="evenodd" clip-rule="evenodd" fill="#FACC5E" d="M689.086,493.761l7.027,5.088l-7.061,5.112l-7.027-5.087
	L689.086,493.761z"/>
<path fill-rule="evenodd" clip-rule="evenodd" fill="#FACC5E" d="M196.867,181.069l7.027,5.087l-7.061,5.112l-7.026-5.087
	L196.867,181.069z"/>
<path fill-rule="evenodd" clip-rule="evenodd" fill="#FACC5E" d="M955.867,51.069l7.027,5.087l-7.062,5.112l-7.025-5.087
	L955.867,51.069z"/>
<path fill-rule="evenodd" clip-rule="evenodd" fill="#FACC5E" d="M304.834,655.192l-7.027,5.088l7.061,5.111l7.027-5.088
	L304.834,655.192z"/>
<path fill-rule="evenodd" clip-rule="evenodd" fill="#FACC5E" d="M923.834,152.192l-7.025,5.087l7.061,5.112l7.025-5.087
	L923.834,152.192z"/>
<path fill-rule="evenodd" clip-rule="evenodd" fill="#FACC5E" d="M923.504,506.73l-7.025,5.088l7.061,5.112l7.027-5.088
	L923.504,506.73z"/>
<path fill-rule="evenodd" clip-rule="evenodd" fill="#FACC5E" d="M554.533,700.501l-7.026,5.086l7.061,5.112l7.026-5.087
	L554.533,700.501z"/>
<path fill-rule="evenodd" clip-rule="evenodd" fill="#FACC5E" d="M965.283,318.115l-7.027,5.088l7.061,5.112l7.027-5.087
	L965.283,318.115z"/>
<path fill-rule="evenodd" clip-rule="evenodd" fill="#FACC5E" d="M58.916,957.093l6.225,4.305l-6.255,4.325L58.916,957.093z"/>
<path fill-rule="evenodd" clip-rule="evenodd" fill="#FACC5E" d="M301.754,957.093l6.225,4.305l-6.255,4.325L301.754,957.093z"/>
<path fill-rule="evenodd" clip-rule="evenodd" fill="#FACC5E" d="M976.525,961.293l6.225,4.305l-6.254,4.326L976.525,961.293z"/>
<path fill-rule="evenodd" clip-rule="evenodd" fill="#FACC5E" d="M345.928,747.979l6.225,4.305l-6.255,4.325L345.928,747.979z"/>
<path fill-rule="evenodd" clip-rule="evenodd" fill="#FACC5E" d="M42.085,780.801l7.027,5.088L42.052,791l-7.027-5.087
	L42.085,780.801z"/>
<path fill-rule="evenodd" clip-rule="evenodd" fill="#FACC5E" d="M583.086,935.801l7.026,5.088L583.052,946l-7.026-5.088
	L583.086,935.801z"/>
<path fill-rule="evenodd" clip-rule="evenodd" fill="#FACC5E" d="M636.086,820.801l7.027,5.088L636.053,831l-7.027-5.087
	L636.086,820.801z"/>
<path fill-rule="evenodd" clip-rule="evenodd" fill="#FACC5E" d="M432.72,839.912l7.027,5.088l-7.061,5.111l-7.027-5.088
	L432.72,839.912z"/>
<path fill-rule="evenodd" clip-rule="evenodd" fill="#FACC5E" d="M196.867,905.108l7.027,5.087l-7.061,5.112l-7.026-5.087
	L196.867,905.108z"/>
<path fill-rule="evenodd" clip-rule="evenodd" fill="#FACC5E" d="M955.867,775.108l7.027,5.087l-7.062,5.112l-7.025-5.087
	L955.867,775.108z"/>
<path fill-rule="evenodd" clip-rule="evenodd" fill="#FACC5E" d="M923.834,876.231l-7.025,5.087l7.061,5.112l7.025-5.087
	L923.834,876.231z"/>
</svg>
