<?xml version="1.0" encoding="utf-8"?>
<!-- Generator: Adobe Illustrator 16.0.0, SVG Export Plug-In . SVG Version: 6.00 Build 0)  -->
<!DOCTYPE svg PUBLIC "-//W3C//DTD SVG 1.1//EN" "http://www.w3.org/Graphics/SVG/1.1/DTD/svg11.dtd">
<svg version="1.1" id="Layer_1" xmlns="http://www.w3.org/2000/svg" xmlns:xlink="http://www.w3.org/1999/xlink" x="0px" y="0px"
	 width="104px" height="104px" viewBox="0 0 104 104" enable-background="new 0 0 104 104" xml:space="preserve">
<g>
	<g>
		<g>
			<path fill="#FBD397" d="M50.834,1.018c0.774-0.014,1.548-0.014,2.324,0c3.439,0.084,6.875,0.448,10.236,1.182
				c6.509,1.394,12.708,4.188,18.082,8.117c3.629,2.612,6.872,5.727,9.798,9.099c-0.785,0.174-1.579,0.338-2.325,0.652
				c-2.116,0.938-3.798,2.828-4.441,5.056c-0.358,1.184-0.384,2.445-0.24,3.666c0.378,2.753,2.33,5.213,4.907,6.241
				c2.979,1.211,6.673,0.552,8.923-1.792c0.358-0.39,0.672-0.818,0.988-1.244c2.97,6.997,4.138,14.664,3.879,22.239
				c-2.659-1.602-5.783-2.382-8.881-2.224c-3.604,0.134-7.121,1.652-9.73,4.131c-2.43,2.276-4.069,5.378-4.583,8.667
				c-0.476,3.178-0.051,6.52,1.42,9.393c2.222,4.49,6.783,7.766,11.782,8.283c-3.77,4.817-8.245,9.093-13.334,12.494
				c-0.074-1.407-0.387-2.839-1.21-4.012c-1.242-1.854-3.392-3.053-5.617-3.155c-0.814-0.042-1.622,0.084-2.424,0.208
				c0.084-1.415-0.194-2.936-1.244-3.965c-1.374-1.548-3.762-1.832-5.573-0.928c-0.948,0.575-1.75,1.432-2.115,2.491
				c-0.637,1.733-0.137,3.827,1.279,5.033c0.828,0.786,1.964,1.104,3.078,1.196c-0.872,2.053-0.88,4.525,0.237,6.491
				c0.468,0.89,1.19,1.604,1.948,2.253c-9.729,3.018-20.315,3.184-30.146,0.542c-0.029-1.51-0.544-3.062-1.715-4.067
				c-1.267-1.159-3.094-1.491-4.744-1.157c-1.034,0.264-1.928,0.882-2.664,1.638c-4.409-2.322-8.443-5.31-12.044-8.747
				c0.568-0.416,1.14-0.838,1.627-1.346c2.714-2.796,2.81-7.663,0.15-10.525c-2.089-2.421-5.713-3.133-8.661-2.02
				c-0.988,0.378-1.848,1.01-2.622,1.718c-1.51-2.775-2.788-5.677-3.773-8.681c2.981-1.686,5.415-4.468,6.329-7.805
				c0.836-3.132,0.576-6.605-0.96-9.481c-1.544-2.881-4.195-5.137-7.269-6.239c0.942-6.715,3.251-13.23,6.829-18.994
				c4.377,2.044,9.915,1.438,13.612-1.724c2.164-1.842,3.821-4.348,4.379-7.157c0.548-2.74,0.284-5.659-0.904-8.201
				c1.542-0.924,3.104-1.82,4.731-2.583C36.588,2.67,43.715,1.162,50.834,1.018z M48.717,9.079l-0.055,0.082
				c-3.396,1.538-5.795,5.093-5.856,8.834c-0.132,2.526,0.733,5.085,2.388,7.001c1.819,2.166,4.564,3.551,7.404,3.604
				c2.588,0.124,5.243-0.768,7.144-2.548c0.733-0.552,1.273-1.346,1.819-2.08c1.562-2.302,1.978-5.264,1.374-7.953
				c-0.636-2.819-2.613-5.243-5.121-6.633C55.039,7.877,51.603,7.873,48.717,9.079z M13.365,34.552
				c-2.346,2.175-2.83,5.985-1.232,8.729c0.872,1.546,2.358,2.692,4.04,3.228c-0.668,1.182-1.1,2.524-0.952,3.896
				c0.144,2.476,2.012,4.688,4.389,5.338c2.414,0.741,5.229-0.128,6.759-2.146c1.528-1.938,1.656-4.832,0.334-6.908
				c-0.656-1.094-1.704-1.892-2.858-2.402c0.748-1.104,1.392-2.324,1.51-3.673c0.312-2.346-0.59-4.827-2.421-6.345
				C20.282,31.944,15.871,32.06,13.365,34.552z M36.512,67.073l-0.052,0.08c-3.394,1.542-5.793,5.096-5.853,8.837
				c-0.128,2.484,0.704,5.002,2.308,6.903c1.821,2.222,4.605,3.647,7.488,3.699c2.584,0.122,5.237-0.766,7.134-2.546
				c0.865-0.693,1.544-1.634,2.133-2.575c1.416-2.401,1.677-5.396,0.912-8.056c-0.779-2.611-2.705-4.818-5.091-6.103
				C42.735,65.867,39.355,65.886,36.512,67.073z"/>
		</g>
	</g>
	<g>
		<path fill="#CFAD78" d="M48.717,9.079c2.886-1.206,6.322-1.202,9.097,0.308c2.508,1.39,4.485,3.813,5.121,6.633
			c0.604,2.689,0.188,5.651-1.374,7.953c-0.546,0.734-1.086,1.528-1.819,2.08c-1.444,0.216-2.874,0.662-4.35,0.524
			c-3.332-0.18-6.489-2.125-8.171-5.001c-1.682-2.819-1.863-6.455-0.476-9.431c0.46-1.104,1.294-1.979,1.917-2.983L48.717,9.079z"/>
		<path fill="#CFAD78" d="M10.116,22.739c4.146-5.687,9.312-10.687,15.308-14.394c1.188,2.542,1.452,5.461,0.904,8.201
			c-0.558,2.81-2.216,5.315-4.379,7.157c-1.142,0.134-2.202,0.624-3.342,0.76C15.681,24.937,12.669,24.177,10.116,22.739z"/>
		<path fill="#CFAD78" d="M88.949,20.067c0.746-0.314,1.54-0.478,2.325-0.652c3.216,3.766,5.903,8.005,7.812,12.579
			c-0.316,0.426-0.63,0.854-0.988,1.244c-2.271,0.532-4.793,0.564-6.843-0.696c-3.647-1.93-5.107-6.893-3.273-10.547
			C88.327,21.363,88.717,20.753,88.949,20.067z"/>
		<path fill="#CFAD78" d="M13.365,34.552c2.506-2.492,6.917-2.608,9.569-0.284c1.832,1.518,2.733,4,2.421,6.345
			c-0.118,1.35-0.762,2.57-1.51,3.673c1.154,0.51,2.202,1.308,2.858,2.402c1.322,2.076,1.194,4.969-0.334,6.908
			c-1.53,2.018-4.346,2.887-6.759,2.146c-2.377-0.65-4.245-2.862-4.389-5.338c-0.148-1.372,0.284-2.713,0.952-3.896
			c-1.682-0.536-3.167-1.682-4.04-3.228C10.536,40.537,11.02,36.727,13.365,34.552z"/>
		<path fill="#CFAD78" d="M1.041,54.815c-0.092-3.47-0.066-6.958,0.466-10.395c3.074,1.102,5.725,3.357,7.269,6.239
			c1.536,2.876,1.796,6.35,0.96,9.481c-0.914,3.337-3.348,6.119-6.329,7.805C1.987,63.712,1.301,59.263,1.041,54.815z"/>
		<path fill="#CFAD78" d="M94.084,52.009c3.098-0.158,6.222,0.622,8.881,2.224c-0.273,9.389-3.241,18.705-8.641,26.412
			c-3.021-1.346-5.773-3.432-7.473-6.313c-2.036-3.255-2.691-7.301-1.962-11.056c0.68-3.6,2.748-6.899,5.649-9.127
			C91.625,53.289,92.877,52.675,94.084,52.009z"/>
		<path fill="#CFAD78" d="M36.512,67.073c2.844-1.188,6.224-1.206,8.979,0.24c2.386,1.284,4.312,3.491,5.091,6.103
			c0.765,2.66,0.504,5.654-0.912,8.056c-0.589,0.941-1.268,1.882-2.133,2.575c-1.382,0.198-2.744,0.639-4.154,0.53
			c-2.72-0.116-5.377-1.348-7.175-3.399c-2.649-2.88-3.354-7.359-1.716-10.913c0.468-1.149,1.311-2.075,1.968-3.111L36.512,67.073z"
			/>
		<path fill="#CFAD78" d="M9.802,74.908c2.948-1.113,6.571-0.401,8.661,2.02c2.66,2.862,2.564,7.729-0.15,10.525
			c-0.862,0.136-1.724,0.288-2.583,0.438c-2.866-2.919-5.447-6.123-7.597-9.608C8.548,77.092,9.152,75.984,9.802,74.908z"/>
		<path fill="#CFAD78" d="M63.57,83.126c1.812-0.904,4.199-0.62,5.573,0.928c1.05,1.029,1.328,2.55,1.244,3.965
			c0.802-0.124,1.609-0.25,2.424-0.208c2.226,0.103,4.375,1.302,5.617,3.155c0.823,1.173,1.136,2.604,1.21,4.012
			c-2.438,1.658-5.063,3.024-7.77,4.188c-1.271-0.861-2.451-1.938-3.067-3.377c-0.724-1.634-0.782-3.534-0.224-5.226
			c0.271-0.814,0.785-1.51,1.209-2.246c-0.993,0.216-1.673,1.062-2.591,1.398c-1.727-0.17-3.288-1.48-3.768-3.151
			C63.013,85.441,63.303,84.243,63.57,83.126z"/>
		<path fill="#CFAD78" d="M31.393,95.908c1.65-0.334,3.477-0.002,4.744,1.157c1.171,1.006,1.686,2.558,1.715,4.067
			c-2.521-0.647-4.951-1.607-7.323-2.678C30.777,97.594,31.067,96.743,31.393,95.908z"/>
	</g>
	<g>
		<path fill="#B99A6B" d="M42.806,17.996c0.062-3.741,2.461-7.297,5.856-8.834c-0.623,1.004-1.457,1.879-1.917,2.983
			c-1.388,2.976-1.206,6.611,0.476,9.431c1.682,2.876,4.839,4.822,8.171,5.001c1.476,0.138,2.905-0.308,4.35-0.524
			c-1.9,1.78-4.556,2.671-7.144,2.548c-2.84-0.052-5.585-1.438-7.404-3.604C43.539,23.081,42.674,20.521,42.806,17.996z"/>
		<path fill="#B99A6B" d="M84.508,25.123c0.644-2.228,2.325-4.118,4.441-5.056c-0.232,0.686-0.622,1.296-0.968,1.928
			c-1.834,3.654-0.374,8.617,3.273,10.547c2.05,1.26,4.571,1.228,6.843,0.696c-2.25,2.344-5.943,3.003-8.923,1.792
			c-2.577-1.028-4.529-3.488-4.907-6.241C84.124,27.568,84.149,26.307,84.508,25.123z"/>
		<path fill="#B99A6B" d="M8.336,25.427c0.538-0.932,1.14-1.824,1.78-2.688c2.554,1.438,5.565,2.198,8.491,1.724
			c1.14-0.136,2.2-0.626,3.342-0.76C18.25,26.865,12.713,27.471,8.336,25.427z"/>
		<path fill="#B99A6B" d="M84.354,56.141c2.609-2.479,6.127-3.998,9.73-4.131c-1.207,0.666-2.459,1.28-3.545,2.14
			c-2.901,2.228-4.97,5.527-5.649,9.127c-0.729,3.755-0.074,7.801,1.962,11.056c1.699,2.882,4.451,4.968,7.473,6.313
			c-0.432,0.624-0.872,1.248-1.352,1.838c-4.999-0.518-9.561-3.793-11.782-8.283c-1.471-2.873-1.896-6.215-1.42-9.393
			C80.284,61.519,81.924,58.417,84.354,56.141z"/>
		<path fill="#B99A6B" d="M30.607,75.99c0.06-3.741,2.459-7.295,5.853-8.837c-0.657,1.036-1.5,1.962-1.968,3.111
			c-1.638,3.554-0.934,8.033,1.716,10.913c1.798,2.052,4.455,3.283,7.175,3.399c1.41,0.108,2.772-0.332,4.154-0.53
			c-1.896,1.78-4.55,2.668-7.134,2.546c-2.883-0.052-5.667-1.478-7.488-3.699C31.311,80.992,30.479,78.475,30.607,75.99z"/>
		<path fill="#B99A6B" d="M7.18,76.626c0.774-0.708,1.634-1.34,2.622-1.718c-0.65,1.076-1.254,2.184-1.67,3.374
			C7.792,77.744,7.474,77.192,7.18,76.626z"/>
		<path fill="#B99A6B" d="M61.455,85.617c0.365-1.06,1.167-1.916,2.115-2.491c-0.268,1.117-0.558,2.315-0.142,3.438
			c0.479,1.671,2.041,2.981,3.768,3.151c0.918-0.336,1.598-1.183,2.591-1.398c-0.424,0.736-0.938,1.432-1.209,2.246
			c-0.559,1.691-0.5,3.592,0.224,5.226c0.616,1.439,1.796,2.516,3.067,3.377c-1.268,0.536-2.55,1.044-3.871,1.426
			c-0.758-0.649-1.48-1.363-1.948-2.253c-1.117-1.966-1.109-4.438-0.237-6.491c-1.114-0.093-2.25-0.41-3.078-1.196
			C61.318,89.444,60.818,87.351,61.455,85.617z"/>
		<path fill="#B99A6B" d="M15.729,87.891c0.86-0.149,1.722-0.302,2.583-0.438c-0.488,0.508-1.06,0.93-1.627,1.346
			C16.359,88.503,16.033,88.209,15.729,87.891z"/>
		<path fill="#B99A6B" d="M28.729,97.546c0.736-0.756,1.63-1.374,2.664-1.638c-0.326,0.835-0.616,1.686-0.864,2.547
			C29.915,98.184,29.315,97.878,28.729,97.546z"/>
	</g>
</g>
</svg>
