<?xml version="1.0" encoding="utf-8"?>
<!-- Generator: Adobe Illustrator 16.0.0, SVG Export Plug-In . SVG Version: 6.00 Build 0)  -->
<!DOCTYPE svg PUBLIC "-//W3C//DTD SVG 1.1//EN" "http://www.w3.org/Graphics/SVG/1.1/DTD/svg11.dtd">
<svg version="1.1" id="Layer_1" xmlns="http://www.w3.org/2000/svg" xmlns:xlink="http://www.w3.org/1999/xlink" x="0px" y="0px"
	 width="152px" height="70px" viewBox="0 0 152 70" enable-background="new 0 0 152 70" xml:space="preserve">
<path fill-rule="evenodd" clip-rule="evenodd" d="M12.414,32.654c0.475,0,0.949,0,1.424,0c0.134,0,0.437-0.042,0.516,0.027
	c0.506,0.87,1.013,1.74,1.52,2.61c-0.392,0.002-1.712,0.088-1.967-0.027C13.409,34.394,12.911,33.524,12.414,32.654z"/>
<path fill-rule="evenodd" clip-rule="evenodd" d="M16.768,32.654c0.646,0,1.293,0,1.939,0c0.506,0.879,1.013,1.758,1.519,2.637
	c-0.646,0-1.293,0-1.939,0C17.781,34.412,17.274,33.533,16.768,32.654z"/>
<path fill-rule="evenodd" clip-rule="evenodd" d="M21.827,32.654c0.646,0,1.293,0,1.939,0c0.507,0.879,1.013,1.758,1.52,2.637
	c-0.646,0-1.293,0-1.939,0C22.84,34.412,22.334,33.533,21.827,32.654z"/>
<path fill-rule="evenodd" clip-rule="evenodd" d="M26.357,32.654c0.651,0,1.302,0,1.953,0c0.502,0.879,1.004,1.758,1.506,2.637
	c-0.475,0-0.949,0-1.424,0c-0.133,0-0.437,0.042-0.515-0.027C27.371,34.394,26.864,33.524,26.357,32.654z"/>
<path fill-rule="evenodd" clip-rule="evenodd" d="M33.085,32.654c0,0.879,0,1.758,0,2.637c-0.095,0-0.189,0-0.284,0
	c-0.507-0.879-1.013-1.758-1.52-2.637C31.883,32.654,32.484,32.654,33.085,32.654z"/>
<path fill-rule="evenodd" clip-rule="evenodd" d="M33.913,35.291c0.004-0.478,0.009-0.956,0.014-1.434c0,0.009,0,0.018,0,0.027
	c0.271,0.469,0.542,0.938,0.814,1.406C34.464,35.291,34.188,35.291,33.913,35.291z"/>
<path fill-rule="evenodd" clip-rule="evenodd" d="M33.167,56.397c2.887-0.052,4.766,1.647,5.588,3.664
	c0.489,1.199,0.536,2.937,0.041,4.179c-0.676,1.693-1.952,2.922-3.757,3.488c-0.395,0.124-0.822,0.152-1.275,0.229
	c-0.908,0.155-2.067-0.211-2.632-0.446c-2.267-0.945-4.456-3.825-3.269-7.193c0.609-1.728,1.84-2.926,3.526-3.583
	c0.38-0.147,0.809-0.215,1.248-0.298C32.814,56.425,32.99,56.411,33.167,56.397z"/>
<path fill-rule="evenodd" clip-rule="evenodd" d="M33.085,54.369c3.878-0.072,6.43,2.19,7.542,4.895c0.71,1.729,0.736,4.147,0,5.883
	c-0.92,2.167-2.61,3.781-4.964,4.516c-0.462,0.145-0.957,0.211-1.479,0.297c-0.226,0.014-0.452,0.027-0.678,0.041
	c-0.271-0.014-0.543-0.027-0.814-0.041c-1.084-0.177-1.735-0.306-2.577-0.676c-2.098-0.922-3.568-2.619-4.272-4.936
	c-0.268-0.882-0.451-2.248-0.231-3.353c0.104-0.523,0.202-1.03,0.38-1.487c0.862-2.213,2.414-3.785,4.625-4.651
	c0.481-0.188,1.018-0.3,1.574-0.406C32.488,54.424,32.787,54.396,33.085,54.369z"/>
<path fill-rule="evenodd" clip-rule="evenodd" fill="#FDF8EB" d="M32.99,56.384c-0.199,0.022-0.397,0.046-0.597,0.067
	c-0.398,0.084-0.789,0.172-1.14,0.312c-1.618,0.644-2.885,1.903-3.432,3.61c-1.062,3.316,0.922,6.125,3.161,7.099
	c0.576,0.251,1.765,0.67,2.699,0.514c0.482-0.081,0.927-0.1,1.343-0.229c1.672-0.522,2.98-1.645,3.649-3.164
	c0.17-0.389,0.3-0.81,0.407-1.258c0.292-1.223-0.012-2.613-0.393-3.488C37.798,57.807,35.953,56.375,32.99,56.384z"/>
<path fill-rule="evenodd" clip-rule="evenodd" fill="#852A2A" d="M22.641,46.392c0.465,0.072,0.931,0.145,1.397,0.217
	c1.302,2.186,2.604,4.372,3.906,6.558c0.335,0.559,0.669,1.117,1.004,1.677c0.099,0.161,0.365,0.456,0.366,0.636
	c-0.402,0.139-0.653,0.529-1.017,0.703C26.412,52.918,24.526,49.654,22.641,46.392z"/>
<path fill-rule="evenodd" clip-rule="evenodd" fill="#852A2A" d="M39.46,51.57c0.443,0,0.887,0,1.33,0
	c-0.805,1.523-1.61,3.047-2.415,4.57c-0.35-0.223-0.667-0.493-1.03-0.717C38.05,54.14,38.755,52.854,39.46,51.57z"/>
<path fill-rule="evenodd" clip-rule="evenodd" fill="#C94B4A" d="M51.627,43.498c0,1.086,0,2.173,0,3.259c0.276,0,0.552,0,0.828,0
	c0-1.063,0-2.128,0-3.19c0.425,0.04,0.85,0.08,1.275,0.121c1.091,0.191,2.131,0.279,3.106,0.527c4.01,1.021,6.991,2.56,9.833,4.705
	c0.776,0.586,1.463,1.253,2.211,1.853c0.28,0.257,0.561,0.515,0.841,0.771c0,0.005,0,0.01,0,0.014
	c-9.63-0.004-19.262-0.009-28.892-0.014c-2.59,0.005-5.182,0.01-7.772,0.014c-1.209,0-2.651,0.12-3.622-0.162
	c-1.121-0.326-2.48-1.131-1.899-2.718c0.08-0.218,0.208-0.433,0.339-0.608c0.723-0.967,2.242-1.595,3.432-2.109
	c0.545-0.236,1.152-0.573,1.776-0.689c0,0.496,0,0.992,0,1.487c0.276,0,0.552,0,0.828,0c0-0.591,0-1.181,0-1.771
	c0.813-0.175,1.656-0.451,2.496-0.662c1.095-0.275,2.263-0.35,3.432-0.555c0.746-0.063,1.492-0.126,2.238-0.189
	c0.253-0.009,0.506-0.018,0.76-0.026c0.588-0.027,1.176-0.055,1.763-0.082c0.235,0,0.47,0,0.706,0
	c0.528-0.009,1.058-0.018,1.587-0.026c0.438-0.005,0.877-0.009,1.315-0.014C49.384,43.431,50.511,43.498,51.627,43.498z"/>
<path fill-rule="evenodd" clip-rule="evenodd" d="M33.112,6.03c0.258,0,0.516,0,0.773,0c0,1.6,0,3.201,0,4.8
	c-0.009-0.004-0.019-0.009-0.027-0.013c-0.249-0.32-0.497-0.64-0.746-0.96C33.112,8.582,33.112,7.306,33.112,6.03z"/>
<path fill-rule="evenodd" clip-rule="evenodd" d="M51.654,6.03c0.258,0,0.516,0,0.773,0c0,3.272,0,6.545,0,9.817
	c-0.258-0.014-0.516-0.027-0.773-0.041C51.654,12.548,51.654,9.289,51.654,6.03z"/>
<path fill-rule="evenodd" clip-rule="evenodd" d="M33.886,22.5c-0.258,0-0.516,0-0.773,0c0.005-4.196,0.009-8.393,0.014-12.588
	c0.009,0.005,0.018,0.009,0.027,0.014c0.244,0.315,0.488,0.631,0.732,0.946C33.886,14.747,33.886,18.624,33.886,22.5z"/>
<path fill-rule="evenodd" clip-rule="evenodd" d="M51.654,15.833c0.258,0.009,0.516,0.018,0.773,0.027c0,2.213,0,4.427,0,6.639
	c-0.258,0-0.516,0-0.773,0C51.654,20.278,51.654,18.055,51.654,15.833z"/>
<path fill-rule="evenodd" clip-rule="evenodd" d="M33.112,22.513c0.258,0,0.516,0,0.773,0c0,2.461,0,4.922,0,7.383
	c-0.258,0-0.516,0-0.773,0C33.112,27.435,33.112,24.974,33.112,22.513z"/>
<path fill-rule="evenodd" clip-rule="evenodd" d="M51.654,22.513c0.258,0,0.516,0,0.773,0c0,2.461,0,4.922,0,7.383
	c-0.258,0-0.516,0-0.773,0C51.654,27.435,51.654,24.974,51.654,22.513z"/>
<path fill-rule="evenodd" clip-rule="evenodd" d="M33.112,29.923c0.258,0,0.516,0,0.773,0c0,0.708,0,1.415,0,2.123
	c-0.258,0-0.516,0-0.773,0C33.112,31.338,33.112,30.63,33.112,29.923z"/>
<path fill-rule="evenodd" clip-rule="evenodd" d="M51.654,29.923c0.258,0,0.516,0,0.773,0c0,0.708,0,1.415,0,2.123
	c-0.258,0-0.516,0-0.773,0C51.654,31.338,51.654,30.63,51.654,29.923z"/>
<path fill-rule="evenodd" clip-rule="evenodd" d="M33.112,32.073c0.258,0,0.516,0,0.773,0c0,0.554,0,1.109,0,1.663
	c-0.009-0.004-0.019-0.009-0.027-0.014c-0.212-0.365-0.425-0.73-0.638-1.095c-0.036,0-0.072,0-0.108,0
	C33.112,32.442,33.112,32.257,33.112,32.073z"/>
<path fill-rule="evenodd" clip-rule="evenodd" d="M51.654,32.073c0.258,0,0.516,0,0.773,0c0,4.875,0,9.751,0,14.626
	c-0.258-0.023-0.516-0.046-0.773-0.068C51.654,41.778,51.654,36.925,51.654,32.073z"/>
<path fill-rule="evenodd" clip-rule="evenodd" d="M33.112,32.654c0.036,0,0.072,0,0.108,0c0.222,0.378,0.443,0.757,0.665,1.136
	c0,0.5,0,1,0,1.501c-0.258,0-0.516,0-0.773,0C33.112,34.412,33.112,33.533,33.112,32.654z"/>
<path fill-rule="evenodd" clip-rule="evenodd" d="M33.112,35.304c0.258,0,0.516,0,0.773,0c-0.005,3.227-0.009,6.455-0.014,9.681
	c-0.253,0.081-0.506,0.163-0.76,0.243C33.112,41.921,33.112,38.612,33.112,35.304z"/>
<path fill-rule="evenodd" clip-rule="evenodd" d="M33.886,46.729c-0.258,0-0.516,0-0.773,0c-0.003-0.211-0.027-1.438,0.041-1.487
	c0.244-0.081,0.488-0.162,0.732-0.243C33.886,45.576,33.886,46.152,33.886,46.729z"/>
<path fill-rule="evenodd" clip-rule="evenodd" d="M3.991,5.138c0.145,0.136,0.255,0.791,0.326,1.028
	c0.19,0.64,0.337,1.333,0.475,2.042c0.036,0.333,0.072,0.667,0.108,1c0.123,0.742,0.108,1.59,0.108,2.447c0,1.023,0,2.047,0,3.069
	c0,3.375,0,6.752,0,10.128C4.264,25.2,3.641,25.688,3,26.137c-0.004,0-0.009,0-0.013,0c0-3.723,0-7.446,0-11.168
	c0-1.037,0-2.074,0-3.11c0-0.583-0.042-1.221,0.041-1.744C3.064,9.659,3.1,9.204,3.136,8.748C3.245,8.133,3.315,7.526,3.462,6.95
	C3.638,6.346,3.814,5.742,3.991,5.138z"/>
<path fill-rule="evenodd" clip-rule="evenodd" d="M5.008,26.948c-0.673-0.005-1.347-0.009-2.021-0.014c0-0.252,0-0.505,0-0.757
	c0.153-0.113,0.307-0.225,0.461-0.338c0.459-0.325,0.992-0.775,1.56-0.96C5.008,25.569,5.008,26.259,5.008,26.948z"/>
<path fill-rule="evenodd" clip-rule="evenodd" d="M2.987,36.629c0.673,0,1.347,0,2.021,0c-0.004,0.844-0.009,1.687-0.013,2.529
	c-0.548-0.255-1.681-0.826-2.007-1.258C2.987,37.477,2.987,37.053,2.987,36.629z"/>
<path fill-rule="evenodd" clip-rule="evenodd" d="M2.987,37.954c0.167,0.126,0.334,0.253,0.501,0.379
	c0.459,0.323,0.976,0.624,1.519,0.853c0,3.267,0,6.535,0,9.803c0,1.009,0,2.019,0,3.028c0,0.773,0.02,1.545-0.095,2.218
	c-0.036,0.347-0.072,0.693-0.108,1.041C4.665,56,4.525,56.707,4.33,57.357c-0.085,0.284-0.172,0.891-0.339,1.082
	c0-0.01,0-0.019,0-0.027c-0.201-0.394-0.259-0.88-0.393-1.325c-0.574-1.909-0.61-4.249-0.61-6.774
	C2.987,46.193,2.987,42.073,2.987,37.954z"/>
<path fill-rule="evenodd" clip-rule="evenodd" fill="#F9F1DE" d="M10.162,29.923c7.641,0,15.283,0,22.923,0c0,0.708,0,1.415,0,2.123
	c-7.64,0-15.282,0-22.923,0C10.162,31.338,10.162,30.63,10.162,29.923z"/>
<path fill-rule="evenodd" clip-rule="evenodd" fill="#F9F1DE" d="M33.913,29.923c5.904,0,11.81,0,17.714,0c0,0.708,0,1.415,0,2.123
	c-5.904,0-11.81,0-17.714,0C33.913,31.338,33.913,30.63,33.913,29.923z"/>
<path fill-rule="evenodd" clip-rule="evenodd" fill="#F9F1DE" d="M52.455,29.923c23.635,0,47.277,0,70.913,0
	c0.241,1.16,1.738,1.041,2.943,1.257c1.505,0.176,3.011,0.352,4.516,0.527c0.498,0.045,0.995,0.09,1.492,0.135
	c0.882,0.063,1.764,0.126,2.646,0.189c0,0.004,0,0.009,0,0.014c-27.501,0-55.009,0-82.509,0
	C52.455,31.338,52.455,30.63,52.455,29.923z"/>
<path fill-rule="evenodd" clip-rule="evenodd" fill="#C94B4A" d="M126.5,27.759c0.714-0.003,1.451-0.046,2.115,0.054
	c0.385,0.014,0.77,0.027,1.153,0.041c0.638,0.022,1.275,0.045,1.913,0.068c1.116,0.045,2.233,0.09,3.35,0.135
	c0.873,0.077,1.746,0.153,2.618,0.23c1.452,0.249,2.86,0.394,4.205,0.73c2.188,0.548,4.274,1.161,6.348,1.812
	c1.266,0.401,2.532,0.802,3.798,1.204c0,0.004,0,0.009,0,0.014c-2.679,0.229-5.5,0.203-8.328,0.203
	c-1.099-0.014-2.197-0.027-3.296-0.041c-0.516-0.014-1.031-0.027-1.546-0.041c-0.9-0.031-1.801-0.062-2.7-0.094
	c-0.614-0.036-1.229-0.072-1.845-0.108c-1.405-0.221-2.88-0.15-4.245-0.379c-1.493-0.25-3.007-0.262-4.449-0.527
	c-1.003-0.185-1.634-0.125-2.089-0.865c-0.786-1.281,1.131-2.103,2.049-2.326C125.867,27.832,126.184,27.795,126.5,27.759z"/>
<path fill-rule="evenodd" clip-rule="evenodd" fill="#FDF8EB" d="M8.155,40.158c-0.322-0.016-0.658-0.131-0.936-0.217
	c-0.538-0.164-1.037-0.29-1.532-0.486c-0.217-0.09-0.435-0.18-0.651-0.27c0-0.861,0-1.723,0-2.583c-0.688,0-1.375,0-2.062,0
	c-0.005,0.428-0.009,0.856-0.014,1.284c-0.014-0.014-0.027-0.027-0.041-0.041c-0.395-0.19-0.894-0.829-1.166-1.176
	c-0.969-1.23-1.687-2.583-1.75-4.732c-0.013-0.433,0.013-0.929,0.108-1.325c0.394-1.638,1.151-3.001,2.279-3.908
	c0.196-0.157,0.354-0.36,0.57-0.5c0.004,0,0.009,0,0.014,0c0,0.257,0,0.514,0,0.771c0.687-0.004,1.374-0.009,2.062-0.013
	c0-0.703,0-1.407,0-2.109c0.425-0.199,0.85-0.397,1.275-0.595c0.592-0.25,1.213-0.394,1.845-0.622
	C8.155,29.143,8.155,34.651,8.155,40.158z"/>
<path fill-rule="evenodd" clip-rule="evenodd" fill="#ED6C6C" d="M140.729,6.301c1.319-0.012,2.559,0.074,3.662,0.298
	c-0.275,7.611-0.552,15.226-0.827,22.837c-0.488-0.122-0.977-0.244-1.465-0.365c-1.42-0.361-2.938-0.541-4.503-0.811
	c-1.036-0.086-2.071-0.171-3.106-0.257c-1.623-0.063-3.247-0.126-4.87-0.189c-0.384-0.009-0.769-0.018-1.152-0.027
	c-0.263-0.009-0.524-0.018-0.787-0.027c-0.495-0.079-1.183-0.07-1.668,0.014c-0.397,0.068-0.785,0.215-1.126,0.271
	c-0.642-0.149-1.284-0.297-1.926-0.446c0-0.004,0-0.009,0-0.014c0.983,0.004,1.724-0.217,2.156-0.757
	c0.767-0.957,0.668-2.569,0.95-4.043c0.14-0.892,0.279-1.785,0.42-2.677c0.327-1.498,0.636-2.959,1.152-4.273
	c1.621-4.12,4.188-7.163,8.342-8.762c0.88-0.338,1.881-0.477,2.917-0.649c0.434-0.036,0.868-0.072,1.302-0.108
	C140.376,6.31,140.552,6.306,140.729,6.301z"/>
<path fill-rule="evenodd" clip-rule="evenodd" fill="#ED6C6C" d="M10.108,22.513c7.663,0.005,15.328,0.009,22.99,0.014
	c-0.004,2.461-0.009,4.922-0.014,7.383c-7.649-0.004-15.301-0.009-22.95-0.014c0,0.726,0,1.452,0,2.177c7.654,0,15.31,0,22.963,0
	c-0.004,0.189-0.009,0.378-0.014,0.568c-0.61-0.005-1.221-0.009-1.831-0.014c0.516,0.893,1.031,1.785,1.547,2.677
	c0.099,0.004,0.199,0.009,0.298,0.014c0,2.501,0,5.002,0,7.504c0,0.604,0,1.208,0,1.812c0,0.147,0.051,0.542-0.041,0.608
	c-0.204,0.072-0.407,0.145-0.61,0.217c-0.524,0.216-1.049,0.433-1.573,0.648c-0.479,0.239-0.958,0.479-1.438,0.717
	c-0.176,0.113-0.353,0.226-0.529,0.338c-0.556-0.062-1.112-0.126-1.668-0.189c-1.375-0.254-2.778-0.281-4.11-0.54
	c-1.917-0.374-3.793-0.534-5.534-1.055c-1.309-0.392-2.558-0.786-3.73-1.298c-1.393-0.608-2.615-1.427-3.757-2.285
	c-0.465-0.35-0.882-0.739-1.33-1.096c-0.199-0.176-0.398-0.352-0.597-0.527c0.004-5.525,0.009-11.052,0.013-16.577
	c0.251-0.464,0.788-0.823,1.343-0.987C9.729,22.576,9.918,22.545,10.108,22.513z"/>
<path fill-rule="evenodd" clip-rule="evenodd" fill="#ED6C6C" d="M33.913,22.513c5.904,0,11.81,0,17.714,0c0,2.461,0,4.922,0,7.383
	c-5.904,0-11.81,0-17.714,0C33.913,27.435,33.913,24.974,33.913,22.513z"/>
<path fill-rule="evenodd" clip-rule="evenodd" fill="#ED6C6C" d="M52.455,22.513c7.685,0,15.374,0,23.059,0
	c0.205,0.672,0.744,1.461,1.125,2.001c1.171,1.654,2.642,2.811,4.87,3.421c0.81,0.222,2.092,0.35,3.052,0.149
	c0.582-0.122,1.146-0.22,1.654-0.419c1.676-0.657,2.807-1.533,4.083-2.556c0.361-0.37,0.724-0.739,1.085-1.109
	c0.104-0.122,0.208-0.244,0.312-0.365c1.039,0.05,2.08,0.099,3.119,0.149c0.854,0.054,1.709,0.108,2.563,0.162
	c0.394,0.022,0.787,0.045,1.181,0.067c1.279,0.113,2.559,0.226,3.838,0.338c0.724,0.068,1.447,0.135,2.171,0.203
	c2.233,0.374,4.498,0.412,6.673,0.838c1.415,0.234,2.831,0.469,4.246,0.703c1.211,0.234,2.424,0.469,3.635,0.703
	c1.898,0.419,3.798,0.838,5.697,1.257c0,0.005,0,0.009,0,0.014c-0.01,0-0.019,0-0.027,0c-0.71,0.441-1.542,0.652-1.438,1.825
	c-23.631,0-47.269,0-70.899,0C52.455,27.435,52.455,24.974,52.455,22.513z"/>
<path fill-rule="evenodd" clip-rule="evenodd" fill="#ED6C6C" d="M52.455,43.539c0-3.822,0-7.645,0-11.466
	c21.799,0,43.606,0,65.405,0c4.403,0,8.809,0,13.212,0c1.185,0,2.369,0,3.554,0c0.672,0,1.321-0.054,1.926,0.041
	c0.529,0.022,1.059,0.045,1.587,0.067c0.602,0.014,1.202,0.027,1.804,0.041c1.126,0.018,2.252,0.036,3.378,0.054
	c0.696,0,1.393,0,2.089,0c0,0.005,0,0.009,0,0.014c-7.396,1.496-14.795,2.993-22.19,4.489c-3.038,0.604-6.077,1.208-9.115,1.812
	c-2.044,0.406-4.088,0.812-6.131,1.217c-1.84,0.365-3.681,0.73-5.521,1.096c-5.014,0.986-10.029,1.975-15.043,2.961
	c-5.239,1.019-10.48,2.037-15.72,3.056c-2.03,0.393-4.061,0.784-6.091,1.177c-0.348-0.234-0.696-0.469-1.044-0.703
	c-0.806-0.504-1.672-1.014-2.563-1.406C59.257,44.781,56.209,43.719,52.455,43.539z"/>
<path fill-rule="evenodd" clip-rule="evenodd" fill="#ED6C6C" d="M33.913,32.073c5.904,0,11.81,0,17.714,0c0,3.804,0,7.609,0,11.412
	c-1.025-0.022-2.075-0.081-3.16-0.081c-0.407,0.005-0.814,0.009-1.221,0.014c-0.552,0.009-1.104,0.019-1.655,0.027
	c-0.267,0-0.534,0-0.8,0c-0.615,0.026-1.23,0.054-1.845,0.081c-0.262,0.009-0.524,0.018-0.787,0.027
	c-0.796,0.067-1.592,0.135-2.387,0.202c-1.139,0.199-2.27,0.278-3.337,0.541c-0.602,0.149-1.203,0.298-1.804,0.446
	c-0.24,0.072-0.479,0.145-0.719,0.217c0-3.219,0-6.438,0-9.655c0.29,0,0.579,0,0.868,0c-0.29-0.496-0.579-0.992-0.868-1.487
	C33.913,33.235,33.913,32.654,33.913,32.073z"/>
<path fill-rule="evenodd" clip-rule="evenodd" d="M12.373,32.627c0.511,0.893,1.022,1.785,1.533,2.677c0.664,0,1.329,0,1.994,0
	c0-0.004,0-0.009,0-0.013c-0.009-0.009-0.018-0.019-0.027-0.027c-0.507-0.879-1.013-1.758-1.52-2.637
	C13.693,32.627,13.033,32.627,12.373,32.627z"/>
<path fill-rule="evenodd" clip-rule="evenodd" d="M16.741,32.627c0.506,0.893,1.013,1.785,1.519,2.677c0.665,0,1.33,0,1.994,0
	c0-0.004,0-0.009,0-0.013c-0.511-0.888-1.022-1.776-1.533-2.664C18.061,32.627,17.401,32.627,16.741,32.627z"/>
<path fill-rule="evenodd" clip-rule="evenodd" d="M21.8,32.627c0.032,0.231,0.318,0.569,0.448,0.784
	c0.366,0.631,0.732,1.262,1.099,1.893c0.66,0,1.32,0,1.98,0c-0.515-0.892-1.031-1.785-1.546-2.677
	C23.12,32.627,22.46,32.627,21.8,32.627z"/>
<path fill-rule="evenodd" clip-rule="evenodd" d="M26.331,32.627c0.515,0.893,1.031,1.785,1.546,2.677c0.66,0,1.32,0,1.98,0
	c-0.005-0.013-0.009-0.027-0.014-0.041c-0.511-0.879-1.022-1.758-1.533-2.637C27.651,32.627,26.991,32.627,26.331,32.627z"/>
<path fill-rule="evenodd" clip-rule="evenodd" fill="#C94B4A" d="M52.455,15.847c0-3.281,0-6.563,0-9.844c-0.276,0-0.551,0-0.828,0
	c0,3.267,0,6.536,0,9.803c-2.884-0.135-5.77-0.271-8.653-0.406c-0.294-0.009-0.588-0.018-0.882-0.027
	c-0.389-0.019-0.778-0.036-1.167-0.054s-0.778-0.036-1.167-0.054c-0.624-0.097-1.196-0.127-1.709-0.324
	c-1.638-0.632-2.213-1.584-3.174-2.854c-0.321-0.401-0.643-0.802-0.963-1.203c0-1.627,0-3.254,0-4.881
	c-0.276,0.004-0.551,0.009-0.828,0.014c0,1.262,0,2.524,0,3.786c-0.669-0.856-1.338-1.712-2.007-2.569
	c-0.579-0.73-1.158-1.46-1.736-2.19c-0.095-0.248-0.19-0.496-0.285-0.744c-0.527-1.903,0.767-2.715,2.103-3.11
	c1.535-0.454,3.337-0.51,5.046-0.798c0.47-0.045,0.94-0.09,1.411-0.135c0.773-0.054,1.546-0.108,2.319-0.162
	C40.816,0.063,41.698,0.032,42.58,0c0.316,0,0.633,0,0.949,0c0.452,0,0.904,0,1.356,0c0.66,0.014,1.32,0.027,1.98,0.041
	c0.371,0.009,0.742,0.018,1.112,0.027c0.294,0.014,0.588,0.027,0.882,0.041c0.963,0.067,1.926,0.135,2.889,0.203
	c0.416,0.032,0.832,0.063,1.248,0.095C54.486,0.651,56,0.637,57.433,0.919c1.354,0.267,2.703,0.431,3.988,0.757
	c2.542,0.645,4.885,1.433,6.985,2.501c0.978,0.498,1.943,0.985,2.767,1.636c0.567,0.448,0.374,1.167,0.014,1.677
	c-0.787,1.113-1.962,1.999-3.106,2.758c-1.761,1.168-3.643,2.177-5.507,3.259c-1.723,1-3.556,1.687-5.792,2.204
	c-0.488,0.09-0.977,0.18-1.465,0.271C54.363,15.938,53.408,15.892,52.455,15.847z"/>
<path fill-rule="evenodd" clip-rule="evenodd" d="M33.449,46.219l-0.898-0.438l19-39l0.898,0.438L33.449,46.219z"/>
<path fill-rule="evenodd" clip-rule="evenodd" d="M32.548,6.215l0.903-0.429l19,40l-0.903,0.43L32.548,6.215z"/>
</svg>
