<?xml version="1.0" encoding="utf-8"?>
<!-- Generator: Adobe Illustrator 16.0.0, SVG Export Plug-In . SVG Version: 6.00 Build 0)  -->
<!DOCTYPE svg PUBLIC "-//W3C//DTD SVG 1.1//EN" "http://www.w3.org/Graphics/SVG/1.1/DTD/svg11.dtd">
<svg version="1.1" id="Layer_1" xmlns="http://www.w3.org/2000/svg" xmlns:xlink="http://www.w3.org/1999/xlink" x="0px" y="0px"
	 width="445px" height="118px" viewBox="0 0 445 118" enable-background="new 0 0 445 118" xml:space="preserve">
<g>
	<path fill="#FFFFFF" d="M29.421,97.592c11.96,0,21.711-8.449,21.711-22.62c0-24.831-22.751-41.472-31.201-41.992
		c-1.171-0.13-4.16-5.85-4.16-6.89C15.51,17.639,49.182,6.719,62.182,7.889c2.34,0.26,7.15,5.2,7.15,6.76
		c0,6.24-9.88,14.43-13.131,14.43c-0.909,0-1.17-0.52-1.17-1.43c0-1.17,4.551-6.63,4.551-8.061c0-3.12-23.921,5.33-29.512,10.141
		c5.461,2.99,31.462,20.671,31.462,51.352c0,17.03-12.871,25.48-25.352,25.48c-16.511,0-26.781-15.08-26.781-26.91
		c0-5.852,3.38-14.301,9.1-14.301c3.641,0,6.37,1.56,7.15,4.42c-2.73,2.73-7.28,9.881-7.28,16.25
		C18.37,91.092,21.62,97.592,29.421,97.592z"/>
	<path fill="#FFFFFF" d="M60.748,37.01c1.431-1.17,7.411-2.73,13.911-4.03c2.34-8.84,4.68-15.471,6.11-16.511
		c2.21-1.56,8.97,3.38,8.58,4.811l-2.6,9.62c2.47-0.39,4.55-0.65,6.109-0.78c2.86-0.26,5.33-0.78,6.11,0.91
		c0.78,1.82,1.95,0.39,3.511,1.95c0.649,0.65,2.729,3.51,2.729,4.29c0,0.91-0.26,1.95-1.95,1.95c-5.33,0.13-12.61,1.04-19.24,2.08
		c-4.29,16.641-8.32,35.102-8.32,46.932c0,3.38,1.43,5.46,4.16,5.46c7.67,0,18.2-9.23,18.721-16.12c0,0,4.68-1.17,4.68,6.629
		c0,8.842-12.35,18.98-20.67,18.98c-8.841,0-16.251-9.229-16.251-22.619c0-7.801,2.6-23.402,5.851-37.312l-5.851,1.3
		C62.959,45.331,58.929,38.57,60.748,37.01z"/>
	<path fill="#FFFFFF" d="M131.078,92.521c-2.08,4.551-7.41,9.49-13.78,9.49c-9.62,0-16.9-9.879-16.9-25.74
		c0-23.531,10.79-46.932,26.391-46.932c8.841,0,12.74,5.72,12.74,9.621c0,0.65-0.13,1.43-0.13,1.43c1.17,0.39,6.24,0.52,5.46,3.51
		c-4.03,14.561-7.28,28.081-7.28,38.352c0,5.98,1.04,10.01,5.461,10.01c6.76,0,8.58-8.449,9.49-16.25c0,0,3.77-0.391,3.77,3.51
		c0,6.891-5.33,21.58-15.21,21.58c-5.98,0-9.101-5.459-9.36-8.58H131.078z M115.998,93.172c7.67,0,14.69-31.07,14.69-35.751
		c0,0-4.16-0.78-5.98-2.86c2.73-3.771,4.42-8.32,4.42-13.001c0-1.17,0-4.29-2.47-4.29c-9.49,0-15.341,31.072-15.341,44.722
		C111.317,90.053,112.617,93.172,115.998,93.172z"/>
	<path fill="#FFFFFF" d="M147.717,37.01c1.431-1.17,7.411-2.73,13.911-4.03c2.34-8.84,4.68-15.471,6.11-16.511
		c2.21-1.56,8.97,3.38,8.58,4.811l-2.6,9.62c2.47-0.39,4.55-0.65,6.109-0.78c2.86-0.26,5.33-0.78,6.11,0.91
		c0.78,1.82,1.95,0.39,3.511,1.95c0.649,0.65,2.729,3.51,2.729,4.29c0,0.91-0.26,1.95-1.95,1.95c-5.33,0.13-12.61,1.04-19.24,2.08
		c-4.29,16.641-8.32,35.102-8.32,46.932c0,3.38,1.43,5.46,4.16,5.46c7.67,0,18.2-9.23,18.721-16.12c0,0,4.68-1.17,4.68,6.629
		c0,8.842-12.35,18.98-20.67,18.98c-8.841,0-16.251-9.229-16.251-22.619c0-7.801,2.6-23.402,5.851-37.312l-5.851,1.3
		C149.928,45.331,145.897,38.57,147.717,37.01z"/>
	<path fill="#FFFFFF" d="M212.847,80.562c-1.69,5.979-5.72,19.76-11.7,19.76c-5.721,0-14.82-8.84-14.82-17.68
		c0-15.211,8.06-47.842,12.87-47.842c1.69,0,5.2,1.69,6.37,3.51c-4.68,16.121-8.32,34.321-8.32,50.442l1.82,0.65
		c9.36-15.211,16.771-41.602,18.33-55.382c0.131-1.17,1.041-1.56,2.211-1.56c3.77,0,8.58,2.73,8.58,4.94
		c0,4.811-6.24,33.022-6.24,42.772c0,2.99,1.04,10.01,5.46,10.01c5.591,0,7.931-11.96,7.931-11.96c1.17,0,3.51,0.13,3.51,3.25
		c0,4.94-6.76,16.901-14.17,16.901c-9.881,0-11.441-10.531-11.051-17.941L212.847,80.562z"/>
	<path fill="#FFFFFF" d="M242.876,51.311c0,0,23.921,10.66,23.921,33.281c0,14.951-7.93,20.541-16.9,20.541
		c-10.92,0-21.451-12.221-21.451-22.49c0-4.811,3.121-15.082,7.801-15.082c1.82,0,5.851,3.641,5.851,4.811
		c0,4.16-5.591,14.432-5.591,15.602s1.69,7.539,9.23,7.539c8.19,0,12.091-5.979,12.091-14.82c0-13.26-12.221-22.88-20.801-23.92
		c-2.341-1.95-3.641-6.5-3.38-9.88c0.52-5.46,32.11-16.771,34.061-16.771c1.301,0,4.29,3.38,4.29,5.721
		c0,4.94-8.84,12.09-12.09,12.09c-1.3,0-1.69-3.51-2.99-3.51c-3.38,0.13-13.261,5.33-14.171,6.37L242.876,51.311z"/>
	<path fill="#FFFFFF" d="M318.535,6.589c2.21,0.65,3.899,1.69,4.939,2.99c0,0,3.381-2.08,7.15-2.08
		c17.031,0,21.321,14.69,21.321,31.331c0,11.44-2.601,36.662-12.091,51.872c3.12,4.81,5.98,9.751,8.84,15.081
		c1.171,2.209,0.65,3.25,0,4.289c-1.56,2.34-3.119,2.861-4.16,3.641c-0.779,0.52-2.859,1.041-4.16-1.301
		c-2.34-4.16-5.069-8.84-7.8-13.391c-3.25,2.342-6.891,3.771-11.181,3.771c-18.07,0-25.091-18.07-25.091-40.951
		C296.304,39.48,307.094,9.839,318.535,6.589z M325.165,68.471l8.061,11.961c7.28-16.381,8.84-43.032,8.84-50.312
		c0-7.67-2.08-15.601-8.19-15.601c-9.49,0-14.561,9.491-15.99,15.471c0,0.13-0.13,0.13-0.391,0.13c-0.909,0-3.77-1.04-4.68-1.95
		c0.13,0-8.19,18.331-8.19,40.951c0,14.301,5.46,24.441,14.041,24.441c3.12,0,5.979-1.301,8.32-3.641
		c-3.12-4.939-6.24-9.359-8.971-12.87C314.895,73.151,321.395,69.641,325.165,68.471z"/>
	<path fill="#FFFFFF" d="M377.814,80.562c-1.689,5.979-5.72,19.76-11.7,19.76c-5.721,0-14.82-8.84-14.82-17.68
		c0-15.211,8.06-47.842,12.87-47.842c1.69,0,5.2,1.69,6.37,3.51c-4.68,16.121-8.32,34.321-8.32,50.442l1.82,0.65
		c9.36-15.211,16.771-41.602,18.331-55.382c0.13-1.17,1.039-1.56,2.21-1.56c3.77,0,8.58,2.73,8.58,4.94
		c0,4.811-6.24,33.022-6.24,42.772c0,2.99,1.04,10.01,5.46,10.01c5.59,0,7.931-11.96,7.931-11.96c1.17,0,3.51,0.13,3.51,3.25
		c0,4.94-6.76,16.901-14.171,16.901c-9.88,0-11.439-10.531-11.05-17.941L377.814,80.562z"/>
	<path fill="#FFFFFF" d="M415.124,29.73c1.69,0.91,2.99,2.08,3.381,3.25c0,0,1.819-1.56,4.55-1.56
		c13.65,0,15.86,12.61,15.471,26.131c-0.521,14.301-5.46,45.242-22.23,45.242c-13.651,0-18.591-17.941-18.201-32.242
		C398.744,53.651,406.934,32.2,415.124,29.73z M413.954,93.692c12.091,0,16.121-34.711,16.381-42.382c0.13-3.77,0.91-13-4.29-13
		c-7.54,0-13.65,22.75-14.951,30.161c-0.13,0.521-2.989-0.52-3.77-1.17c0,0-0.78,3.641-0.91,8.451
		C406.024,85.632,408.624,93.692,413.954,93.692z"/>
</g>
</svg>
